<?xml version="1.0" encoding="UTF-8"?>
<svg id="Layer_1" data-name="Layer 1" xmlns="http://www.w3.org/2000/svg" viewBox="0 0 30.99 19.72">
  <defs>
    <style>
      .cls-1 {
        fill: #07959c;
      }

      .cls-1, .cls-2 {
        fill-rule: evenodd;
        stroke-width: 0px;
      }

      .cls-2 {
        fill: #068c9d;
      }
    </style>
  </defs>
  <g id="svgg">
    <path id="path0" class="cls-1" d="M.02,5.17v5.16h2.22c2.05-.01,2.23-.01,2.35-.04.75-.18,1.35-.75,1.54-1.48.08-.3.08-.44.08-3.81V1.83s-.05-.17-.05-.17c-.2-.85-.83-1.47-1.68-1.61-.15-.03-.42-.03-2.32-.03H.02v5.16M8.03.05c-.28.07-.55.28-.67.53-.12.24-.12.24-.12,1.74v1.35s.63,0,.63,0c.82.01,1.07.08,1.37.36l.06.06V.02h-.58c-.43,0-.61,0-.69.03M11.38,2.04c0,1.11,0,2.02,0,2.02s.05-.04.11-.08c.31-.25.52-.3,1.31-.31h.63s0-1.34,0-1.34c0-1.67,0-1.71-.31-2.01-.27-.27-.41-.31-1.18-.31h-.57s0,2.02,0,2.02M14.46,1.84v1.82h2.06v-.33c0-.57.12-.86.46-1.08l.12-.08V.02h-2.64v1.82M17.57,1.04v1.03h.07c.2,0,.48.13.66.31.55.55.32,1.46-.43,1.72l-.12.04h-2.79s-2.79.02-2.79.02l-.12.05c-.25.1-.44.27-.55.5-.11.21-.11.18-.11,1.94v1.61h-.59c-.65,0-.71,0-.92-.11-.15-.07-.35-.27-.43-.42-.13-.25-.12-.16-.13-1.53v-1.25s-.06-.12-.06-.12c-.1-.26-.26-.45-.48-.56-.22-.11-.27-.12-.93-.12h-.59v2.1c0,1.36,0,2.15.02,2.25.11.87.69,1.53,1.55,1.77l.17.05h1.26c.84.01,1.3,0,1.4,0,.77-.1,1.43-.65,1.67-1.38.1-.31.1-.3.11-1.57v-1.17s2.29,0,2.29,0h2.28s.18-.05.18-.05c1.68-.38,2.71-1.9,2.43-3.57-.24-1.39-1.43-2.46-2.84-2.54h-.19s0,1.02,0,1.02M23.51.03c-.93.15-1.58.75-1.78,1.66-.02.11-.03.32-.04,1.26v1.13s.12-.09.12-.09c.34-.26.54-.31,1.33-.32h.61s0-1.44,0-1.44c0-1.62,0-1.51.16-1.84.05-.1.12-.22.16-.27.04-.05.07-.09.07-.09,0,0-.57,0-.63,0M25,.05c-.26.06-.54.28-.66.51-.12.22-.12.25-.13.92v.61s.34,0,.34,0c.52,0,.71.06.95.31.56.56.32,1.47-.45,1.73-.09.03-.21.03-1.34.04-1.38.01-1.31,0-1.54.15-.4.24-.48.47-.5,1.3v.6s2.17,0,2.17,0c2.36,0,2.32,0,2.61-.1.7-.24,1.2-.81,1.37-1.54.05-.23.05-2.63,0-2.87-.17-.81-.73-1.39-1.53-1.6-.22-.06-1.11-.08-1.31-.03M29.75.04c-.38.08-.68.35-.8.74-.03.09-.03.47-.04,4.82v4.73s.62,0,.62,0c.6,0,.63,0,.74-.05.24-.09.46-.27.57-.49.13-.24.12.15.12-5.06V.02s-.57,0-.57,0c-.32,0-.61,0-.65.02M3.35,2.1c.34.08.63.35.75.7l.04.13v4.48l-.04.13c-.09.26-.28.49-.53.62-.19.1-.27.11-.91.11h-.58s0-6.19,0-6.19h.58c.45,0,.61,0,.7.03M20,5.71c-.4.39-1.28.87-1.59.87-.03,0-.03.05,0,.06.04.02.15.27.17.39.21.99-1.01,1.66-1.74.95-.25-.24-.3-.4-.31-.91v-.38h-2.06v1.4c.01,1.3.01,1.41.04,1.5.12.36.41.63.76.71.22.05,2.61.03,2.87-.03,2.12-.44,3.16-2.74,2.09-4.6-.08-.14-.06-.14-.23.03M27.83,5.68c-.35.52-1.11.92-1.88.99h-.12s0,1.38,0,1.38c0,1.68,0,1.66.31,1.97.28.28.39.31,1.18.31h.57v-2.36c0-1.3,0-2.36,0-2.36,0,0-.02.03-.05.07M17.01,7c0,.39.02.48.15.61.44.45,1.19-.07.92-.63-.12-.25-.27-.32-.73-.32h-.33v.33M21.69,8.51v1.83h.63c.6-.01.63-.02.74-.05.29-.11.53-.34.64-.64l.04-.11v-1.42s.01-1.42.01-1.42h-2.06v1.83M8.97,11.04c0,.51.11.71.41.8.57.16.97-.55.53-.95-.14-.13-.2-.15-.61-.15h-.34v.29M10.51,11.1c0,.56.15.75.56.75.58,0,.77-.77.27-1.05l-.1-.05h-.37s-.37-.01-.37-.01v.36M18.59,12.82c-.06.02-.06.03-.06,1.08v.98s.05.1.05.1c.12.25.11.25,1.81.25,1.59,0,1.48,0,1.56-.15.05-.09.05-.09.1-.01.02.04.07.09.12.11l.08.05h.71c.78,0,.81,0,.97-.11.05-.03.07-.04.08-.02.07.21.62.2.77-.02l.06-.08.03.05c.1.18.24.2,1.14.19.86,0,.97-.03,1.11-.25.19-.28.16-1.02-.05-1.28-.16-.21-.58-.24-.81-.06-.24.18-.3.74-.1.93.16.16.56.18.72.03l.06-.06v.08c-.05.23-.15.26-1.11.25-.81,0-.76.03-.76-.54v-.36h-.34v.39c0,.38,0,.39-.04.43-.07.08-.34.11-.51.06l-.07-.02v-.08c.11-.56-.11-.96-.55-.98-.44-.02-.65.14-1.06.83-.23.38-.27.35-.28-.17v-.34h-.33v.34c0,.37,0,.4-.1.42-.09.02-2.69.03-2.79,0-.14-.03-.14.03-.14-1.08v-.98h-.12c-.07,0-.14,0-.16.02M28.63,12.82c-.06.02-.07.09-.07.93v.83l-.15.07c-.19.09-.19.09-.19-.1,0-.44-.24-1.12-.52-1.44,0,0-.06.04-.13.1l-.13.11.09.13c.27.42.39.8.37,1.21v.17s-.23.06-.23.06l-.23.06.05.16c.03.09.05.17.06.17.03.03.66-.17.88-.29.08-.04.15-.07.15-.07,0,0,.02.04.05.08.11.2.17.21,1.07.21s.87,0,1.04-.16c.19-.19.21-.29.21-1.42v-.85s-.15,0-.15,0c-.21,0-.2-.08-.2.99,0,1.05,0,1.02-.14,1.06-.1.03-1.31.03-1.42,0-.14-.03-.14.03-.14-1.08v-.98h-.12c-.07,0-.14,0-.15.01M5.7,12.87s-.05,1.93,0,2.08c.04.14.14.24.29.28.12.04,2.69.05,2.85.02.08-.02.18-.1.22-.18l.03-.05.06.07c.2.24.74.25.86.02l.04-.08.04.08c.11.23.58.24.72.02.04-.07.05-.07.09,0,.14.21.57.2.67-.02.04-.09.04-.09.09-.01.16.25.82.21,1.03-.06.15-.19.14-.17.15-1.25v-.96s-.14,0-.14,0c-.21,0-.19-.07-.2,1,0,1.12.02,1.05-.34,1.05-.31,0-.31-.01-.31-.52v-.36h-.34v.39c0,.49,0,.49-.2.49-.21,0-.23-.04-.23-.49v-.27h-.31v.29c0,.44-.01.47-.24.47-.24,0-.25-.01-.25-.44v-.32h-.33v.33c0,.44,0,.43-.3.42-.2,0-.21,0-.26-.06l-.05-.05v-.39s-.01-.39-.01-.39h-.34v.37c0,.4,0,.45-.09.49-.08.04-2.74.04-2.81,0-.08-.04-.08-.05-.09-1.06v-.97h-.14c-.1,0-.14,0-.16.03M13.24,12.86s-.04.06-.04,1.22v1.2s.14,0,.14,0c.21,0,.19.12.2-1.24v-1.19s-.13,0-.13,0c-.09,0-.14,0-.17.03M.43,12.91c-.07.05-.07.21-.01.28.07.08.23.08.29,0,.16-.18-.1-.44-.28-.29M.89,12.92c-.11.09-.07.28.06.32.17.05.29-.05.26-.22-.02-.14-.21-.2-.32-.1M26.32,12.97c-.12.06-.11.27,0,.34.18.1.36-.09.27-.27-.04-.08-.19-.11-.28-.06M26.75,12.99c-.08.07-.07.23,0,.29.07.06.23.05.28-.01.15-.19-.1-.44-.29-.28M24.55,13.42s-.05.06-.05.15c0,.24.33.28.38.04.03-.19-.18-.31-.33-.19M25.04,13.4c-.11.06-.12.27,0,.33.15.08.31,0,.31-.16s-.16-.24-.3-.17M.89,13.53s-.03.07-.03.11v.07l-.23.08c-.53.18-.69.41-.55.86.09.3.6.39.77.14l.05-.07v.06c.03.31.14.45.42.49.17.02,2.6.02,2.84,0,.42-.04.7-.18,1-.49.07-.07.15-.37.11-.4,0,0-.07-.02-.14-.04-.07-.02-.25-.09-.38-.16-.4-.19-.61-.21-.88-.08l-.1.05v.32l.09-.04c.14-.05.37-.06.51-.02.12.04.51.21.51.23,0,.06-.36.23-.56.27-.19.03-2.95.03-3.02,0-.09-.04-.1-.09-.1-.77v-.61h-.13c-.12,0-.14,0-.16.04M17.24,13.79c-.05.08-.09.16-.1.16,0,0,.07.06.17.11.38.23.45.31.45.54,0,.25-.04.27-.56.27h-.36s-.01.07-.01.07c0,.06-.01.12-.01.18v.11s.13.01.13.01c.84.09,1.21-.17,1.12-.78-.05-.32-.18-.47-.67-.78l-.08-.05-.09.15M26.83,13.94c.11.08.13.33.03.38-.1.05-.41.04-.47-.02-.07-.06-.06-.36.01-.36,0,0,.04-.01.08-.03.1-.04.29-.02.35.02M14.68,14.02c-.36.08-.55.53-.42.99.05.19.32.31.59.28.15-.02.18-.03.25-.09l.07-.06v.05s-.02.09-.03.14c-.03.25-.33.31-.84.19-.02,0-.03.03-.05.13-.01.07-.03.16-.03.18-.03.13.58.18.85.07.26-.11.38-.36.4-.82.04-.82-.23-1.17-.79-1.05M.86,14.23c0,.29-.03.31-.26.32-.2,0-.24-.03-.24-.2s.03-.21.33-.29c.2-.06.18-.08.18.17M23.71,14.19c.19.14.2.55.02.65-.07.04-1.01.06-1.01.02,0-.08.35-.56.45-.63.15-.1.43-.12.54-.05M15,14.41c.11.05.14.12.15.3v.15s-.05.02-.05.02c-.15.05-.45.05-.53-.02-.05-.04-.06-.28,0-.38.06-.11.28-.15.43-.08M8.84,15.57c-.05.03-.08.11-.07.19.03.2.34.17.34-.03,0-.15-.14-.23-.27-.16M9.25,15.57c-.16.09-.09.32.09.32.22,0,.25-.32.03-.34-.04,0-.1,0-.12.01M18.35,17.02c0,.36,0,.39-.03.38-.32-.14-.75-.05-.9.17-.18.27-.19.99-.02,1.28.15.26.72.34.93.13.07-.07.07-.07.07-.02,0,.08.06.12.19.12h.12v-1.18s0-1.18,0-1.18l-.04-.03s-.07-.03-.18-.03h-.13v.39M.04,17.82c0,.78,0,1.19.02,1.21.02.03.04.03.7.03h.69v-.34H.42v-.76h.73v-.15c-.02-.2,0-.2-.4-.2h-.32v-.61h.99v-.36H.04v1.17M19.95,16.83v.18h.67v.99c0,1.17-.02,1.07.22,1.07h.16v-2.06h.69v-.36h-1.73v.18M26.49,16.69c-.14.05-.14.29,0,.35.12.05.26,0,.29-.11.04-.19-.1-.3-.28-.24M2.15,17.37c-.41.13-.59.74-.4,1.34.11.35.54.48,1.05.32l.12-.04v-.13c-.03-.16-.03-.16-.18-.13-.17.04-.45.04-.54,0-.21-.09-.22-.92,0-1.04.08-.04.42-.04.54,0,.1.04.1.03.12-.15v-.15s-.06-.02-.06-.02c-.13-.04-.52-.04-.65,0M3.58,17.37c-.38.12-.56.76-.37,1.33.16.5,1.03.55,1.27.07.18-.36.14-1.05-.09-1.28-.15-.15-.55-.21-.82-.13M5.52,17.36c-.1.04-.19.1-.23.15-.04.06-.06.05-.06-.03,0-.1-.03-.13-.17-.13h-.12v.82c0,.97-.02.89.2.89h.16v-.61c0-.78,0-.8.35-.8.32,0,.33,0,.34.76.01.7,0,.65.21.65h.15v-.6c0-.83-.03-.95-.26-1.07-.13-.06-.45-.09-.57-.04M7.17,17.36c-.32.09-.47.36-.47.86,0,.57.17.82.58.86.59.07.87-.21.87-.88,0-.48-.12-.73-.38-.83-.11-.04-.48-.05-.6-.02M9.06,17.36c-.1.03-.19.1-.23.15l-.03.05v-.08c-.03-.1-.06-.13-.2-.13h-.11v.82c0,.97-.02.9.21.9h.15v-.62c.01-.78.02-.8.37-.78.28,0,.29.03.29.76,0,.67-.01.63.2.64h.16s0-.6,0-.6c0-.77.01-.78.31-.8.33-.02.34,0,.35.76,0,.69,0,.64.2.64h.16v-.54c0-.79-.03-.98-.19-1.1-.2-.16-.67-.14-.84.03l-.08.08-.08-.08c-.12-.12-.45-.18-.65-.11M14.13,17.36c-.22.04-.21.03-.21.21,0,.14,0,.16.03.15.07-.03.35-.06.47-.06.24,0,.33.08.33.3v.11h-.23c-.53-.02-.73.13-.73.52,0,.36.16.5.57.5.24,0,.35-.04.42-.14l.05-.07v.06c.02.1.05.12.19.12h.12v-.5c0-.89-.04-1.05-.28-1.17-.12-.06-.49-.08-.72-.03M16.13,17.35c-.09.03-.2.09-.24.15-.06.07-.07.07-.07-.02,0-.1-.03-.13-.18-.13h-.13v.83c.01.97,0,.89.21.89h.15v-.6c.02-.79.03-.81.37-.81.32,0,.33,0,.34.77.01.69,0,.64.21.64h.15s0-.65,0-.65c0-.82-.03-.9-.26-1.02-.11-.05-.44-.08-.55-.04M22.09,17.36c-.32.09-.47.36-.47.86,0,.62.21.87.72.87s.7-.23.72-.84c.01-.54-.1-.78-.41-.88-.13-.04-.43-.05-.56,0M25.71,17.36s-.1.06-.15.1l-.08.08v-.07c-.02-.1-.06-.12-.2-.12h-.11v.84c.01.97-.01.87.21.87h.15s0-.61,0-.61c0-.8.01-.81.4-.8h.19s0-.15,0-.15c0-.1,0-.16-.01-.17-.03-.02-.34-.01-.41,0M27.49,17.36c-.26.07-.36.22-.36.51,0,.31.07.38.53.51.22.06.28.13.25.26-.04.16-.42.17-.76.02-.03-.01-.1.23-.08.28.03.07.28.14.53.14.47,0,.69-.17.69-.52,0-.29-.05-.35-.47-.49-.26-.08-.29-.11-.31-.2-.04-.2.18-.28.55-.2.06.01.12.02.12.02.02-.01.04-.29.02-.3-.06-.06-.52-.09-.7-.04M29.13,17.36c-.1.03-.19.1-.23.15l-.03.05v-.08c-.03-.1-.06-.13-.2-.13h-.11v.82c0,.97-.02.9.21.9h.15v-.62c.01-.78.02-.8.37-.78.28,0,.29.03.29.76,0,.67-.01.63.2.64h.16s0-.6,0-.6c0-.77.01-.78.31-.8.33-.02.34,0,.35.76,0,.69,0,.64.2.64h.16v-.53c0-.8-.03-.99-.19-1.11-.2-.16-.67-.14-.84.03l-.08.08-.08-.08c-.12-.12-.45-.18-.65-.11M11.09,17.37s.12.36.26.78c.27.83.28.86.34.89.06.03.06.02-.03.34-.09.33-.09.33.07.33.18,0,.19-.02.27-.34.03-.14.18-.65.33-1.13l.26-.87h-.17c-.09,0-.17,0-.18,0,0,0-.09.29-.19.64-.1.35-.19.64-.19.64,0,0-.06-.14-.12-.33-.06-.19-.15-.48-.2-.65l-.09-.3h-.19c-.1,0-.18,0-.18.01M23.4,17.92c0,.77.03.93.17,1.06.2.18.73.15.84-.05l.04-.07v.08c.03.12.05.13.19.13h.12v-1.72h-.36v.62c-.01.79-.02.8-.33.8s-.31.02-.32-.78v-.64h-.36v.56M26.42,18.19c0,.96-.02.88.2.88h.16v-.83c-.01-.97,0-.89-.21-.89h-.15v.84M4.06,17.69c.21.08.25.85.06,1.02-.08.07-.36.08-.47.01-.16-.09-.19-.84-.04-.98.09-.09.31-.12.45-.06M7.65,17.71c.19.14.18.93-.02,1.03-.15.08-.44.03-.51-.08-.11-.19-.08-.83.05-.94.08-.07.39-.08.48-.01M18.23,17.7c.11.07.17.74.08.94-.09.2-.53.18-.62-.02-.08-.18-.06-.75.03-.86.08-.1.39-.14.51-.06M22.57,17.71c.11.08.12.13.12.5,0,.46-.03.53-.27.56-.34.04-.43-.08-.43-.58,0-.35.03-.44.16-.5.11-.05.35-.04.42.01M14.75,18.33s.02.28-.02.34c-.07.12-.46.15-.54.04-.08-.09-.04-.33.06-.37.06-.03.46-.04.5,0"/>
    <path id="path4" class="cls-2" d="M0,5.17v5.17h2.16s2.16,0,2.16,0h-2.15s-2.15,0-2.15,0V.02h2.14s2.14,0,2.14,0h-2.15s-2.15,0-2.15,0v5.17M8.73.01h.57v4.07l-.06-.06c-.14-.13-.46-.29-.64-.32-.04,0-.02,0,.05.03.18.05.4.16.53.27.06.05.12.09.12.09s0-.92,0-2.05V0h-.58s-.58,0-.58,0h.57M11.36,2.05c0,1.13,0,2.05,0,2.05s.06-.04.12-.09c.13-.11.28-.19.45-.25.07-.02.11-.04.1-.04-.08,0-.42.16-.55.27-.05.04-.09.07-.09.07s-.01-.91-.01-2.02V.02h.57s.57-.01.57-.01h-.58s-.58,0-.58,0v2.05M15.12.01c.37,0,.96,0,1.33,0,.37,0,.07,0-.66,0s-1.03,0-.66,0M17.55,1.05v1.05h.09s.09,0,.09,0h-.09s-.09-.01-.09-.01V.02h.09s.09-.01.09-.01h-.1s-.1,0-.1,0v1.05M23.87.02h.28s-.07.1-.07.1c-.07.09-.23.37-.22.38,0,0,.04-.06.08-.14.04-.08.11-.19.16-.24.05-.05.08-.1.08-.1s-.13,0-.29,0h-.29s.28.01.28.01M25.34.01c.12,0,.31,0,.42,0,.12,0,.02,0-.21,0s-.33,0-.21,0M30.4.01h.57s0,4.72,0,4.72v4.72s0-4.73,0-4.73V0s-.58,0-.58,0h-.58s.57,0,.57,0M4.37.03s.05,0,.06,0c.02,0,0,0-.03,0s-.05,0-.03,0M8.01.04s-.01.01.04,0c.04,0,.08-.01.08-.02.02-.01-.08,0-.12.01M17.84.03s.06,0,.08,0c.02,0,0,0-.04,0s-.06,0-.04,0M23.46.03s.05,0,.06,0c.02,0,0,0-.03,0s-.05,0-.03,0M26.04.03s.05,0,.06,0c.02,0,0,0-.03,0s-.05,0-.03,0M4.52.05c.08.02.14.02.08,0-.03,0-.06-.01-.09-.01-.04,0-.04,0,0,.01M29.56.08c-.27.11-.53.37-.58.59,0,.02,0,0,.03-.03.12-.27.34-.46.62-.56.05-.02.08-.03.06-.03-.01,0-.07.02-.13.04M7.78.13c-.28.15-.54.53-.54.77,0,.03.01,0,.03-.07.07-.3.27-.57.55-.7.08-.04.14-.07.12-.07-.01,0-.09.03-.17.07M18.14.07c.08.02.14.02.08,0-.03,0-.06-.01-.09-.01-.04,0-.04,0,0,.01M26.29.07c.06.02.11.02.06,0-.02,0-.05-.01-.07-.01-.03,0-.03,0,0,.01M4.69.09s.05.02.06.02c.02,0,.01,0,0-.02-.02,0-.05-.02-.06-.02-.02,0-.01,0,0,.02M12.88.14c.23.13.38.29.47.52.02.06.04.09.04.08,0-.14-.29-.5-.5-.61-.15-.08-.17-.07-.02,0M24.75.13c-.19.1-.4.34-.45.49,0,.02.02-.01.05-.07.08-.15.27-.33.42-.41.07-.04.12-.07.11-.07,0,0-.07.03-.13.06M26.46.12c.08.03.11.03.05,0-.03-.01-.07-.02-.08-.02-.01,0,0,.01.04.02M22.98.15c-.12.06-.1.06.04,0,.06-.02.09-.04.08-.04-.01,0-.07.02-.12.04M4.88.15c.52.23.85.53,1.09.97.09.16.11.19.04.03-.18-.35-.48-.67-.82-.87-.11-.07-.31-.16-.34-.15,0,0,0,.01.03.02M18.58.19c.75.27,1.34.79,1.72,1.49.09.16.11.19.03.03-.3-.58-.81-1.09-1.39-1.38-.15-.08-.48-.2-.52-.2-.01,0,.05.03.15.06M26.78.25c.44.24.77.61.94,1.03.02.06.04.1.05.1.03-.03-.21-.46-.38-.66-.18-.21-.54-.48-.71-.53-.02,0,.02.02.1.06M22.72.28c-.36.21-.64.51-.82.87-.07.13-.16.38-.15.42,0,.01.02-.05.05-.13.17-.5.49-.89.97-1.17.07-.04.12-.07.11-.07s-.08.03-.15.08M23.79.69s0,.06,0,.07c0,0,.01-.02.02-.05.02-.08,0-.09-.02-.02M28.94.78s0,.06,0,.07c0,0,.01-.02.02-.05.02-.08,0-.09-.02-.02M13.41.87c0,.05.01.1.02.11.01.01,0-.12-.01-.16,0-.03-.01,0,0,.05M24.22.91s0,.05,0,.03c0-.02,0-.06,0-.07,0-.02,0,0,0,.04M28.92.94s0,.06,0,.04c0-.03,0-.05,0-.08,0-.02,0,0,0,.04M23.75,2.28v1.38h-.56s-.56.01-.56.01h.56s.56,0,.56,0v-1.39c0-.76,0-1.39,0-1.39s0,.62,0,1.38M7.23,2.33v1.35s.57,0,.57,0h.57s-.56,0-.56,0h-.56s0-1.35,0-1.35V.98s0,1.35,0,1.35M6.06,1.32s.02.06.03.07c.01.02.01.01,0-.02,0-.02-.02-.06-.03-.07-.01-.02-.01-.01,0,.02M27.79,1.47s0,.06.02.11c.01.05.03.07.03.05,0-.04-.05-.19-.05-.16M6.12,1.48s.01.08.03.17c.02.11.03.13.03.07,0-.08-.06-.27-.06-.24M27.87,1.85s0,.05,0,.03c0-.02,0-.06,0-.07,0-.02,0,0,0,.04M21.69,1.9c0,.05,0,.08,0,.05,0-.03,0-.07,0-.1,0-.03,0,0,0,.05M6.2,1.93c0,.06,0,.09,0,.06,0-.04,0-.08,0-.12,0-.03,0,0,0,.06M20.39,1.85s.01.04.03.06c.01.02.03.04.03.03s-.01-.04-.03-.06c-.01-.02-.03-.04-.03-.03M20.45,2c.04.11.1.28.1.26,0-.03-.09-.28-.1-.3,0,0,0,0,0,.03M27.89,3.12c0,.62,0,.87,0,.57,0-.3,0-.81,0-1.12,0-.31,0-.06,0,.55M2.08,5.17v3.1h.6s.6,0,.6,0h-.59s-.59-.01-.59-.01V2.1h.59s.59-.01.59-.01h-.6s-.6,0-.6,0v3.1M24.39,2.09c.1,0,.27,0,.37,0,.1,0,.02,0-.19,0s-.29,0-.19,0M3.43,2.14c.23.08.45.26.56.46.04.06.07.11.07.09,0-.15-.5-.59-.67-.58-.02,0,0,.01.04.02M17.92,2.16c.26.11.44.27.56.51.04.08.07.13.06.1-.07-.26-.49-.65-.69-.65-.02,0,.02.02.07.04M25.14,2.16c.32.13.54.37.63.69.03.09.03.09.02.04-.04-.3-.49-.77-.73-.77-.02,0,.02.02.07.04M16.98,2.26c-.17.12-.35.34-.39.5,0,.02.01,0,.04-.07.1-.2.23-.35.44-.48.02-.01.03-.02.02-.02,0,0-.06.03-.12.07M20.63,2.69s0,.05,0,.03c0-.02,0-.04,0-.06,0-.02,0,0,0,.03M4.08,2.76l.04.14.02.09v-.08s-.03-.1-.05-.14c-.02-.04-.02-.04-.01-.01M20.65,2.85c0,.05,0,.08,0,.05,0-.03,0-.07,0-.1,0-.03,0,0,0,.05M16.52,3.32v.34h-1.03s-1.03,0-1.03,0h1.04s1.04,0,1.04,0v-.35c0-.19,0-.35,0-.35s0,.15,0,.34M18.59,3.11c0,.07,0,.1,0,.07,0-.04,0-.1,0-.14,0-.04,0,0,0,.07M25.81,3.12c0,.08,0,.11,0,.07,0-.04,0-.11,0-.14,0-.04,0,0,0,.08M4.14,5.17c0,1.19,0,1.68,0,1.09,0-.59,0-1.57,0-2.17,0-.6,0-.11,0,1.08M18.54,3.36c-.02.06-.03.13-.04.15,0,.02,0,.02.01,0,.03-.05.07-.21.06-.23,0,0-.02.03-.03.09M20.65,3.36c0,.05,0,.08,0,.05,0-.03,0-.07,0-.1,0-.03,0,0,0,.05M25.74,3.46c-.07.21-.28.45-.5.56-.07.03-.11.06-.11.06.18.01.74-.61.64-.71,0,0-.02.04-.04.09M20.63,3.54s0,.05,0,.03c0-.02,0-.04,0-.06,0-.02,0,0,0,.03M18.41,3.66c-.13.21-.39.39-.64.44-.06.01-.1.03-.07.03.14,0,.43-.13.58-.28.09-.09.22-.27.21-.28,0,0-.04.04-.07.1M20.57,3.8c-.02.1-.04.19-.03.19.01.01.09-.33.08-.36,0-.01-.02.06-.05.16M12.59,3.68c.16,0,.41,0,.57,0s.03,0-.28,0-.44,0-.28,0M8.43,3.7s.06,0,.07,0c.02,0,0,0-.04,0-.04,0-.05,0-.03,0M12.18,3.7s.05,0,.06,0c.02,0,0,0-.03,0s-.05,0-.03,0M22.5,3.7s.05,0,.06,0,0,0-.03,0-.05,0-.03,0M22.04,3.84c-.14.07-.29.18-.34.23-.01.02.03,0,.09-.06.06-.05.18-.12.26-.17.08-.04.14-.08.13-.08s-.08.03-.15.07M20.5,4.08c-.03.09-.01.1.01.01.01-.04.02-.07.01-.07,0,0-.02.02-.03.06M7.23,6.24v2.11s0-2.1,0-2.1v-2.1s.61,0,.61,0h.6s-.61,0-.61,0h-.61s0,2.1,0,2.1M13.56,4.15c.74,0,1.96,0,2.71,0,.75,0,.14,0-1.35,0-1.49,0-2.1,0-1.36,0M23.13,4.15c.32,0,.84,0,1.16,0,.32,0,.06,0-.58,0s-.9,0-.58,0M12.03,4.2c-.27.11-.62.46-.62.64,0,.01.03-.03.06-.1.13-.26.33-.44.6-.53.08-.03.13-.05.11-.05-.02,0-.09.02-.15.04M22.44,4.17s0,.02.06,0c.04-.01.04-.01,0-.01-.02,0-.05,0-.07.01M8.63,4.21c.3.12.49.31.61.61.02.06.04.09.03.06-.05-.28-.49-.72-.71-.71-.02,0,.02.02.07.04M20.43,4.26c-.24.63-.79,1.24-1.44,1.59-.09.05-.16.09-.15.09.13,0,.79-.47,1.01-.73.28-.32.67-.97.62-1.03,0,0-.02.03-.04.08M22.19,4.28c-.21.12-.47.46-.47.6,0,.02.02-.02.04-.07.09-.23.26-.42.47-.53.06-.03.1-.06.09-.06-.01,0-.07.03-.13.07M27.87,4.37s0,.06,0,.04c0-.03,0-.05,0-.08,0-.02,0,0,0,.04M27.84,4.53s0,.08,0,.08c0,0,.01-.03.02-.07,0-.04,0-.08,0-.08,0,0-.01.03-.02.07M27.78,4.79c-.14.48-.55.95-1.04,1.2-.17.09-.19.11-.03.04.26-.12.6-.39.78-.64.14-.2.34-.6.32-.66,0-.01-.02.02-.03.06M11.39,4.92s0,.05,0,.08c0,.02,0,0,.02-.03.02-.07.01-.11,0-.04M21.69,5.05s0,.05,0,.03,0-.06,0-.07c0-.02,0,0,0,.04M11.36,6.65v1.61h-.6s-.6,0-.6,0h.61s.61,0,.61,0v-1.62c0-.89,0-1.62,0-1.62s0,.72,0,1.61M9.31,6.21c0,.64,0,.9,0,.58,0-.32,0-.84,0-1.16,0-.32,0-.06,0,.58M20.07,5.62c-.19.2-.56.47-.84.62-.07.04-.12.07-.12.07.04.04.66-.39.89-.61.14-.14.15-.14.18-.11.02.03.21.41.28.55l.02.05v-.05c-.04-.12-.29-.6-.32-.6,0,0-.05.03-.08.07M27.8,5.69c-.19.25-.51.51-.81.68-.1.05-.17.09-.16.09.15,0,.76-.47.98-.75l.08-.1v4.72h-.58s-.58.01-.58.01h.59s.59,0,.59,0v-2.37c0-1.35,0-2.37-.02-2.37s-.05.04-.09.1M18.78,5.95s-.09.04-.18.07-.16.06-.15.06c.03,0,.29-.1.34-.12.02-.01.02-.02.01-.02-.01,0-.02,0-.03,0M26.45,6.11s-.07.03-.04.02c.06-.01.18-.06.15-.06,0,0-.06.02-.11.03M18.29,6.11s-.07.02-.05.02c.02,0,.07-.01.11-.02.09-.03.04-.03-.06,0M17.91,6.19s.05,0,.07,0c.02,0,0,0-.04,0-.04,0-.05,0-.03,0M26.1,6.19s.05,0,.06,0,0,0-.03,0-.05,0-.03,0M14.53,6.21c.61,0,1.6,0,2.21,0,.61,0,.11,0-1.11,0s-1.71,0-1.11,0M22.78,6.21c.6,0,1.59,0,2.19,0,.6,0,.11,0-1.1,0s-1.7,0-1.1,0M19.01,6.35s-.15.06-.27.11c-.12.04-.21.08-.2.08.03,0,.39-.13.48-.17.05-.02.07-.04.06-.04,0,0-.04.01-.07.03M20.53,6.37s0,.06.02.11c.01.05.03.07.03.05,0-.04-.05-.19-.05-.16M26.59,6.54s-.07.03-.04.02c.06-.01.18-.06.15-.06,0,0-.06.02-.11.03M18.4,6.56l-.06.02.04.06c.07.11.15.27.17.37.02.1.03.1.02.02-.01-.09-.12-.35-.16-.38-.04-.03-.03-.06.04-.08.04-.01.06-.02.04-.02-.01,0-.05,0-.09.02M20.59,6.6s0,.06.01.09c.01.05.01.05.01,0,0-.02,0-.07-.01-.09-.01-.04-.01-.04-.01,0M26.4,6.59s-.04.01,0,.01c.02,0,.05,0,.07-.01.05-.02,0-.02-.06,0M17,6.99v.35s0-.34,0-.34v-.34s.34,0,.34,0h.34s-.35,0-.35,0h-.35s0,.34,0,.34M26.04,6.66s.06,0,.08,0c.02,0,0,0-.04,0s-.06,0-.04,0M15.49,6.68h1.03s0,.35,0,.35v.35s0-.36,0-.36v-.36s-1.04,0-1.04,0h-1.04s1.03,0,1.03,0M17.77,6.7c.16.06.28.19.33.35.01.04.02.06.02.04,0-.15-.27-.42-.41-.42-.01,0,.01.02.06.03M22.71,6.68h1.03s0,1.39,0,1.39v1.39s0-1.39,0-1.39v-1.39s-1.04,0-1.04,0h-1.04s1.03,0,1.03,0M25.81,8.04v1.38s0-1.37,0-1.37v-1.37s.06,0,.06,0q.06,0,0-.01h-.07s0,1.37,0,1.37M20.63,6.81s0,.05,0,.03c0-.02,0-.04,0-.06,0-.02,0,0,0,.03M20.65,6.99c0,.05,0,.08,0,.05,0-.03,0-.07,0-.1,0-.03,0,0,0,.05M18.59,7.24c0,.07,0,.1,0,.07,0-.04,0-.1,0-.14s0,0,0,.07M18.14,7.22c0,.05,0,.08,0,.05,0-.03,0-.07,0-.1,0-.03,0,0,0,.05M17.01,7.36c0,.11.22.38.31.38.01,0-.02-.03-.07-.06-.1-.07-.16-.15-.21-.26-.02-.05-.03-.07-.03-.06M4.1,7.49c-.02.07-.03.12-.02.13.01.01.06-.2.06-.22,0-.01-.02.03-.04.09M9.32,7.41s.03.18.04.17c0,0,0-.05-.02-.11-.01-.05-.02-.08-.03-.06M16.54,7.42s0,.06.02.08c.01.03.01.01,0-.04-.01-.08-.02-.11-.02-.04M18.07,7.47c-.04.09-.16.2-.25.25-.04.02-.06.04-.05.04.04,0,.21-.11.25-.17.05-.07.11-.18.1-.19,0,0-.02.02-.04.06M20.65,7.49c0,.05,0,.08,0,.05,0-.03,0-.07,0-.1,0-.03,0,0,0,.05M18.49,7.65c-.08.19-.21.33-.45.49-.02.01,0,0,.05-.02.17-.09.5-.51.45-.56,0,0-.03.04-.05.09M9.37,7.61c0,.2.52.65.75.64.02,0-.03-.02-.1-.05-.26-.09-.46-.26-.59-.5-.03-.06-.06-.1-.06-.1M16.6,7.61c0,.18.46.6.72.64.04,0,.03,0-.04-.02-.27-.09-.5-.27-.62-.5-.04-.07-.07-.12-.07-.11M20.63,7.66s0,.05,0,.03c0-.02,0-.04,0-.06,0-.02,0,0,0,.03M3.99,7.75c-.11.19-.34.38-.56.46-.04.01-.05.02-.03.02.07,0,.32-.15.44-.26.1-.1.25-.31.23-.33,0,0-.04.04-.07.1M17.37,7.76s.04.02.06.02c.05,0,.03,0-.03-.02-.04,0-.05,0-.03,0M17.52,7.8s.07,0,.1,0c.03,0,0,0-.05,0s-.08,0-.05,0M20.49,8.22c-.03.08-.05.15-.04.15,0,0,.03-.06.06-.14s.05-.15.04-.15c0,0-.03.06-.06.14M17.86,8.21c-.07.03-.09.04-.06.03.06,0,.23-.08.19-.08,0,0-.07.02-.14.04M17.48,8.27c.05,0,.13,0,.18,0,.05,0,0,0-.1,0s-.14,0-.09,0M6.2,8.42c0,.06,0,.09,0,.06,0-.04,0-.08,0-.12,0-.03,0,0,0,.06M13.42,8.45c0,.05,0,.08,0,.05,0-.03,0-.07,0-.1,0-.03,0,0,0,.05M20.37,8.53c-.27.61-.8,1.15-1.44,1.47-.14.07-.24.13-.23.13.22,0,1-.58,1.3-.97.18-.23.47-.73.44-.76,0,0-.03.05-.07.13M7.25,8.49s0,.06,0,.04c0-.03,0-.05,0-.08,0-.02,0,0,0,.04M6.18,8.6s0,.05,0,.03c0-.02,0-.04,0-.06,0-.02,0,0,0,.03M6.14,8.76c-.01.05-.02.1-.01.1s.02-.03.03-.08.02-.1.01-.1c0,0-.02.03-.03.08M7.28,8.71s.05.19.05.16c0,0,0-.06-.02-.11-.01-.05-.03-.07-.03-.05M13.34,8.87c-.14.5-.56.99-1.08,1.25-.08.04-.14.08-.13.08.1,0,.51-.27.7-.46.26-.25.59-.85.55-.97,0-.01-.02.03-.04.1M7.35,8.96s.06.16.06.15c0,0,0-.04-.03-.09-.02-.04-.04-.07-.04-.07M5.99,9.19c-.21.43-.62.81-1.07.99-.1.04-.18.08-.17.08.17,0,.74-.36.95-.61.15-.17.37-.54.35-.56,0,0-.03.04-.06.1M7.43,9.16c.13.4.81.99,1.25,1.08.03,0-.01-.02-.1-.05-.47-.18-.82-.48-1.08-.93-.04-.08-.08-.12-.07-.1M14.47,9.44s0,.05,0,.03c0-.02,0-.04,0-.06,0-.02,0,0,0,.03M25.82,9.48c0,.23.41.78.6.78.01,0-.03-.03-.1-.07-.23-.13-.42-.39-.48-.65-.01-.06-.03-.09-.03-.07M30.95,9.49s0,.06-.01.08v.05s.01-.04.01-.04c.01-.02.02-.06.01-.08,0-.04,0-.04-.01,0M14.49,9.57c.04.27.47.72.68.72.01,0-.05-.03-.13-.08-.25-.12-.42-.32-.52-.59-.03-.07-.04-.09-.03-.05M23.69,9.65c-.08.26-.33.51-.61.62-.06.02-.09.04-.06.03.2-.04.51-.28.62-.49.06-.11.11-.24.09-.25,0,0-.02.04-.04.09M30.85,9.79c-.11.2-.32.38-.55.48-.06.02-.09.04-.06.03.12-.02.32-.14.44-.26.1-.1.25-.33.23-.35,0,0-.03.04-.06.11M18.53,10.18c-.06.02-.11.04-.1.04.02,0,.24-.07.24-.08,0-.01-.02,0-.14.04M12.01,10.23s-.05.02-.04.02c.01,0,.05-.01.08-.02.07-.03.04-.03-.05,0M18.31,10.24s-.04.01,0,.01c.02,0,.05,0,.07-.01.05-.02,0-.02-.06,0M8.77,10.28s.05.02.07.02c.03,0,.03,0,0-.02-.06-.02-.11-.02-.06,0M11.85,10.28s-.04.01,0,.02c.02,0,.05,0,.07-.02.05-.02,0-.02-.06,0M18.14,10.28s-.05.01,0,.01c.02,0,.07,0,.09-.01.06-.02,0-.02-.08,0M26.5,10.28s.09.03.14.04h.08s-.09-.01-.09-.01l-.14-.04s-.03,0,.01.01M15.23,10.31s.13.03.12.01c0,0-.04-.01-.08-.02-.05,0-.06,0-.04,0M4.37,10.32s.05,0,.06,0c.02,0,0,0-.03,0s-.05,0-.03,0M9.01,10.32s.06,0,.07,0c.02,0,0,0-.04,0-.04,0-.05,0-.03,0M11.6,10.32s.05,0,.06,0c.02,0,0,0-.03,0s-.05,0-.03,0M17.86,10.32s.05,0,.07,0c.02,0,0,0-.04,0-.04,0-.05,0-.03,0M9.74,10.34c.34,0,.88,0,1.21,0s.05,0-.61,0-.94,0-.6,0M15.98,10.34c.33,0,.87,0,1.2,0,.33,0,.06,0-.6,0s-.93,0-.6,0M21.97,10.34c.16,0,.43,0,.59,0,.16,0,.03,0-.29,0s-.45,0-.29,0M29.2,10.34c.16,0,.43,0,.59,0,.16,0,.03,0-.29,0s-.45,0-.29,0M9.14,10.74c.1,0,.26,0,.35,0s.02,0-.18,0-.27,0-.18,0M10.5,11.07v.35s0-.34,0-.34v-.34s.37,0,.37,0c.2,0,.36,0,.34,0-.02,0-.19-.01-.38-.01h-.35s0,.35,0,.35M9.75,10.77c.11.04.26.18.31.29.02.05.04.08.04.07,0-.12-.22-.34-.37-.37-.04,0-.03,0,.02.02M11.35,10.82c.11.06.2.17.24.3.02.05.03.08.03.06,0-.13-.24-.41-.35-.41-.01,0,.02.02.07.05M11.63,11.3c0,.05,0,.08,0,.05,0-.03,0-.07,0-.1,0-.03,0,0,0,.05M8.98,11.42c.02.2.27.45.43.45.02,0,0-.01-.06-.03-.18-.06-.31-.2-.36-.39-.02-.08-.03-.08-.02-.03M10.51,11.44c0,.12.2.35.34.39.03,0,.02,0-.02-.02-.15-.08-.24-.18-.3-.33-.01-.04-.02-.06-.03-.04M10.06,11.52c-.05.13-.18.25-.33.31-.05.02-.08.03-.06.03.14,0,.49-.32.42-.39,0,0-.02.02-.03.05M11.57,11.56c-.04.09-.16.2-.25.25-.04.02-.06.04-.05.04.04,0,.21-.11.25-.17.05-.07.11-.18.1-.19,0,0-.02.02-.04.06M9.5,11.88s.07,0,.09,0c.02,0,0,0-.05,0-.05,0-.07,0-.04,0M11.02,11.88s.07,0,.09,0c.02,0,0,0-.05,0-.05,0-.07,0-.04,0M18.54,12.84s-.03.16-.02,1.02v.98s.01-.99.01-.99c0-.55.01-1,.01-1,0,0,.02-.01.04-.02.03-.01.03-.02.01-.02-.02,0-.04.02-.06.04M28.58,12.83s-.03.19-.03.88v.85s-.15.07-.15.07c-.08.04-.15.07-.15.07s-.01-.07-.01-.16v-.16s0,.15,0,.15c0,.2,0,.2.18.11l.16-.07v-.83c0-.84,0-.91.07-.93.03,0,.03,0,0-.01-.02,0-.04.01-.05.03M30.62,12.84s-.03.15-.02.96v.92s.01-.94.01-.94c0-.52.01-.94.01-.94s.02-.01.04-.02c.03-.01.03-.02.01-.02-.02,0-.04.02-.06.04M5.7,12.84s-.03.03-.03.04.01,0,.03,0c.02-.02.07-.03.16-.03h.13v.93s0,.93,0,.93v-.94s0-.94,0-.94h-.14c-.08,0-.15,0-.17.02M12.7,12.83h.14s0,.9,0,.9v.9s0-.91,0-.91v-.91s-.14,0-.14,0h-.15s.14,0,.14,0M13.24,12.85s-.04.04-.04.06c0,.02,0,.03.01,0,.02-.06.07-.07.2-.07h.13v1.17s0,1.17,0,1.17v-1.18s0-1.18,0-1.18h-.14c-.1,0-.15,0-.18.03M12.51,12.87s-.03.21-.03.98v.95s-.06.05-.06.05c-.03.03-.04.04-.02.03.02,0,.04-.01.04-.01.06,0,.06-.11.06-1.01,0-.75,0-.92.03-.96.03-.06.03-.06-.01-.02M.42,12.9s-.05.06-.05.14v.1s0-.1,0-.1c.04-.24.38-.23.38.01,0,.09-.03.16-.1.19-.02,0-.03.02-.01.02.12,0,.17-.24.07-.34-.07-.07-.22-.08-.3-.01M.9,12.89s-.08.09-.06.11c0,0,.01,0,.01-.02,0-.14.36-.13.36.01,0,.02,0,.03.01.01.04-.11-.19-.19-.32-.12M5.66,13.89c0,.54,0,.76,0,.49,0-.27,0-.71,0-.98,0-.27,0-.05,0,.49M26.32,12.95s-.09.07-.07.09c0,0,.01,0,.01,0,0-.06.19-.1.28-.06.1.05.12.22.03.31-.03.03-.04.05-.03.04.02,0,.03-.01.04-.01.02,0,.06-.11.06-.17,0-.16-.15-.26-.32-.19M26.85,12.94s.06,0,.08,0c.02,0,0,0-.04,0s-.06,0-.04,0M26.73,12.99c-.09.09-.05.34.06.34,0,0,0-.02-.03-.04-.04-.04-.05-.06-.05-.15s0-.11.05-.15c.03-.02.04-.04.03-.04s-.03.02-.06.04M27.02,12.99c.11.11.05.31-.12.34l-.1.02h.1c.13-.01.18-.07.18-.2,0-.09-.05-.19-.09-.19,0,0,0,.02.03.04M13.19,14.12c0,.64,0,.9,0,.58,0-.32,0-.84,0-1.16s0-.06,0,.58M26.23,13.14s0,.07,0,.04c0-.03,0-.07,0-.09,0-.02,0,0,0,.05M27.57,13.2c-.07.06-.12.12-.12.12s.04.07.08.14c.05.07.09.14.13.22.03.05.05.09.06.09,0,0-.12-.24-.2-.36l-.06-.09.13-.11c.07-.06.13-.11.13-.1.06.07.26.43.39.7l.02.05v-.05c-.04-.12-.38-.72-.41-.72,0,0-.07.05-.14.11M.83,13.13s.08.12.12.12c.02,0,.01,0-.02-.02-.03-.01-.06-.04-.08-.08-.02-.04-.02-.04-.03-.02M1.2,13.16s-.03.06-.07.07c-.04.02-.05.03-.03.03.04,0,.12-.08.12-.12,0-.04-.01-.03-.03.02M.38,13.16s.09.1.11.09c.02,0,.01,0,0-.01-.02,0-.05-.02-.07-.05-.02-.03-.04-.04-.04-.03M26.24,13.25s.11.09.19.09c.06,0,.06,0,.02,0-.1-.01-.13-.02-.17-.06-.02-.02-.04-.03-.04-.02M24.7,13.38c.12.02.13.03.16.1.01.03.02.04.03.03,0-.07-.08-.13-.18-.13h-.1s.09,0,.09,0M25.02,13.39c-.1.05-.12.23-.05.32.09.1.36.07.36-.04,0,0-.02,0-.05.04-.13.13-.33.05-.33-.15,0-.13.04-.16.21-.18.04,0,.04,0-.02,0-.04,0-.09.01-.12.02M25.25,13.4s.04.04.06.06c.02.02.03.03.03.02,0-.03-.07-.09-.09-.09-.01,0,0,0,0,.02M1.06,13.48h.13s0,.63,0,.63v.63s0-.64,0-.64v-.64s-.14,0-.14,0h-.14s.13,0,.13,0M25.34,13.57s0,.05,0,.03c0-.02,0-.06,0-.07,0-.02,0,0,0,.04M26.59,13.52s.1,0,.14,0c.04,0,0,0-.07,0s-.1,0-.07,0M26.38,13.55c-.12.05-.29.23-.29.3,0,.01.02-.02.05-.07.06-.11.15-.18.28-.22.05-.02.08-.03.06-.03-.02,0-.06.01-.1.03M26.99,13.61c.08.06.14.14.19.27.02.05.03.07.03.06,0-.1-.2-.38-.28-.38,0,0,.02.02.05.05M.85,13.64s0,.05,0,.03c0-.02,0-.05,0-.07,0-.02,0,0,0,.04M17.22,13.79l-.1.17.04.03s.12.07.21.13c.25.16.35.25.38.38.01.05.01.05.01.01,0-.12-.13-.25-.45-.44l-.17-.1.09-.15c.05-.08.1-.15.1-.16.02-.02.42.25.53.36.12.12.17.21.21.37.02.11.03.11.02.02-.02-.18-.14-.36-.35-.52-.09-.07-.39-.26-.4-.26,0,0-.05.08-.11.17M24.49,13.64s.06.12.1.12c0,0,0-.02-.03-.04-.03-.02-.05-.05-.05-.08,0-.04,0-.04-.01,0M24.87,13.64s-.02.05-.05.08-.04.04-.02.04c.04-.01.09-.1.08-.13,0-.02-.01-.01-.01,0M.64,13.76s-.08.03-.06.03.07-.01.12-.03c.05-.02.08-.03.06-.03s-.07.02-.12.03M23.44,13.77s.1,0,.14,0c.04,0,0,0-.07,0s-.1,0-.07,0M24.64,13.77s.06,0,.08,0c.02,0,0,0-.04,0s-.06,0-.04,0M23.74,13.8c.17.05.31.18.35.32.01.04.03.07.03.06.04-.11-.27-.41-.42-.4-.02,0,0,.01.03.02M.41,13.84c-.14.06-.24.13-.29.21-.03.05-.02.05.05-.03.06-.06.12-.11.19-.14.19-.08.2-.08.18-.09,0,0-.07.02-.13.04M23.14,13.85c-.21.11-.34.27-.63.74-.09.14-.15.26-.15.27,0,0,.07-.11.15-.24.31-.52.45-.67.7-.78.04-.02.06-.03.05-.03-.01,0-.07.02-.12.05M27.72,13.8s.02.05.04.11c.03.05.04.08.03.05-.01-.05-.08-.18-.08-.16M26.59,13.9s.07,0,.09,0c.02,0,0,0-.05,0-.05,0-.07,0-.04,0M26.44,13.93c-.14.08-.12.44.03.4.03,0,.03,0,0-.01-.15,0-.13-.33.02-.39.03-.01.04-.02.03-.02-.01,0-.05.01-.07.02M26.78,13.92c.06.02.11.07.13.17.01.05.01.05,0-.01,0-.08-.09-.17-.16-.17-.03,0-.03,0,.02.02M28.14,13.94s0,.04.02.06c0,.02.02.03.02,0,0-.01,0-.04-.02-.06,0-.02-.02-.03-.02,0M25.09,14.33c0,.44.03.56.16.52.02,0,.02,0,0-.01-.11,0-.12-.06-.13-.49v-.39s-.01.37-.01.37M3.96,14.02c-.05.02-.1.04-.15.06l-.08.04v.17c0,.16,0,.17.03.16.02,0,.08-.03.13-.05.05-.02.09-.03.07-.03s-.07.01-.12.03l-.09.03v-.31l.09-.04s.13-.05.19-.07c.07-.01.09-.02.05-.02-.03,0-.09.01-.13.02M4.38,14.02c.06.01.13.04.15.05.02.01.04.02.05.01.02-.02-.14-.07-.23-.08-.07,0-.07,0,.03.02M8.97,14.38v.39l-.05.05s-.07.05-.12.06c-.06,0-.06,0-.02.01.18.03.21-.05.21-.51v-.37h.34v.37s.01.37.01.37v-.38s0-.38,0-.38h-.38v.39M11.67,14.01h.18s0,.38,0,.38v.37s0-.38,0-.38v-.38s-.18,0-.18,0h-.19s.18,0,.18,0M14.64,14.01s0,.01.05,0c.04,0,.08-.01.09-.02.02-.01-.1,0-.13.01M14.94,14s.04.01.09.02c.05,0,.07,0,.05,0-.03-.02-.15-.03-.13-.01M.79,14.03s-.03.02.01,0h.05s0,.18,0,.18v.19s0-.2,0-.2c0-.21,0-.22-.08-.18M14.48,14.08c-.11.07-.23.25-.23.35,0,.02.01,0,.02-.04.05-.15.15-.27.27-.34.03-.02.05-.03.04-.03-.01,0-.06.02-.1.05M15.2,14.09c.06.04.11.1.15.16.06.1.08.11.03.01-.04-.07-.13-.17-.19-.2-.08-.04-.08-.03.01.03M26.05,14.22c0,.13.01.21.03.23l.02.04v-.04s-.03-.13-.04-.23v-.2s-.01.2-.01.2M.66,14.07s-.03.02,0,.02c.01,0,.04,0,.06-.02.02,0,.03-.02,0-.02-.01,0-.04,0-.06.02M27.83,14.09s0,.04.02.06c0,.02.02.03.02,0,0-.01,0-.04-.02-.06,0-.02-.02-.03-.02,0M4.75,14.17c.08.04.16.08.17.08s-.05-.04-.14-.08c-.08-.04-.16-.08-.17-.08s.05.04.14.08M21.89,14.43c0,.37,0,.38-.07.41-.03.01-.04.02-.01.02.09,0,.1-.05.1-.41v-.34h.32v.34c.01.35.03.42.1.42,0,0,0-.02-.03-.03-.04-.03-.04-.04-.05-.39v-.35h-.36v.35M27.24,14.15s0,.05,0,.03c0-.02,0-.05,0-.07,0-.02,0,0,0,.04M.41,14.17s-.05.07-.05.1c0,.05,0,.05.02-.03,0-.03.04-.06.07-.09.03-.02.05-.04.03-.04s-.05.02-.08.05M9.93,14.46c0,.38,0,.4-.12.42q-.07.01-.01.02c.13,0,.15-.04.15-.42v-.33h.33v.32c0,.39.03.47.17.44.02,0,0,0-.02-.01-.12,0-.13-.05-.13-.43v-.33h-.36v.34M10.75,14.44v.32s0-.31,0-.31v-.31h.31v.28s.01.28.01.28v-.29s0-.29,0-.29h-.34v.32M23.44,14.15s.07,0,.1,0c.03,0,0,0-.05,0s-.08,0-.05,0M23.65,14.18c.08.02.14.09.16.19.01.05.02.07.02.05,0-.11-.12-.26-.2-.26-.03,0-.03,0,.02.02M23.18,14.23c-.11.07-.47.55-.47.63,0,.01.15.02.44.01h.44s-.43,0-.43,0c-.24,0-.43,0-.43-.01s.03-.06.07-.13c.19-.3.3-.44.43-.51.04-.02.06-.04.05-.04-.01,0-.06.02-.1.05M.04,14.39c0,.09,0,.13,0,.09,0-.05,0-.12,0-.17s0,0,0,.09M28.21,14.29s0,.05,0,.03c0-.02,0-.05,0-.07,0-.02,0,0,0,.04M4.95,14.25s.07.03.16.06c.09.03.16.06.17.07,0,.01.01,0,.01,0,0-.02-.04-.04-.14-.07-.08-.02-.15-.04-.17-.05-.02,0-.03,0-.03,0M26.9,14.28s-.05.03-.09.04l-.07.02h.07c.05-.01.16-.07.12-.07,0,0-.02,0-.03.02M27.26,14.43c0,.09,0,.13,0,.09,0-.05,0-.12,0-.17s0,0,0,.09M24.15,14.35s0,.05,0,.03c0-.02,0-.05,0-.07,0-.02,0,0,0,.04M.36,14.4c0,.05,0,.08.04.11.09.09.44.03.44-.07,0,0-.02,0-.04.03-.04.05-.06.05-.19.06-.18,0-.21-.01-.23-.13v-.08s-.02.07-.02.07M26.57,14.35s.07,0,.1,0c.03,0,0,0-.05,0s-.08,0-.05,0M4.04,14.37s.05,0,.07,0,0,0-.04,0c-.04,0-.05,0-.03,0M4.21,14.37s.05,0,.06,0c.02,0,0,0-.03,0s-.05,0-.03,0M15.41,14.37s0,.04.02.06c0,.02.02.03.02,0,0-.01,0-.04-.02-.06,0-.02-.02-.03-.02,0M14.65,14.4c-.05.02-.11.11-.11.16,0,.01.01,0,.02-.03.04-.1.09-.12.24-.14h.14s-.12-.01-.12-.01c-.06,0-.14,0-.17.02M4.42,14.41s.13.06.23.1c.1.04.19.09.19.09.02.01-.19.15-.3.2-.05.02-.08.04-.07.04.06,0,.4-.19.4-.23,0-.01-.38-.19-.45-.21h-.05s.05,0,.05,0M15.01,14.43s.08.07.09.1.03.05.03.04c0-.04-.06-.12-.11-.15-.07-.04-.09-.04-.02.01M27.9,14.61v.21s-.06.02-.06.02q-.06.02,0,.01c.08-.01.08-.02.08-.24v-.21s0,.21,0,.21M5.26,14.5s0,.06,0,.04c0-.03,0-.05,0-.08,0-.02,0,0,0,.04M23.84,14.56s0,.07,0,.04c0-.03,0-.07,0-.09,0-.02,0,0,0,.05M24.17,14.54s0,.05,0,.03c0-.02,0-.04,0-.06,0-.02,0,0,0,.03M26.11,14.53c.04.08.19.17.27.17.02,0,0-.01-.05-.03-.05-.02-.11-.05-.16-.1-.04-.04-.06-.06-.06-.04M26.88,14.61s-.08.06-.11.07c-.03,0-.05.02-.03.02.03.01.15-.05.16-.08,0-.02.01-.02.03,0,.01.02.02.01.02-.02,0-.05,0-.05-.06.01M30.94,14.64s0,.07,0,.04c0-.03,0-.07,0-.09,0-.02,0,0,0,.05M.06,14.6c0,.11.15.28.26.3.05,0,.05,0,0-.01-.09-.03-.19-.14-.22-.24-.01-.05-.03-.07-.03-.05M18.1,14.63s0,.05,0,.03c0-.02,0-.04,0-.06,0-.02,0,0,0,.03M15.46,14.66s0,.06,0,.04c0-.03,0-.05,0-.08,0-.02,0,0,0,.04M5.24,14.65c0,.1-.38.4-.61.51-.07.03-.11.05-.1.05.16,0,.74-.45.72-.56,0-.04,0-.04-.01,0M14.52,14.69s0,.07,0,.04c0-.03,0-.07,0-.09,0-.02,0,0,0,.05M15.14,14.66s0,.05,0,.03c0-.02,0-.04,0-.06,0-.02,0,0,0,.03M28.91,14.69c0,.1.05.18.13.17.03,0,.03,0-.02-.02-.07-.02-.08-.04-.1-.15v-.09s-.01.09-.01.09M14.22,14.72c0,.05,0,.08,0,.05,0-.03,0-.07,0-.1,0-.03,0,0,0,.05M27.23,14.68c-.01.22-.16.42-.36.5-.06.02-.06.02-.01.02.19-.04.42-.34.38-.52,0-.04,0-.04-.01,0M23.82,14.68s-.09.14-.15.16c-.03,0-.04.02-.02.02.08,0,.21-.12.19-.18,0-.01,0,0-.01,0M24.15,14.72s0,.05,0,.03c0-.02,0-.04,0-.06,0-.02,0,0,0,.03M24.72,14.7c0,.06-.03.11-.1.14-.04.02-.05.03-.02.03.05,0,.14-.1.14-.15,0-.03,0-.05,0-.05s0,.02,0,.04M26.91,14.69s-.06.11-.13.13c-.06.02-.06.02,0,.01.08-.01.21-.17.14-.17,0,0,0,.01,0,.03M17.74,14.73s-.03.06-.06.08c-.03.01-.04.03-.03.03.04,0,.11-.08.11-.12,0-.05-.01-.05-.02.02M18.87,14.73s.07.13.12.13c.02,0,0-.01-.03-.03-.04-.02-.06-.04-.08-.09-.01-.05-.02-.05-.02-.02M26.49,14.71s.11,0,.15,0c.04,0,0,0-.08,0s-.12,0-.08,0M.85,14.78c-.06.1-.12.13-.31.14h-.17s.15.01.15.01c.17,0,.28-.04.33-.12l.03-.05v.05s.02.04.02-.02c0-.09,0-.09-.05-.01M11.49,14.75c0,.06-.05.12-.1.13-.04,0-.04,0,0,0,.06,0,.12-.08.11-.14v-.04s-.01.05-.01.05M11.09,14.77s.02.06.04.09.06.04.09.04c.03,0,.03,0-.02-.02-.05-.02-.07-.04-.08-.08-.02-.05-.02-.05-.02-.02M18.08,14.77s0,.06-.01.09v.05s.01-.04.01-.04c.01-.02.02-.07.01-.09v-.05s-.01.05-.01.05M30.57,14.75s-.02.04-.04.06c-.02.02-.03.04-.02.04.03,0,.09-.09.07-.1,0,0-.01,0-.01,0M1.21,14.78s.06.1.09.1c.01,0,0-.01-.02-.03s-.05-.05-.06-.07c-.01-.03-.02-.03-.02,0M6.01,14.78c0,.07.11.13.2.12.03,0,.02,0-.02-.01-.07,0-.14-.04-.16-.1-.01-.03-.02-.03-.02,0M9.35,14.79s.09.1.1.09c0,0-.02-.03-.05-.06-.03-.03-.05-.04-.05-.03M10.72,14.82s-.03.05-.07.06c-.05.01-.05.02-.02.02.05,0,.11-.06.11-.1s-.01-.03-.03.02M11.87,14.78s.06.1.13.1c.04,0,.06,0,.04,0-.08-.02-.13-.05-.15-.08-.01-.02-.02-.03-.02-.02M12.78,14.88c-.05.13-.14.24-.26.3-.05.03-.1.06-.09.06.06.06.42-.33.39-.43,0,0-.02.02-.04.07M14.54,14.81s.06.09.11.09c.02,0,0,0-.02-.02-.03,0-.06-.04-.07-.06-.01-.03-.02-.03-.02,0M24.13,14.81s.06.06.09.04c0,0,0-.01-.02-.01s-.04-.01-.05-.03c-.02-.03-.02-.03-.02,0M15.48,14.97c0,.08,0,.12,0,.08,0-.05,0-.1,0-.15,0-.04,0,0,0,.08M16.83,14.89s0,.04.01.01c0-.03.02-.04.08-.05h.08s-.09,0-.09,0c-.08,0-.09,0-.08.05M18.53,14.87c0,.12.17.32.3.34.05,0,.04,0-.01-.02-.15-.06-.21-.12-.26-.29-.01-.04-.02-.06-.02-.03M26.62,14.86s.05,0,.06,0,0,0-.03,0-.05,0-.03,0M4.28,14.87s.05,0,.06,0c.02,0,0,0-.03,0s-.05,0-.03,0M14.23,14.91s0,.07.02.09c.01.02.01,0,0-.05-.01-.1-.02-.12-.02-.04M17.19,14.88c.06,0,.16,0,.22,0,.06,0,0,0-.11,0-.12,0-.17,0-.1,0M19.72,14.88c.37,0,.99,0,1.36,0s.07,0-.68,0-1.06,0-.68,0M24.31,14.88s.12,0,.16,0c.04,0,0,0-.09,0-.09,0-.12,0-.08,0M25.59,14.88c.18,0,.46,0,.64,0,.18,0,.03,0-.32,0s-.5,0-.32,0M27.59,14.9c-.08.02-.14.04-.13.04,0,0,.3-.06.32-.08.01-.01-.04,0-.18.03M29.41,14.88c.18,0,.48,0,.66,0s.03,0-.33,0-.51,0-.33,0M30.88,14.87c0,.09-.19.27-.36.33-.06.02-.1.04-.09.04.15,0,.53-.3.46-.37,0,0-.01,0-.01,0M1.37,14.89s.06,0,.07,0c.02,0,0,0-.04,0-.04,0-.05,0-.03,0M3.99,14.89c.05,0,.13,0,.18,0,.05,0,0,0-.1,0-.1,0-.14,0-.09,0M5.68,14.93c.03.15.17.29.32.32.04,0,.04,0-.04-.02-.12-.04-.21-.13-.26-.26-.03-.07-.03-.08-.02-.04M9.5,14.89s.05,0,.06,0c.02,0,0,0-.03,0s-.05,0-.03,0M12.26,14.89s.05,0,.07,0c.02,0,0,0-.04,0-.04,0-.05,0-.03,0M14.75,14.91s.11,0,.15,0,0,0-.08,0-.12,0-.08,0M18.02,14.97c-.04.09-.17.19-.3.23-.06.02-.1.04-.08.04.14,0,.47-.25.41-.32,0,0-.02.02-.03.05M28.51,14.97s-.12.06-.18.09c-.06.03-.1.05-.07.04.02,0,.11-.04.18-.08l.14-.07.04.07c.05.08.16.17.24.18.05,0,.05,0-.01-.02-.1-.04-.17-.1-.22-.18-.05-.09-.04-.09-.12-.04M16.82,15.04s0,.06,0,.04c0-.03,0-.05,0-.08,0-.02,0,0,0,.04M27.45,14.99s.01.06.02.09c.01.03.02.05.02.04s-.01-.06-.02-.09c-.01-.03-.02-.05-.02-.04M24.79,15.07s-.08.09-.11.11c-.03.02-.05.04-.04.04.03,0,.13-.09.17-.15.03-.05.03-.05.05-.01.02.04.16.15.19.15.01,0-.01-.02-.06-.05-.04-.03-.1-.07-.12-.11l-.04-.06-.05.08M21.96,15.08s-.06.09-.09.11c-.03.02-.04.03-.03.03.04,0,.11-.07.13-.13.03-.07.04-.07.08,0,.04.06.16.14.22.14.02,0,0-.01-.03-.02-.1-.04-.16-.08-.19-.15-.04-.08-.04-.08-.09.02M.94,15.04c0,.05.18.2.23.2,0,0-.02-.02-.05-.04s-.09-.07-.12-.11c-.03-.04-.05-.07-.05-.05M9.06,15.07c-.03.07-.15.17-.19.17-.02,0-.02,0,0,.01.04.02.13-.05.18-.13l.05-.08.03.05c.03.05.18.16.2.14,0,0-.02-.02-.05-.03-.03-.01-.09-.06-.13-.1l-.07-.08-.03.05M10.01,15.11c-.05.09-.08.12-.18.15-.08.02-.08.02-.02.02.09-.01.15-.05.2-.13.04-.06.04-.06.05-.02.02.05.1.14.13.14,0,0,0-.02-.03-.04-.03-.02-.06-.07-.08-.11l-.03-.07-.04.07M11.57,15.11c-.04.09-.09.13-.19.16-.05.01-.07.02-.04.02.1,0,.26-.12.26-.19,0-.04.02-.03.06.03.05.05.18.13.23.13.01,0,0-.01-.04-.03-.09-.03-.16-.09-.19-.14-.03-.06-.04-.06-.08.02M14.27,15.06c0,.05.17.21.23.2,0,0,0-.01-.04-.03-.07-.04-.12-.08-.16-.14-.02-.03-.03-.04-.03-.03M10.81,15.14c-.05.08-.11.12-.21.14-.06.01-.07.02-.03.02.06,0,.2-.06.23-.1.05-.08.05-.08.1-.02.06.07.17.13.25.12.04,0,.04,0-.02-.02-.1-.02-.18-.07-.23-.14-.04-.07-.05-.07-.09,0M23.96,15.11s-.08.05-.13.07c-.06.02-.09.04-.08.04.04,0,.18-.07.22-.1.03-.02.03-.02.05.01.03.05.12.11.17.11.02,0,0-.01-.03-.02-.08-.03-.12-.06-.13-.1-.01-.04-.03-.04-.06,0M28.04,15.17c-.08.03-.14.05-.13.05.02,0,.28-.08.29-.1.02-.02-.02,0-.17.05M15.11,15.18s-.07.06-.1.07c-.03.01-.04.02-.03.02.05,0,.2-.12.18-.14,0,0-.03.01-.05.04M16.79,15.19s0,.05.01.05.01-.02,0-.05c0-.03-.01-.05-.01-.05s0,.02,0,.05M27.5,15.16s0,.05.02.09c.02.07.04.08.12.05.04-.01.03-.01-.02,0-.06,0-.07,0-.09-.07-.02-.04-.03-.07-.03-.06M13.53,15.21s-.02.04-.04.05c-.03.01-.03.02-.01.02.04,0,.08-.04.06-.07,0-.01,0-.01-.01,0M15.46,15.25s0,.05,0,.03c0-.02,0-.05,0-.07s0,0,0,.04M4.41,15.22s-.04.01,0,.02c.02,0,.05,0,.07-.02.05-.02,0-.02-.06,0M25.11,15.22s.13.03.12.01c0,0-.04-.01-.08-.02-.05,0-.06,0-.04,0M15.14,15.28s0,.05,0,.03c0-.02,0-.04,0-.06,0-.02,0,0,0,.03M26.64,15.24s.05,0,.06,0c.02,0,0,0-.03,0s-.05,0-.03,0M27.8,15.24s-.03.02,0,.02c.01,0,.04,0,.06-.02.02,0,.03-.02,0-.02-.01,0-.04,0-.06.02M4.27,15.25s.05,0,.06,0c.02,0,0,0-.03,0s-.05,0-.03,0M16.89,15.25s.07,0,.09,0c.02,0,0,0-.05,0-.05,0-.07,0-.04,0M17.52,15.25s.05,0,.06,0c.02,0,0,0-.03,0s-.05,0-.03,0M19.68,15.25c.38,0,1,0,1.38,0s.07,0-.69,0-1.07,0-.69,0M22.63,15.25c.18,0,.46,0,.64,0s.03,0-.32,0-.5,0-.32,0M24.3,15.25s.11,0,.15,0c.04,0,0,0-.08,0s-.12,0-.08,0M25.58,15.25c.19,0,.49,0,.67,0,.18,0,.03,0-.34,0s-.52,0-.33,0M29.37,15.25c.23,0,.45,0,.68,0,.19,0,.03,0-.34,0s-.52,0-.34,0M1.3,15.27s.05,0,.07,0,0,0-.04,0c-.04,0-.05,0-.03,0M4.09,15.27s.07,0,.1,0c.03,0,0,0-.05,0s-.08,0-.05,0M6.09,15.27s.05,0,.06,0c.02,0,0,0-.03,0s-.05,0-.03,0M9.45,15.27s.05,0,.06,0c.02,0,0,0-.03,0s-.05,0-.03,0M10.25,15.28s.19.02.17.01c0,0-.05-.01-.11-.02-.06,0-.09,0-.06,0M11.94,15.27s.05,0,.06,0c.02,0,0,0-.03,0s-.05,0-.03,0M17.16,15.27c.07,0,.14,0,.21,0,.06,0,.01,0-.1,0s-.16,0-.1,0M14.62,15.29s.05,0,.07,0,0,0-.04,0c-.04,0-.05,0-.03,0M14.87,15.29s.05,0,.06,0c.02,0,0,0-.03,0s-.05,0-.03,0M15.11,15.38s-.03.06-.06.09-.05.06-.05.06c.02,0,.13-.13.13-.15,0-.01,0-.03,0-.03s0,.01,0,.03M14.27,15.49s.01.02.02.02c.01,0,.05,0,.08.01.05.01.05,0,0-.01-.08-.03-.09-.03-.09-.01M8.79,15.58s-.04.05-.03.06c0,.01,0,0,.02-.02s.04-.05.06-.06c.02-.01.03-.02.02-.02-.01,0-.04.02-.06.03M9.02,15.57c.05.02.07.05.08.15v.09s.01-.08.01-.08c0-.09-.05-.18-.1-.18-.02,0-.02,0,0,.02M9.19,15.6c-.1.12-.01.31.14.31.14,0,.21-.07.2-.2,0-.05,0-.05-.01.02,0,.23-.35.23-.35,0,0-.08.02-.12.08-.16.03-.02.03-.02,0-.02-.02,0-.05.02-.07.05M9.44,15.57s.05.03.06.05c.01.02.02.02.02.01,0-.03-.06-.08-.09-.08-.01,0,0,0,.01.02M14.62,15.56c.05,0,.13,0,.18,0,.05,0,0,0-.1,0-.1,0-.14,0-.09,0M15.36,15.62c-.04.09-.2.24-.29.27-.04.01-.06.03-.06.03.02.02.18-.07.24-.14.07-.07.16-.21.14-.23,0,0-.02.03-.04.07M8.76,15.8c0,.11.29.14.33.04,0-.02,0-.01-.04.01-.08.07-.24.04-.28-.04-.01-.03-.02-.03-.02,0M14.26,15.9s.08.03.12.04c.03,0,0,0-.05-.03-.13-.04-.15-.05-.07,0M14.47,15.96s.05,0,.06,0c.02,0,0,0-.03,0s-.05,0-.03,0M14.83,15.96s.05,0,.06,0c.02,0,0,0-.03,0s-.05,0-.03,0M14.64,15.98s.06,0,.08,0c.02,0,0,0-.04,0s-.06,0-.04,0M18.33,17.01c0,.37,0,.38-.04.37-.02-.01-.04-.02-.05-.02,0,0,0,.01.04.03.07.04.07.06.06-.37v-.39s0,.38,0,.38M18.65,16.66s.04.04.04.06c0,.02,0,.02.01,0,.01-.03-.03-.1-.06-.1-.02,0-.02,0,0,.03M.02,17.82c0,1.05,0,1.19.02,1.22l.03.04h.69s.69,0,.69,0h-.69c-.44,0-.69-.02-.7-.03-.01-.01-.02-.42-.03-1.21v-1.2s-.01,1.18-.01,1.18M1.41,16.83v.18H.42v.61h.32c.33,0,.36,0,.39.07,0,.02,0,.02.01,0,0-.07-.06-.09-.39-.09h-.31v-.58h.99v-.19c0-.1,0-.19,0-.19s0,.08,0,.18M19.94,16.83v.19s.66,0,.66,0v.98s0,.98,0,.98v-.99s0-.99,0-.99h-.67v-.19s-.01-.19-.01-.19v.19M26.43,16.71s-.04.06-.04.08c0,.02.01,0,.03-.03.02-.04.04-.06.09-.08.05-.01.05-.02.02-.02-.02,0-.06.02-.09.04M26.67,16.69c.14.05.15.29.01.35-.03.01-.05.03-.03.03.02,0,.05-.02.08-.04.11-.1.05-.36-.09-.35-.03,0-.02,0,.02.02M26.38,16.94s.08.12.12.12c.02,0,.01,0-.02-.02-.03-.01-.06-.04-.08-.08-.02-.04-.02-.04-.03-.02M21,18.04v1.03h-.16c-.15,0-.16,0-.19-.04-.02-.02-.03-.03-.03-.02,0,.06.06.08.23.08h.17v-2.06h.34s.34-.01.34-.01h-.35s-.35,0-.35,0v1.03M2.36,17.33c.05,0,.14,0,.19,0s0,0-.09,0-.15,0-.09,0M3.79,17.33c.05,0,.14,0,.19,0s0,0-.09,0-.15,0-.09,0M5.67,17.33s.12,0,.17,0,0,0-.09,0-.13,0-.09,0M7.35,17.33c.05,0,.13,0,.18,0,.05,0,0,0-.1,0-.1,0-.14,0-.09,0M9.21,17.33s.12,0,.16,0c.04,0,0,0-.09,0-.09,0-.12,0-.08,0M10.22,17.33c.05,0,.13,0,.18,0,.05,0,0,0-.1,0-.1,0-.14,0-.09,0M14.38,17.33c.06,0,.15,0,.2,0,.05,0,0,0-.1,0-.11,0-.15,0-.09,0M16.26,17.33s.12,0,.17,0,0,0-.09,0-.13,0-.09,0M17.9,17.33s.12,0,.17,0,0,0-.09,0-.13,0-.09,0M22.26,17.33c.05,0,.13,0,.18,0s0,0-.1,0c-.1,0-.14,0-.09,0M25.86,17.33s.12,0,.16,0c.04,0,0,0-.09,0-.09,0-.12,0-.08,0M27.69,17.33c.06,0,.15,0,.2,0,.05,0,0,0-.1,0-.11,0-.15,0-.09,0M29.28,17.33s.12,0,.16,0c.04,0,0,0-.09,0-.09,0-.12,0-.08,0M30.28,17.33c.05,0,.13,0,.18,0,.05,0,0,0-.1,0-.1,0-.14,0-.09,0M2.1,17.37c-.14.05-.35.26-.35.35,0,.01.02-.02.05-.06.09-.15.19-.23.37-.29.06-.02.09-.03.07-.03s-.08.02-.13.04M3.55,17.36c-.17.06-.38.31-.37.44,0,.01.01,0,.02-.04.08-.21.2-.34.38-.4.06-.02.09-.03.07-.03-.02,0-.07.01-.11.03M4.93,18.17c0,1-.02.92.22.91h.17s-.16,0-.16,0c-.23,0-.21.07-.21-.89v-.83h.12c.14,0,.17.03.17.13,0,.08.02.09.06.03.02-.02.07-.07.12-.1.1-.06.11-.07,0-.03-.03.02-.08.05-.12.08l-.06.06v-.06c0-.1-.05-.13-.2-.13h-.13v.84M6.01,17.36c.17.05.25.14.3.3.01.04.02.06.02.04,0-.15-.22-.37-.37-.37-.02,0,0,.01.04.02M7.71,17.36c.16.04.25.11.33.26.05.1.06.08.01-.02-.07-.13-.28-.28-.41-.27-.02,0,0,.01.06.03M8.47,18.16v.83s0-.82,0-.82v-.82h.12c.11,0,.16.02.18.07,0,.02,0,.02.01,0,0-.06-.07-.09-.2-.09h-.12v.83M8.97,17.38s-.1.06-.12.08c-.03.03-.04.03-.05.02,0-.01-.01,0-.01.03v.05s.06-.06.06-.06c.06-.06.14-.12.23-.14.04-.01.04-.01,0-.01-.02,0-.07.02-.12.04M9.55,17.37c.06.02.12.06.17.11l.07.07.07-.07s.1-.09.17-.11c.05-.02.08-.03.06-.03-.06,0-.19.07-.25.13l-.05.06-.05-.06c-.06-.06-.19-.13-.25-.13-.02,0,0,.02.06.03M10.56,17.36c.11.04.2.11.25.22.02.05.04.08.04.07,0-.12-.21-.31-.34-.31-.02,0,0,.01.05.03M11.27,17.35h.19s.03.12.03.12c.02.06.04.1.04.09,0,0,0-.06-.03-.12l-.03-.1h-.2s-.2,0-.2,0h.19M12.2,17.45c-.02.06-.03.11-.02.12,0,0,.02-.04.04-.1l.03-.11h.19s.19-.01.19-.01h-.2s-.2,0-.2,0l-.03.11M14.16,17.35s.05,0,.06,0c.02,0,0,0-.03,0s-.05,0-.03,0M15.64,17.35c.16.01.17.03.18.13,0,.08,0,.08.07,0,.03-.03.09-.07.13-.09.04-.02.07-.04.07-.04-.01-.01-.13.05-.19.11l-.06.06v-.06c0-.1-.05-.13-.2-.13h-.13s.14.01.14.01M16.59,17.36c.12.04.2.1.25.18.02.04.05.07.05.06,0-.08-.23-.26-.33-.26-.02,0,0,.01.04.02M17.71,17.35s0,.02.06,0c.04-.01.04-.01,0-.01-.02,0-.05,0-.07.01M22.06,17.35s0,.02.06,0c.04-.01.04-.01,0-.01-.02,0-.05,0-.07.01M22.65,17.37c.2.06.32.21.38.45.01.06.03.09.03.06,0-.23-.28-.55-.48-.55-.02,0,.02.02.08.04M23.39,17.89v.56s0-.55,0-.55v-.55h.37v.6s0,.6,0,.6v-.61s0-.61,0-.61h-.4v.56M24.4,17.92v.58s0-.57,0-.57v-.57s.19,0,.19,0h.18s-.19,0-.19,0h-.19s0,.58,0,.58M25.16,18.19c0,.99-.02.9.23.9h.16v-.59s0-.59,0-.59v.58s-.01.58-.01.58h-.15c-.22,0-.2.09-.21-.88v-.84s.11,0,.11,0c.11,0,.16.02.18.07,0,.02,0,.02.01,0,0-.06-.07-.09-.2-.09h-.12v.85M25.67,17.36s-.08.05-.11.08-.06.05-.07.04c0,0-.01,0-.01.03,0,.03.01.03.09-.05.05-.05.11-.09.15-.11.03-.01.05-.02.04-.02-.01,0-.05.01-.08.03M26.41,18.18v.84s0-.83,0-.83v-.83s.15,0,.15,0h.15s-.16,0-.16,0h-.16s0,.84,0,.84M27.99,17.34s.04.01.08.02c.05,0,.06,0,.04,0-.03-.02-.13-.03-.12-.01M28.54,18.16v.83s0-.82,0-.82v-.82h.12c.11,0,.16.02.18.07,0,.02,0,.02.01,0,0-.06-.07-.09-.2-.09h-.12v.83M29.04,17.38s-.1.06-.12.08c-.03.03-.04.03-.05.02,0-.01-.01,0-.01.03v.05s.06-.06.06-.06c.06-.06.14-.12.23-.14.04-.01.04-.01,0-.01-.02,0-.07.02-.12.04M29.62,17.37c.06.02.12.06.17.11l.07.07.07-.07s.1-.09.17-.11c.05-.02.08-.03.06-.03-.06,0-.22.09-.26.14l-.04.05-.05-.06c-.06-.06-.19-.13-.25-.13-.02,0,0,.02.06.03M2.81,17.38s.06.03.06.08v.07s0-.07,0-.07c0-.07-.04-.11-.11-.1-.01,0,0,.01.04.02M7.01,17.41c-.1.06-.17.13-.22.24-.06.11-.04.11.02,0,.07-.13.11-.17.24-.24.06-.03.1-.05.08-.05-.01,0-.07.02-.12.05M14.86,17.4c.1.05.16.12.21.23.02.04.03.06.03.05,0-.11-.2-.33-.31-.33-.01,0,.02.02.07.05M30.66,17.37c.09.03.17.11.21.2.02.05.04.08.04.07,0-.1-.19-.3-.27-.29-.01,0,0,0,.02.02M4.27,17.4c.13.07.19.14.26.29.02.06.04.09.04.07,0-.13-.23-.4-.33-.4-.01,0,0,.01.04.03M11.09,17.38s.03.11.07.23c.04.11.07.2.07.19,0-.01-.03-.11-.07-.23s-.07-.2-.07-.19M12.57,17.45s-.02.08-.01.08c0,0,.02-.03.03-.07.01-.04.02-.08.01-.08s-.02.03-.03.07M13.94,17.38s-.05.37-.03.37c.05,0,.32-.07.28-.07-.04,0-.16.02-.24.05-.03,0-.03,0-.03-.15v-.16l.06-.02c.06-.02.02-.02-.05,0M17.55,17.42c-.1.06-.23.25-.23.33,0,.01.01-.01.03-.05.07-.16.13-.23.28-.31.02-.01.03-.02.02-.02-.01,0-.06.02-.1.05M21.9,17.42c-.12.07-.25.27-.25.36,0,.01.02-.01.03-.06.06-.16.14-.25.3-.33.02-.01.03-.02.02-.02-.01,0-.06.02-.1.05M28.17,17.39s.03.03.04.05c0,.02.01.01.01-.01,0-.02-.01-.04-.03-.05-.04-.02-.05-.01-.02.01M27.27,17.46c-.07.06-.15.18-.15.23,0,.01.02-.02.05-.08.03-.06.08-.12.13-.16.04-.03.07-.06.06-.06s-.05.03-.09.07M26.13,17.56c0,.08,0,.13,0,.12,0,0,.01-.07,0-.14v-.12s-.01.14-.01.14M28.19,17.54s0,.05,0,.03c0-.02,0-.05,0-.07,0-.02,0,0,0,.04M2.86,17.62s0,.05,0,.03c0-.02,0-.05,0-.07,0-.02,0,0,0,.04M12.52,17.63s-.02.08-.01.08c0,0,.02-.03.03-.07.01-.04.02-.08.01-.08s-.02.03-.03.07M11.54,17.61s.01.06.02.09c.01.03.02.05.02.04s-.01-.06-.02-.09c-.01-.03-.02-.05-.02-.04M12.15,17.64s0,.05,0,.06.01-.01.02-.04c0-.03,0-.05,0-.06s-.01.01-.02.04M28.17,17.68s-.01.04-.03.03c-.02,0-.06-.02-.1-.02-.06,0-.05,0,.03.02.12.03.13.03.11-.03v-.04s-.01.04-.01.04M2.38,17.67s.11,0,.15,0,0,0-.08,0-.12,0-.08,0M3.69,17.69c-.07.03-.13.1-.14.16,0,.04,0,.04.02-.02.05-.11.11-.14.29-.15h.15s-.14-.01-.14-.01c-.08,0-.16,0-.19.02M5.44,17.7c-.08.04-.14.12-.13.21,0,.04,0,.03.02-.03.03-.15.09-.19.32-.2h.17s-.15-.01-.15-.01c-.12,0-.17,0-.23.03M7.44,17.68c.19.01.24.05.29.17.03.07.03.08.02.03-.02-.15-.13-.22-.33-.21h-.14s.16.01.16.01M9,17.69c-.07.03-.13.11-.13.16,0,.03,0,.02.02-.02.06-.18.47-.21.56-.04.02.04.03.05.03.03,0-.13-.31-.21-.48-.13M10.14,17.67s.11,0,.14,0c.04,0,0,0-.08,0-.08,0-.11,0-.07,0M14.42,17.68c.25.02.29.04.32.22.01.08.01.08.02.02,0-.18-.1-.25-.35-.25h-.16s.18.01.18.01M16.02,17.7s-.08.05-.09.07c-.03.06-.02.06.03,0,.13-.16.53-.12.58.06,0,.03.02.04.02.02,0-.17-.31-.26-.53-.16M17.81,17.69c-.06.02-.13.11-.13.14,0,.01.02,0,.04-.04.05-.08.1-.1.27-.11h.15s-.14-.01-.14-.01c-.08,0-.16,0-.19.02M22.36,17.68c.21.02.25.04.3.18.02.04.02.05.03.03,0-.13-.15-.23-.34-.22h-.14s.15.01.15.01M25.68,17.69c-.06.03-.13.12-.13.18,0,.03.05-.08.05-.11,0-.04.13-.07.29-.08h.19s-.17-.01-.17-.01c-.11,0-.19,0-.23.02M27.71,17.67s.12,0,.17,0c.05,0,0,0-.09,0s-.13,0-.09,0M29.06,17.69c-.06.03-.13.11-.13.15,0,.02.01,0,.03-.03.08-.17.47-.18.55-.02.02.04.03.05.03.03,0-.13-.31-.21-.48-.13M30.21,17.67s.11,0,.14,0c.04,0,0,0-.08,0-.08,0-.11,0-.07,0M2.2,17.71c-.05.03-.12.15-.12.2,0,.02.01,0,.03-.04.03-.09.07-.14.15-.17.03-.01.04-.02.03-.02-.01,0-.05.01-.08.03M2.65,17.7c.06.02.11.02.06,0-.02,0-.05-.01-.07-.01-.03,0-.03,0,0,.01M4.08,17.72s.08.07.09.1c.02.03.03.05.03.04,0-.04-.06-.13-.11-.16-.07-.04-.08-.03-.01.02M5.87,17.7s.06.05.08.09.03.06.03.05c0-.06-.09-.17-.14-.16,0,0,0,.01.03.02M7.19,17.71s-.05.05-.06.07l-.02.04.03-.04s.06-.05.09-.07c.03-.02.04-.03.03-.03-.02,0-.05.01-.07.03M9.97,17.71s-.09.12-.09.17c0,.02.01,0,.03-.04.03-.08.04-.09.11-.13.03-.02.04-.03.03-.03-.02,0-.05.01-.07.03M10.42,17.73s.06.07.07.11c0,.04.02.06.02.04.01-.04-.03-.15-.07-.18-.06-.04-.07-.03-.01.02M18.2,17.71c.06.03.11.12.12.18,0,.02,0,.02.01.01.03-.07-.08-.22-.15-.22-.02,0,0,.01.03.03M27.54,17.71s-.04.05-.03.06c0,.01,0,0,.02-.02.01-.02.03-.04.06-.06.02-.01.03-.02.02-.02-.01,0-.04.02-.06.03M30.03,17.71c-.05.04-.09.13-.08.17,0,.01,0,.01.01,0,0-.06.06-.14.12-.17.03-.01.04-.03.03-.03s-.05.02-.07.03M30.48,17.72s.06.07.07.12c0,.04.02.06.02.04,0-.08-.07-.2-.13-.2-.01,0,0,.02.04.05M22.1,17.72s-.1.16-.1.22c0,.04,0,.04.02-.02.02-.08.06-.16.11-.2.04-.03.02-.03-.02,0M2.78,17.73s.07.02.07,0c0,0-.02-.01-.05-.02-.03,0-.04,0-.02.01M12.11,17.76s0,.05,0,.06.01-.01.02-.04c0-.03,0-.05,0-.06,0,0-.01.01-.02.04M27.11,17.87c0,.18.02.26.09.33.04.04.25.15.29.14.01,0-.03-.02-.1-.05-.22-.09-.25-.14-.26-.4v-.19s-.01.17-.01.17M16.92,17.81s0,.05,0,.03c0-.02,0-.04,0-.06,0-.02,0,0,0,.03M8.12,17.85s.01.09.02.1c.01.01,0-.1-.01-.14-.01-.03-.01-.02,0,.05M10.88,17.85s0,.07,0,.04c0-.03,0-.07,0-.09,0-.02,0,0,0,.05M11.6,17.79s.01.06.02.09c.01.03.02.05.02.04s-.01-.06-.02-.09c-.01-.03-.02-.05-.02-.04M30.94,17.86c0,.05,0,.08,0,.05,0-.03,0-.07,0-.1,0-.03,0,0,0,.05M12.44,17.86s-.02.08-.01.08c0,0,.02-.03.03-.07s.02-.08.01-.08-.02.03-.03.07M1.71,17.85s0,.05,0,.08c0,.02,0,0,.02-.03.02-.08.01-.11,0-.04M6.71,17.86s-.01.08-.01.1,0,0,.02-.04c0-.04.01-.09.01-.1,0,0-.01,0-.02.04M15.12,17.9c0,.06,0,.08,0,.05s0-.08,0-.11c0-.03,0,0,0,.06M21.63,17.88s0,.07,0,.1c0,.03,0,0,.02-.05.02-.1,0-.15,0-.05M12.06,17.92s-.02.08-.01.08.02-.03.03-.07c.01-.04.02-.08.01-.08s-.02.03-.03.07M9.49,18.4c0,.3,0,.43,0,.28,0-.18,0-.37,0-.55,0-.15,0-.03,0,.28M29.55,18.41c0,.31,0,.44,0,.29,0-.15,0-.4,0-.56,0-.16,0-.03,0,.27M5.99,18.43c0,.31,0,.44,0,.29,0-.15,0-.4,0-.56,0-.16,0-.03,0,.27M6.36,18.47v.6h-.15c-.14,0-.16,0-.18-.04-.02-.02-.03-.03-.03-.02,0,.06.06.08.22.08h.16v-.6c0-.33,0-.6,0-.6s0,.27,0,.6M28.91,18.47v.6h-.15c-.14,0-.16,0-.18-.04-.02-.03-.03-.03-.03,0,0,.05.06.07.22.07h.15v-.6c0-.33,0-.6,0-.6s0,.27,0,.6M4.21,17.96s0,.05,0,.03c0-.02,0-.05,0-.07,0-.02,0,0,0,.04M4.59,17.97s0,.06,0,.04c0-.02,0-.06,0-.08,0-.02,0,0,0,.04M8.85,18.48v.59h-.15c-.14,0-.16,0-.18-.04-.02-.02-.03-.03-.03-.02,0,.06.06.08.22.08h.16v-.6c0-.33,0-.6,0-.6s0,.26,0,.59M16.57,18.46c0,.68-.02.63.23.63h.16v-.59s0-.59,0-.59v.58s0,.58,0,.58h-.15c-.22,0-.2.05-.21-.61v-.57s0,.57,0,.57M27.5,17.92s.08.11.11.1c.01,0,0-.01-.03-.03-.03-.02-.06-.05-.07-.07-.01-.03-.02-.03-.02,0M3.53,17.99s0,.07,0,.04c0-.03,0-.07,0-.09,0-.02,0,0,0,.05M9.86,18.5v.57h-.16c-.15-.01-.16-.01-.18-.06-.02-.03-.02-.04-.02-.01,0,.07.05.09.22.09h.16v-.58c0-.32,0-.58,0-.58s0,.26,0,.57M11.27,17.94s.03.11.07.23c.04.11.07.2.07.19,0-.01-.03-.11-.07-.23s-.07-.2-.07-.19M22.69,18.2c0,.15,0,.22,0,.14,0-.08,0-.2,0-.28,0-.08,0-.01,0,.14M29.92,18.5v.57h-.16c-.15-.01-.16-.01-.18-.06-.02-.03-.02-.04-.02-.01,0,.07.05.09.22.09h.16v-.58c0-.32,0-.58,0-.58s0,.26,0,.57M2.06,18.04c0,.05,0,.08,0,.05,0-.03,0-.07,0-.1,0-.03,0,0,0,.05M3.15,18.02s0,.06,0,.04c0-.03,0-.05,0-.08,0-.02,0,0,0,.04M10.51,18.47c0,.65-.02.62.22.61h.17s-.16,0-.16,0c-.21,0-.2.04-.21-.59v-.55s-.01.53-.01.53M11.65,17.97s.01.06.02.09c.01.03.02.05.02.04s-.01-.06-.02-.09c-.01-.03-.02-.05-.02-.04M17.65,18.19c0,.14,0,.19,0,.12,0-.07,0-.19,0-.25,0-.07,0,0,0,.13M18.34,18.21c0,.15,0,.21,0,.13,0-.08,0-.2,0-.27,0-.07,0,0,0,.14M23.07,18.2c0,.14,0,.2,0,.13,0-.09,0-.17,0-.26,0-.07,0-.01,0,.13M.42,18.35v.38h.52s.52,0,.52,0h-.51s-.51-.01-.51-.01v-.72h.36s.36-.01.36-.01h-.37s-.37,0-.37,0v.38M1.68,18.05s0,.07,0,.04c0-.03,0-.07,0-.09,0-.02,0,0,0,.05M7.77,18.21c0,.14,0,.19,0,.12,0-.07,0-.19,0-.25,0-.07,0,0,0,.13M8.15,18.19c0,.13,0,.18,0,.11,0-.08,0-.16,0-.23,0-.06,0,0,0,.12M12.39,18.04s-.02.08-.01.08c0,0,.02-.03.03-.07.01-.04.02-.08.01-.08,0,0-.02.03-.03.07M30.58,18.48c0,.64-.02.61.22.6h.17s-.16,0-.16,0c-.21,0-.2.04-.21-.58v-.54s-.01.52-.01.52M7.07,18.2c0,.12,0,.17,0,.11,0-.06,0-.16,0-.23,0-.06,0-.01,0,.11M17.27,18.21c0,.13,0,.18,0,.11,0-.07,0-.17,0-.23,0-.06,0,0,0,.12M15.87,18.54v.53h-.15c-.16,0-.19-.01-.2-.09,0-.04,0-.04-.01,0-.02.08.04.11.21.11h.16v-.54c0-.3,0-.54,0-.54s0,.24,0,.53M6.69,18.21c0,.11,0,.15,0,.09,0-.06,0-.15,0-.2,0-.05,0,0,0,.1M12.02,18.07s0,.05,0,.06.01-.01.02-.04c0-.03,0-.05,0-.06s-.01.01-.02.04M14.35,18.05c.06,0,.16,0,.22,0s0,0-.11,0c-.12,0-.17,0-.1,0M21.98,18.2c0,.09,0,.13,0,.09,0-.05,0-.12,0-.17s0,0,0,.09M21.6,18.21c0,.09,0,.13,0,.09s0-.12,0-.16c0-.05,0-.01,0,.08M27.89,18.11c.33.11.38.18.39.48,0,.12,0,.12,0-.03,0-.2-.03-.28-.15-.36-.08-.05-.33-.15-.38-.14,0,0,.05.02.13.05M14.02,18.12c-.12.06-.23.19-.23.27,0,.01.02-.02.05-.07.05-.1.1-.14.23-.2.04-.02.07-.04.05-.04-.01,0-.06.02-.1.04M4.23,18.2c0,.05,0,.08,0,.05,0-.03,0-.07,0-.1,0-.03,0,0,0,.05M4.61,18.2c0,.05,0,.08,0,.05,0-.03,0-.07,0-.1,0-.03,0,0,0,.05M11.7,18.15s.02.07.03.12c.02.05.03.08.03.06s-.01-.07-.03-.12c-.02-.05-.03-.08-.03-.06M11.98,18.19s0,.05,0,.06.01-.01.02-.04c0-.03,0-.05,0-.06s-.01.01-.02.04M12.32,18.28s-.02.08-.01.08c0,0,.02-.03.03-.07.01-.04.02-.08.01-.08,0,0-.02.03-.03.07M11.92,18.41c-.02.08-.04.14-.03.14,0,0,.03-.05.05-.13.02-.08.04-.14.03-.14,0,0-.03.05-.05.13M1.69,18.39c0,.06,0,.08,0,.05,0-.04,0-.07,0-.11,0-.03,0,0,0,.06M2.06,18.39c0,.06,0,.08,0,.05,0-.04,0-.07,0-.11,0-.03,0,0,0,.06M3.15,18.4c0,.05,0,.08,0,.05,0-.03,0-.07,0-.1,0-.03,0,0,0,.05M14.25,18.34s-.06.03-.07.05c0,.01,0,0,.03,0,.03-.02.09-.04.14-.04.09-.01.09-.01.02-.02-.04,0-.1,0-.13.02M14.61,18.32s.07,0,.09,0c.02,0,0,0-.05,0-.05,0-.07,0-.04,0M3.53,18.41s0,.07,0,.04c0-.03,0-.07,0-.09,0-.02,0,0,0,.05M14.76,18.46c0,.07,0,.1,0,.07,0-.04,0-.1,0-.14,0-.04,0,0,0,.07M27.55,18.37s.05.02.06.02c.02,0,.01,0,0-.02-.02,0-.05-.02-.06-.02-.02,0-.01,0,0,.02M4.59,18.43s0,.05,0,.03c0-.02,0-.06,0-.07,0-.02,0,0,0,.04M11.78,18.38s.01.06.02.09c.01.03.02.05.02.04s-.01-.06-.02-.09c-.01-.03-.02-.05-.02-.04M4.21,18.44c0,.11-.04.2-.09.26-.03.03-.04.05-.04.05.06,0,.15-.2.14-.31v-.06s-.01.06-.01.06M12.26,18.46s-.02.08-.01.08c0,0,.02-.03.03-.07s.02-.08.01-.08-.02.03-.03.07M27.74,18.43c.06.02.11.05.11.05,0,0,.01.02.03.04t.02,0s-.12-.11-.2-.13c-.03,0,0,0,.05.03M13.78,18.47s0,.05,0,.03c0-.02,0-.04,0-.06,0-.02,0,0,0,.03M21.62,18.47s0,.05,0,.03c0-.02,0-.04,0-.06,0-.02,0,0,0,.03M22,18.47s0,.05,0,.03c0-.02,0-.04,0-.06,0-.02,0,0,0,.03M11.43,18.45c0,.12.22.62.28.62.02,0,0-.01-.03-.03-.06-.04-.07-.06-.19-.4-.04-.11-.07-.2-.07-.19M7.75,18.51s-.04.14-.07.18c0,.01-.05.04-.09.05-.04.01-.06.03-.03.03.1,0,.23-.17.2-.26,0-.03,0-.03-.01,0M17.29,18.53s0,.05,0,.03c0-.02,0-.04,0-.06,0-.02,0,0,0,.03M17.66,18.51c0,.12.11.25.21.25.02,0-.09-.05-.12-.05-.01,0-.06-.12-.08-.18-.01-.05-.02-.06-.02-.02M23.04,18.54c-.03.2-.13.36-.28.46-.04.03-.07.05-.06.05.13,0,.39-.41.36-.55,0-.02-.01,0-.02.04M3.54,18.53c0,.1.11.23.21.23.02,0,0-.01-.03-.02-.1-.03-.12-.06-.15-.15-.01-.05-.03-.07-.03-.05M18.31,18.57c-.02.09-.05.13-.13.16-.04.01-.05.02-.03.03.1,0,.21-.13.19-.23,0-.02-.01,0-.02.04M22.66,18.56c-.02.09-.06.14-.15.17-.04.01-.06.03-.04.03.09,0,.22-.14.2-.23,0-.02-.01,0-.02.03M1.7,18.56c0,.19.18.46.34.5.02,0,.01,0-.03-.02-.15-.08-.23-.18-.28-.38-.02-.07-.04-.12-.04-.1M23.41,18.6s0,.06,0,.04c0-.03,0-.05,0-.08,0-.02,0,0,0,.04M11.84,18.59s0,.04,0,.05c0,0,0,0,.02,0s.02-.02.02-.04,0-.02-.02-.02c0,0-.02,0-.02-.01,0-.01,0,0,0,.01M22.01,18.56c0,.05.09.18.13.18.01,0,0-.01-.02-.03-.02-.02-.06-.06-.08-.1-.02-.04-.03-.06-.03-.05M24.38,18.57c0,.06-.07.15-.13.17-.04.01-.05.02-.02.02.08,0,.21-.16.16-.21,0,0-.01,0-.01.02M7.1,18.58c0,.08.14.2.2.18.02,0,.01-.01-.01-.01-.05,0-.13-.07-.16-.14-.01-.03-.02-.04-.02-.03M2.09,18.59s.06.12.09.14c.05.03.07.02.02-.01-.02-.02-.06-.05-.08-.09s-.03-.05-.03-.04M23.78,18.61s.02.06.04.08c.02.02.03.03.02.01s-.03-.05-.04-.08c-.01-.04-.02-.04-.02-.01M4.55,18.62c0,.16-.21.38-.41.44-.04.01-.06.02-.03.02.16,0,.5-.35.45-.47,0-.02,0-.01-.01,0M14.74,18.62s-.07.1-.14.12c-.03,0-.05.02-.03.02.08,0,.23-.12.19-.15,0,0-.01,0-.01.01M17.3,18.62c0,.18.26.47.42.46.02,0,0-.01-.06-.03-.18-.06-.27-.16-.33-.36-.02-.06-.03-.09-.03-.07M3.19,18.66c.04.2.27.43.43.42.02,0,0-.01-.03-.02-.18-.06-.31-.18-.37-.35-.02-.06-.03-.08-.03-.05M12.19,18.69s-.02.08-.01.08.02-.03.03-.07c.01-.04.02-.08.01-.08s-.02.03-.03.07M14.16,18.64s.06.11.13.12h.06s-.07-.02-.07-.02c-.08-.03-.08-.03-.1-.08-.01-.03-.02-.03-.02-.01M8.05,18.74c-.05.12-.18.26-.28.29-.04.01-.06.03-.06.03.06.06.42-.32.39-.41,0,0-.03.03-.05.09M21.65,18.65c0,.17.28.44.45.43.02,0-.01-.01-.06-.03-.18-.05-.28-.15-.35-.35-.02-.05-.03-.07-.03-.06M27.09,18.68s0,.03.01,0c0-.04.02-.04.08,0,.02.01.05.03.06.03.03,0-.1-.07-.13-.07-.01,0-.02.02-.02.04M27.87,18.68s-.05.05-.08.06c-.05.02-.05.02-.02.02.05,0,.14-.07.13-.1,0-.01-.02,0-.03.02M13.78,18.71s0,.05,0,.03c0-.02,0-.04,0-.06,0-.02,0,0,0,.03M2.79,18.71c-.08.02-.09.03-.04.02.04,0,.08-.01.11-.01.02,0,.04-.01.04-.02s0-.02,0-.02c0,0-.05.02-.11.04M23.42,18.72c0,.15.21.37.35.37.02,0-.01-.02-.06-.03-.14-.05-.21-.13-.27-.3-.01-.04-.02-.06-.02-.04M27.36,18.74s.16.02.14.01c0,0-.05-.01-.1-.02-.06,0-.08,0-.05,0M28.25,18.79c-.04.11-.24.27-.33.27-.01,0-.02,0,0,.01.06.06.4-.23.37-.32,0-.01-.02,0-.03.04M2.58,18.76s.05,0,.07,0c.02,0,0,0-.04,0-.04,0-.05,0-.03,0M2.91,18.81s0,.05,0,.03c0-.02,0-.05,0-.07,0-.02,0,0,0,.04M2.4,18.78s.05,0,.07,0c.02,0,0,0-.04,0s-.05,0-.03,0M3.84,18.78s.05,0,.07,0c.02,0,0,0-.04,0s-.05,0-.03,0M6.77,18.78c0,.07.21.26.31.28.03,0,.02,0-.02-.02-.1-.05-.18-.11-.24-.2-.03-.05-.05-.07-.05-.06M7.39,18.77s.05,0,.06,0c.02,0,0,0-.03,0s-.05,0-.03,0M14.4,18.77s.05,0,.06,0c.02,0,0,0-.03,0s-.05,0-.03,0M17.96,18.78s.06,0,.07,0c.02,0,0,0-.04,0-.04,0-.05,0-.03,0M22.32,18.78s.06,0,.07,0c.02,0,0,0-.04,0-.04,0-.05,0-.03,0M24.04,18.78s.07,0,.09,0c.02,0,0,0-.05,0-.05,0-.07,0-.04,0M27.59,18.78s.05,0,.07,0c.02,0,0,0-.04,0s-.05,0-.03,0M12.14,18.87s-.02.08-.01.08c0,0,.02-.03.03-.07.01-.04.02-.08.01-.08s-.02.03-.03.07M13.81,18.84c0,.08.16.21.28.24.03,0,.02,0-.03-.03-.1-.04-.16-.09-.21-.17-.02-.03-.03-.05-.03-.04M24.42,18.93s-.07.08-.14.11c-.05.02-.08.04-.07.04.04,0,.16-.07.2-.12.03-.04.04-.04.04-.01,0,.02.01.05.03.07.02.02.02.02.01,0,0-.01-.02-.06-.03-.1v-.08s-.05.07-.05.07M2.93,18.94s0,.06-.11.09c-.06.02-.09.03-.06.03.12-.02.19-.06.19-.12,0-.03,0-.06,0-.06s0,.02,0,.05M14.77,18.95s-.07.08-.13.1c-.04.02-.07.03-.06.03.05,0,.14-.05.18-.1.04-.05.04-.05.04-.01,0,.08.06.11.2.11h.13s-.13,0-.13,0c-.15,0-.19-.03-.19-.13v-.06s-.05.07-.05.07M27.04,18.93s.15.14.22.14c.01,0,0-.01-.05-.03-.12-.05-.15-.07-.16-.12,0-.04,0-.03-.01,0M18.35,18.96c-.05.06-.15.11-.27.13-.08.01-.08.01-.03.02.08,0,.17-.03.25-.09.03-.03.07-.05.08-.04,0,0,.01-.01.01-.03,0-.05,0-.05-.05.02M12.07,19.08c-.02.06-.03.12-.03.13,0,.01.02-.03.04-.1.02-.07.03-.13.03-.13,0,0-.02.04-.04.1M18.4,19.01s.08.08.2.07h.12s-.13-.01-.13-.01c-.1,0-.14-.02-.16-.05-.01-.02-.03-.03-.03-.01M26.43,19.06s.05.03.19.03h.16s-.16,0-.16,0c-.09,0-.17-.02-.19-.03-.02-.02-.03-.02,0,0M7.54,19.09h-.09s.08.01.08.01c.04,0,.1,0,.13-.01.06-.02.01-.02-.12,0M24.59,19.08s.08,0,.13,0c.04,0,.01,0-.06,0-.07,0-.1,0-.07,0M2.21,19.1s.07,0,.09,0c.02,0,0,0-.05,0-.05,0-.07,0-.04,0M2.45,19.1s.07,0,.11,0c.03,0,0,0-.06,0-.06,0-.08,0-.05,0M3.71,19.1s.07,0,.09,0c.02,0,0,0-.05,0-.05,0-.07,0-.04,0M3.94,19.1s.07,0,.09,0c.02,0,0,0-.05,0-.05,0-.07,0-.04,0M7.26,19.1s.07,0,.09,0c.02,0,0,0-.05,0-.05,0-.07,0-.04,0M11.71,19.13s0,.05,0,.06.01-.01.02-.04c0-.03,0-.05,0-.06s-.01.01-.02.04M14.19,19.1s.06,0,.08,0c.02,0,0,0-.04,0s-.06,0-.04,0M14.41,19.1s.07,0,.1,0c.03,0,0,0-.05,0s-.08,0-.05,0M17.81,19.1s.07,0,.09,0c.02,0,0,0-.05,0-.05,0-.07,0-.04,0M22.18,19.1s.07,0,.09,0c.02,0,0,0-.05,0-.05,0-.07,0-.04,0M22.41,19.1s.07,0,.09,0c.02,0,0,0-.05,0-.05,0-.07,0-.04,0M23.86,19.1s.07,0,.1,0c.03,0,0,0-.05,0s-.08,0-.05,0M24.09,19.1s.06,0,.07,0c.02,0,0,0-.04,0-.04,0-.05,0-.03,0M27.42,19.1s.07,0,.09,0c.02,0,0,0-.05,0-.05,0-.07,0-.04,0M27.65,19.1s.07,0,.1,0c.03,0,0,0-.05,0s-.08,0-.05,0M11.67,19.3s-.02.09-.01.09c0,0,.02-.03.03-.08.01-.05.02-.09.01-.09s-.02.03-.03.08M11.6,19.53c-.03.13-.04.17-.01.17,0,0,.01-.01,0-.02,0-.01,0-.08.02-.14.02-.06.03-.12.02-.12,0,0-.02.05-.04.11M11.97,19.52c-.02.08,0,.09.02.02,0-.03,0-.06,0-.07,0,0-.01.02-.02.05M11.91,19.66s-.03.04-.03.04c.02,0,.08-.07.07-.08,0,0-.03.01-.05.04M11.68,19.71s.08,0,.12,0c.03,0,0,0-.06,0s-.09,0-.06,0M0,0,0,0,0,0"/>
  </g>
</svg>