<svg xmlns="http://www.w3.org/2000/svg" width="70" height="64" fill="none" viewBox="0 0 70 64"><path fill="#1D1D1B" d="M52.41 30.71c.55 0 1.22.17 1.22.61.19-.17.53-.58-.15-1.12-1.39-1.12-4-1.52-6.24-1.75.874.312 1.707.728 2.48 1.24-1.26 1.68 1.14 3.25 2.06 1.68-.52 1.53-3.19.83-2.94-1.35a1.86 1.86 0 1 0 3.57.69ZM55.52 34.1a.48.48 0 0 0 .58-.32.58.58 0 0 0-1.11-.29.59.59 0 0 1 .17 0c.29.07.48.29.43.48a.16.16 0 0 1-.07.11M29.96 36.79c-.1.14-.17.21 0 0ZM31.59 37.66l-.08.1c-.52.54 0 .17.08-.1Z"/><path fill="#1D1D1B" d="M63.419 49.34c-6.52.52-11.09-1.55-12.75-3.51a5.78 5.78 0 0 1-1.37-5.23c.14-.51.19-.72 1.24-1.87.83-.731 1.758-1.34 2.76-1.81a6.82 6.82 0 0 0 3.23.81c.01.5-.13.99-.4 1.41a3.67 3.67 0 0 0 1.96-2.48 3.64 3.64 0 0 0-1.24-3.53c-.48-.43-1-2.42-1.51-3.17s-6-6.55-12.46-4.38c-5.9 2-9.35 7.13-12.53 10.81l-.29.34.8.93c.8-.33.88-.19.78 0 1-1 3.53-4.12 4.61-5.22a14 14 0 0 1 8.81-4.35 13.31 13.31 0 0 0-4-.09c3.76-2.5 9-2.29 13.37 2 1.48 1.46 1.07 2.15 1.59 2.61 1.73 1.67 1.48 3.06.79 3.86a14.332 14.332 0 0 1-1.87-1.18 7.6 7.6 0 0 0-5.07.68 5.69 5.69 0 0 0-2.1 3.1c-.42 1.6-1.06 4.18 2.56 8 0 0 3.52 4.2 12.37 3.55 2.43-.18 3.3-1.08 5.13-2l1.19-.74c-1.64.35-3.26 1.21-5.56 1.38M29.68 36.34l.33.38c.17-.26.36-.68-.33-.38Z"/><path fill="#1D1D1B" d="M13.47 0c.2.76.38 1.51.57 2.27 1 3.95 2 8 3.35 12 2.85 8.42 8.13 16.31 16.59 24.83l.25.25c.5.51 1 1 1.4 1.48 3.44 4 3.44 4.37.07 8.5a15.61 15.61 0 0 0-3.61 8.85 16.4 16.4 0 0 1 2.56-10.31c2-3.32 1.69-5.21-1.33-7.8-7.68-6.55-13.16-12.74-17.23-19.44-2.6-4.28-5.15-9.49-4.36-15.63a12.1 12.1 0 0 1 1.74-5Z"/><mask id="mask0_767_4404" width="22" height="20" x="10" y="44" maskUnits="userSpaceOnUse" style="mask-type:luminance"><path fill="#fff" d="m10.61 56.64 7.33-3.55c.26 3.78.75 10.78.75 10.78s2.5-7.58 4.67-10.93a22.07 22.07 0 0 1 8.58-8c-8.53 1-15.73 4.45-21.33 11.73"/></mask><g fill="#B1B1B1" mask="url(#mask0_767_4404)"><path d="M22.41 48.43a.52.52 0 1 1 .64-.37.53.53 0 0 1-.64.37ZM16.79 51.78a.522.522 0 0 1-.21-.894.52.52 0 1 1 .21.895ZM17.41 53.04a.53.53 0 0 1 .27-1 .54.54 0 0 1 .37.65.53.53 0 0 1-.64.37M18.64 55a.52.52 0 0 1-.125-.954.53.53 0 0 1 .395-.055.519.519 0 0 1 .149.974.519.519 0 0 1-.419.026M19.63 56.28a.53.53 0 0 1 .067-1.034.52.52 0 0 1 .204.014.53.53 0 0 1-.27 1M20.62 57.19a.522.522 0 1 1 .27-1.01.53.53 0 0 1 .37.65.52.52 0 0 1-.64.36ZM23.01 49.87a.52.52 0 1 1 .65-.37.54.54 0 0 1-.65.37ZM23.94 51.32a.52.52 0 1 1 .64-.37.53.53 0 0 1-.64.37ZM21.09 49.48a.689.689 0 1 1 .346-1.333.689.689 0 0 1-.345 1.334ZM19.47 50.351a.69.69 0 1 1 .84-.49.68.68 0 0 1-.84.49ZM17.99 51.09a.61.61 0 0 1-.43-.74.6.6 0 0 1 .74-.42.61.61 0 0 1 .43.74.602.602 0 0 1-.74.42ZM18.62 52.461a.6.6 0 0 1-.42-.74.591.591 0 0 1 .73-.42.61.61 0 0 1 .43.74.6.6 0 0 1-.74.42ZM19.41 53.67a.61.61 0 0 1-.43-.74.61.61 0 0 1 1.17.31.61.61 0 0 1-.74.43ZM20.25 54.87a.6.6 0 0 1 .31-1.16.62.62 0 0 1 .43.74.6.6 0 0 1-.74.42ZM21.2 55.87a.6.6 0 0 1-.42-.74.591.591 0 0 1 .94-.316.601.601 0 0 1-.52 1.056ZM20.09 51.73a.69.69 0 1 1 .36-1.33.69.69 0 1 1-.36 1.33ZM20.92 53.06a.69.69 0 1 1 .286-1.35.69.69 0 0 1-.286 1.35ZM21.93 54.28a.69.69 0 0 1-.49-.85.694.694 0 1 1 .49.85ZM21.78 51.09a.68.68 0 1 1 .367-1.31.68.68 0 0 1-.367 1.31ZM22.85 52.67a.691.691 0 1 1 .348-1.337.691.691 0 0 1-.347 1.337ZM28.34 45.98a.233.233 0 1 1 .262-.345.221.221 0 0 1 .019.175.229.229 0 0 1-.28.17ZM27.39 46.26a.27.27 0 0 1-.18-.32.26.26 0 0 1 .32-.18.24.24 0 0 1 .18.31.27.27 0 0 1-.32.19ZM26.52 46.55a.29.29 0 1 1 .157-.557.29.29 0 0 1-.157.558ZM14.56 53.13a.29.29 0 0 1-.21-.36.28.28 0 0 1 .36-.21.295.295 0 0 1-.15.57ZM13.54 53.96a.26.26 0 1 1 .13-.5.27.27 0 0 1 .19.32.26.26 0 0 1-.32.18ZM14.01 54.87a.28.28 0 0 1-.19-.32.27.27 0 0 1 .413-.146.259.259 0 0 1 .097.276.27.27 0 0 1-.32.19ZM15.09 54.26a.298.298 0 0 1-.216-.269.3.3 0 0 1 .017-.12.3.3 0 0 1 .37-.21.29.29 0 0 1 .157.465.3.3 0 0 1-.317.104M18.56 58.87a.295.295 0 0 1 .15-.57.3.3 0 0 1 .21.36.28.28 0 0 1-.36.21ZM19.73 59.871a.31.31 0 0 1-.21-.37.29.29 0 0 1 .36-.21.31.31 0 0 1 .161.475.291.291 0 0 1-.31.105ZM19.16 59.39a.29.29 0 0 1-.21-.36.31.31 0 0 1 .37-.21.292.292 0 0 1 .219.245.29.29 0 0 1-.009.115.31.31 0 0 1-.37.21ZM25.641 46.92a.36.36 0 0 1-.086-.654.352.352 0 0 1 .516.395.36.36 0 0 1-.43.26ZM24.71 47.27a.39.39 0 0 1-.27-.47.4.4 0 0 1 .48-.27.4.4 0 0 1 .27.47.39.39 0 0 1-.48.27ZM15.63 52.38a.4.4 0 0 1-.27-.47.37.37 0 0 1 .47-.27.36.36 0 0 1 .27.46.38.38 0 0 1-.47.28ZM16.3 53.71a.38.38 0 0 1-.27-.47.383.383 0 1 1 .27.47ZM18.48 56.92a.378.378 0 0 1-.27-.47.37.37 0 0 1 .47-.27.39.39 0 0 1 .27.47.4.4 0 0 1-.47.27ZM19.28 57.761a.39.39 0 0 1-.27-.47.383.383 0 1 1 .74.2.39.39 0 0 1-.47.27ZM20.09 58.55a.4.4 0 0 1-.27-.47.378.378 0 0 1 .47-.27.36.36 0 0 1 .27.46.379.379 0 0 1-.47.28ZM23.591 47.87a.469.469 0 1 1 .25-.9.46.46 0 0 1 .248.736.47.47 0 0 1-.498.165ZM24.09 49.05a.47.47 0 1 1 .57-.33.46.46 0 0 1-.57.33ZM24.84 50.31a.47.47 0 1 1 .245-.908.47.47 0 0 1-.245.908ZM25.09 48.34a.39.39 0 0 1-.093-.707.37.37 0 0 1 .293-.032.378.378 0 0 1 .088.696.4.4 0 0 1-.288.044ZM25.71 49.421a.39.39 0 0 1-.27-.47.39.39 0 0 1 .75.2.39.39 0 0 1-.48.27ZM25.95 47.87a.35.35 0 0 1-.25-.43.36.36 0 1 1 .69.18.36.36 0 0 1-.44.25ZM26.43 48.71a.351.351 0 1 1 .18-.68.351.351 0 1 1-.18.68ZM26.781 47.34a.3.3 0 0 1-.21-.36.299.299 0 0 1 .37-.21.29.29 0 0 1 .158.466.3.3 0 0 1-.318.105ZM27.16 48.07a.291.291 0 0 1-.21-.36.28.28 0 0 1 .36-.21.289.289 0 0 1 .21.36.3.3 0 0 1-.36.21ZM27.88 47.46a.27.27 0 0 1-.19-.32.26.26 0 0 1 .5.14.25.25 0 0 1-.31.18ZM27.6 46.87a.25.25 0 0 1-.18-.31.256.256 0 0 1 .21-.186.255.255 0 0 1 .286.218.253.253 0 0 1-.007.099.24.24 0 0 1-.31.18ZM28.66 46.871a.24.24 0 0 1-.16-.29.233.233 0 1 1 .34.264.24.24 0 0 1-.18.026ZM29.271 45.73a.19.19 0 0 1-.14-.24.19.19 0 0 1 .24-.14.21.21 0 0 1 .14.24.2.2 0 0 1-.24.14ZM12.981 55.39a.2.2 0 0 1 .1-.38.19.19 0 0 1 .14.24.2.2 0 0 1-.24.14ZM18.65 60.64a.21.21 0 0 1-.14-.24.2.2 0 0 1 .317-.105.191.191 0 0 1 .063.205.188.188 0 0 1-.09.122.191.191 0 0 1-.15.018ZM19.351 61.19a.19.19 0 0 1-.14-.24.21.21 0 0 1 .24-.14.21.21 0 0 1 .14.25.2.2 0 0 1-.24.13ZM12.64 54.79a.192.192 0 0 1-.147-.163.19.19 0 0 1 .007-.077.19.19 0 0 1 .24-.14.2.2 0 0 1 .05.363.19.19 0 0 1-.15.017ZM29.46 46.28a.21.21 0 0 1-.14-.24.19.19 0 0 1 .24-.14.19.19 0 0 1 .14.24.19.19 0 0 1-.24.14ZM30.91 45.3a.08.08 0 0 1-.025-.088.08.08 0 0 1 .076-.054.08.08 0 0 1 .075.054.08.08 0 0 1-.025.089.09.09 0 0 1-.1 0ZM11.01 56.371a.08.08 0 0 1-.06-.1.09.09 0 0 1 .1 0 .079.079 0 0 1 .074.01.08.08 0 0 1 .034.065.08.08 0 0 1-.108.075M18.76 63.391a.08.08 0 0 1-.062-.068.078.078 0 0 1 .002-.032.08.08 0 0 1 .1 0 .08.08 0 0 1 0 .15M30.14 45.45a.13.13 0 0 1-.081-.183.13.13 0 0 1 .241.094.13.13 0 0 1-.16.09ZM11.95 55.94a.13.13 0 0 1-.091-.188.13.13 0 0 1 .207-.031.13.13 0 0 1 .024.15.13.13 0 0 1-.16.09M11.75 55.57a.13.13 0 1 1 .152-.19.12.12 0 0 1 .008.1.13.13 0 0 1-.16.09ZM18.67 62.11a.13.13 0 0 1 .07-.25.12.12 0 0 1 .098.11.12.12 0 0 1-.008.05.13.13 0 0 1-.16.09ZM19.09 62.39a.13.13 0 0 1-.037-.236.13.13 0 0 1 .19.062.13.13 0 0 1 .007.075.14.14 0 0 1-.16.1ZM30.25 45.801a.14.14 0 0 1-.09-.17.14.14 0 0 1 .16-.09.13.13 0 0 1 .09.16.14.14 0 0 1-.16.1Z"/></g><mask id="mask1_767_4404" width="34" height="18" x="0" y="39" maskUnits="userSpaceOnUse" style="mask-type:luminance"><path fill="#fff" d="M0 41.62v.52l10.42 1.11-7.2 13.62s8.73-7.3 13.87-9.73a31.48 31.48 0 0 1 16.43-3.27 45.868 45.868 0 0 0-19.62-4.71c-4.736.02-9.436.838-13.9 2.42"/></mask><g fill="#00833E" mask="url(#mask1_767_4404)"><path d="M17.17 40.87a.69.69 0 1 1 1-.95.7.7 0 0 1 0 1 .693.693 0 0 1-1 0M17.09 42.76a.7.7 0 1 1 1 0 .69.69 0 0 1-1 0ZM16.94 44.53a.689.689 0 1 1 1-.94.692.692 0 0 1 0 1 .69.69 0 0 1-1 0M19.011 43.3a.688.688 0 0 1 0-1 .691.691 0 0 1 1 0 .707.707 0 0 1-1 1ZM19.03 45.6a.69.69 0 1 1 1-.95.69.69 0 0 1-1 .95ZM19.34 40.99a.7.7 0 1 1 1 0 .69.69 0 0 1-1 0ZM14.65 43.04a.79.79 0 0 1 .857-1.291c.095.04.181.098.254.171A.79.79 0 1 1 14.61 43M14.85 40.68a.79.79 0 1 1 1.11 0 .78.78 0 0 1-1.11 0ZM14.65 45.18a.79.79 0 0 1 .857-1.292.78.78 0 0 1 .254.172.79.79 0 1 1-1.15 1.08M14.9 47.4a.79.79 0 0 1 .857-1.29.78.78 0 0 1 .254.17.79.79 0 1 1-1.15 1.08M17.03 46.36a.69.69 0 1 1 1-.94.69.69 0 0 1 0 1 .69.69 0 0 1-1 0M12.93 48.81a.69.69 0 1 1 .97-.982.69.69 0 0 1-.97.983ZM12.591 46.87a.691.691 0 0 1 0-1 .69.69 0 0 1 1 0 .707.707 0 1 1-1 1ZM10.341 46.12a.69.69 0 0 1 0-1 .69.69 0 0 1 .95 1 .691.691 0 0 1-1 0M10.34 42.72a.71.71 0 0 1 0-1 .69.69 0 0 1 1 0 .69.69 0 0 1 0 1 .701.701 0 0 1-1 0ZM10.52 40.68a.71.71 0 0 1 0-1 .69.69 0 0 1 .94 1 .7.7 0 0 1-1 0M10.56 48.22a.69.69 0 0 1 0-1 .69.69 0 0 1 1 0 .698.698 0 0 1 0 1 .69.69 0 0 1-1 0ZM11.091 50.13a.69.69 0 0 1 0-1 .69.69 0 0 1 1 0 .692.692 0 0 1 0 1 .7.7 0 0 1-1 0ZM12.461 44.87a.69.69 0 1 1 1.002-.951.69.69 0 0 1-1.002.952ZM12.46 42.79a.69.69 0 0 1 0-1 .688.688 0 0 1 1 0 .707.707 0 1 1-1 1ZM12.68 40.72a.71.71 0 0 1 0-1 .707.707 0 1 1 .772 1.156.7.7 0 0 1-.771-.155ZM28.361 42.49a.318.318 0 0 1-.072-.355.332.332 0 1 1 .532.375.32.32 0 0 1-.47 0M27.01 42.12a.369.369 0 0 1-.07-.406.37.37 0 1 1 .07.407ZM25.721 41.81a.41.41 0 0 1 0-.59.43.43 0 0 1 .693.135.41.41 0 0 1-.093.456.43.43 0 0 1-.6 0ZM6.782 40.66a.41.41 0 0 1 0-.59.43.43 0 0 1 .692.135.41.41 0 0 1-.092.455.43.43 0 0 1-.6 0ZM4.911 40.87a.372.372 0 0 1 .55-.5.37.37 0 0 1 0 .52.38.38 0 0 1-.53 0M4.78 42.39a.38.38 0 0 1 .55-.51.38.38 0 0 1-.55.51ZM6.59 42.44a.41.41 0 0 1 0-.59.43.43 0 0 1 .693.135.41.41 0 0 1-.093.456.43.43 0 0 1-.6 0ZM7.321 50.57a.42.42 0 1 1 .6 0 .43.43 0 0 1-.6 0ZM7.94 52.73a.43.43 0 0 1 .135-.692.41.41 0 0 1 .455.092.43.43 0 0 1-.134.693.41.41 0 0 1-.456-.093ZM7.63 51.71a.42.42 0 1 1 .59 0 .41.41 0 0 1-.59 0ZM24.39 41.59a.5.5 0 0 1 0-.71.52.52 0 0 1 .7-.01.51.51 0 0 1-.355.869.5.5 0 0 1-.355-.148M23 41.33a.56.56 0 0 1 0-.78.55.55 0 0 1 .936.386.53.53 0 0 1-.166.385.54.54 0 0 1-.77 0M8.641 40.56a.545.545 0 1 1 .8-.74.54.54 0 0 1 0 .77.55.55 0 0 1-.78 0M8.441 42.69a.56.56 0 0 1 0-.78.55.55 0 0 1 .89.176.54.54 0 0 1-.12.594.551.551 0 0 1-.78 0M8.661 48.2a.55.55 0 0 1 0-.77.546.546 0 0 1 .915.421.545.545 0 0 1-.175.379.55.55 0 0 1-.77 0M9 49.87a.54.54 0 1 1 .77-.757.54.54 0 0 1-.77.758ZM9.43 51.42a.552.552 0 1 1 .81-.75.552.552 0 0 1-.81.75ZM21.21 41.18a.66.66 0 0 1 0-.94.68.68 0 0 1 .95 0 .66.66 0 0 1 0 .94.661.661 0 0 1-.94 0M20.91 43.01a.676.676 0 1 1 1-.91.676.676 0 0 1-1 .91ZM20.861 45.09a.68.68 0 0 1 0-.95.66.66 0 0 1 .94 0 .66.66 0 0 1 0 .94.68.68 0 0 1-1 0M22.66 42.87a.56.56 0 0 1 0-.78.55.55 0 0 1 .936.386.53.53 0 0 1-.166.385.54.54 0 0 1-.77 0M22.59 44.68a.55.55 0 0 1 .603-.892.54.54 0 0 1 .178.123.545.545 0 0 1-.8.74M24.091 42.93a.5.5 0 0 1 .36-.855.52.52 0 0 1 .36.145.51.51 0 1 1-.74.69M23.99 44.36a.52.52 0 0 1 0-.72.51.51 0 0 1 .868.355.5.5 0 0 1-.31.464.5.5 0 0 1-.547-.109M25.45 42.97a.42.42 0 1 1 .6 0 .43.43 0 0 1-.6 0ZM25.35 44.13a.42.42 0 1 1 .6 0 .43.43 0 0 1-.6 0ZM26.681 43.94a.372.372 0 0 1 .54-.51.37.37 0 0 1 0 .52.37.37 0 0 1-.52 0M26.79 43.02a.37.37 0 1 1 .54-.51.37.37 0 0 1 0 .52.37.37 0 0 1-.52 0M28.09 43.79a.34.34 0 0 1 0-.47.33.33 0 0 1 .47 0 .32.32 0 0 1 0 .46.331.331 0 0 1-.47 0M29.67 42.87a.28.28 0 1 1 .387-.404.28.28 0 0 1-.387.404ZM3.171 42.2a.27.27 0 0 1 0-.39.28.28 0 1 1 .38.41.27.27 0 0 1-.39 0M6.091 52.87a.27.27 0 0 1 0-.39.283.283 0 1 1 .19.49.29.29 0 0 1-.2-.08M6.49 54.03a.28.28 0 1 1 .399-.39.28.28 0 0 1-.399.39ZM3.2 41.22a.283.283 0 1 1 .42-.38.283.283 0 0 1-.42.38ZM29.491 43.7a.269.269 0 0 1 0-.39.28.28 0 1 1 .38.41.271.271 0 0 1-.39 0M31.97 43.61a.112.112 0 0 1-.034-.08.11.11 0 0 1 .034-.08.12.12 0 0 1 .16 0 .121.121 0 0 1 .026.131.123.123 0 0 1-.062.065.11.11 0 0 1-.124-.026M.09 41.87a.11.11 0 0 1 .02-.167.11.11 0 1 1-.02.167ZM4.09 56.24a.12.12 0 1 1 .16 0 .11.11 0 0 1-.123.026.11.11 0 0 1-.036-.025ZM30.93 43.21a.19.19 0 0 1 0-.26.19.19 0 0 1 .27 0 .19.19 0 0 1 0 .26.19.19 0 0 1-.27 0ZM1.51 42.1a.18.18 0 0 1 0-.26.171.171 0 0 1 .202-.044c.023.01.043.026.059.045a.184.184 0 0 1-.27.25M1.55 41.5a.18.18 0 1 1 .26-.248.18.18 0 0 1-.26.249ZM4.981 54.62a.19.19 0 0 1 0-.26.19.19 0 0 1 .26.27.191.191 0 0 1-.208.042.191.191 0 0 1-.062-.041M5.22 55.23a.18.18 0 1 1 .26-.249.18.18 0 0 1-.26.25ZM30.81 43.71a.18.18 0 1 1 .26-.248.18.18 0 0 1-.26.249Z"/></g><mask id="mask2_767_4404" width="24" height="14" x="7" y="28" maskUnits="userSpaceOnUse" style="mask-type:luminance"><path fill="#fff" d="m16.72 32.97-9.19 5.76s7.89-1.37 11.89-1a22.1 22.1 0 0 1 11.17 3.79c-4.93-7.08-11.38-11.84-20.5-13.37l6.61 4.82"/></mask><g fill="#CE0E2D" mask="url(#mask2_767_4404)"><path d="M22.96 34.73a.53.53 0 0 1 1-.24.53.53 0 0 1-.605.639.522.522 0 0 1-.425-.399M17.33 31.33a.52.52 0 0 1 .39-.63.53.53 0 0 1 .64.39.53.53 0 1 1-1 .24M16.51 32.47a.53.53 0 1 1 1.034-.235.53.53 0 0 1-1.035.235ZM15.35 34.5a.53.53 0 1 1 .63.39.52.52 0 0 1-.63-.39ZM14.69 35.97a.52.52 0 1 1 1.018-.211.52.52 0 0 1-1.017.212ZM14.34 37.29a.53.53 0 0 1 1-.24.519.519 0 0 1-.39.63.53.53 0 0 1-.64-.39M21.96 35.96a.518.518 0 0 1 .36-.7.52.52 0 0 1 .64.46.519.519 0 0 1-.39.63.519.519 0 0 1-.63-.39M21.09 37.45a.53.53 0 0 1 .605-.638.52.52 0 0 1 .425.398.531.531 0 1 1-1 .24M21.39 34.01a.668.668 0 0 1 .51-.82.69.69 0 1 1-.51.82ZM19.87 33.03a.691.691 0 1 1 1.346-.313.691.691 0 0 1-1.346.314ZM18.51 32.07a.61.61 0 0 1 .915-.65.6.6 0 0 1 .264.38.61.61 0 0 1-1.18.27ZM17.6 33.28a.599.599 0 0 1 .45-.73.61.61 0 1 1 .27 1.18.6.6 0 0 1-.72-.45ZM16.9 34.55a.611.611 0 1 1 1.196-.042.61.61 0 0 1-.92.416.599.599 0 0 1-.267-.374M16.22 35.87a.61.61 0 0 1 .45-.73.611.611 0 0 1 .73.46.61.61 0 0 1-1.18.27ZM15.77 37.19a.59.59 0 0 1 .45-.72.61.61 0 0 1 .73.45.61.61 0 0 1-.917.651.6.6 0 0 1-.264-.38ZM18.95 34.25a.691.691 0 0 1 1.04-.739.7.7 0 0 1 .31.43.693.693 0 1 1-1.35.31ZM18.149 35.6a.691.691 0 0 1 .52-.83.681.681 0 0 1 .83.51.69.69 0 0 1-1.041.75.7.7 0 0 1-.31-.43ZM17.55 37.07a.7.7 0 0 1 .52-.83.69.69 0 1 1-.52.83ZM20.31 35.43a.672.672 0 0 1 .51-.82.69.69 0 0 1 .83.51.7.7 0 0 1-.52.83.69.69 0 0 1-.82-.52ZM19.41 37.13a.691.691 0 1 1 1.35-.26.693.693 0 0 1-1.35.31M27.94 38.87a.24.24 0 0 1 .454-.15.24.24 0 1 1-.454.15ZM27.25 38.12a.26.26 0 0 1 .19-.31.28.28 0 0 1 .32.2.262.262 0 0 1-.2.31.26.26 0 0 1-.31-.2ZM26.57 37.49a.3.3 0 0 1 .22-.36.29.29 0 0 1 .36.22.3.3 0 0 1-.58.14ZM15.09 29.99a.31.31 0 0 1 .23-.36.3.3 0 0 1 .13.58.3.3 0 0 1-.36-.22ZM13.86 29.48a.26.26 0 0 1 .2-.31.249.249 0 0 1 .31.19.28.28 0 0 1-.2.32.26.26 0 0 1-.31-.2ZM13.259 30.34a.26.26 0 0 1 .19-.32.28.28 0 0 1 .32.2.262.262 0 0 1-.107.27.259.259 0 0 1-.093.04.249.249 0 0 1-.31-.19ZM14.34 31.01a.3.3 0 0 1 .22-.36.31.31 0 0 1 .367.345.279.279 0 0 1-.227.235.3.3 0 0 1-.36-.22ZM11.92 36.23a.302.302 0 1 1 .589-.13.302.302 0 0 1-.59.13ZM11.53 37.77a.302.302 0 1 1 .59-.13.302.302 0 0 1-.59.13ZM11.709 37.03a.289.289 0 0 1 .22-.35.3.3 0 0 1 .14.58.292.292 0 0 1-.316-.119.29.29 0 0 1-.044-.11ZM25.83 36.87a.36.36 0 1 1 .43.27.37.37 0 0 1-.43-.27ZM25.09 36.23a.38.38 0 0 1 .29-.46.38.38 0 0 1 .46.29.38.38 0 0 1-.29.46.38.38 0 0 1-.46-.29ZM16.259 30.59a.388.388 0 0 1 .27-.526.39.39 0 0 1 .48.346.381.381 0 0 1-.29.46.38.38 0 0 1-.46-.28ZM15.39 31.81a.38.38 0 0 1 .29-.46.381.381 0 0 1 .46.29.384.384 0 1 1-.75.17ZM13.58 35.26a.381.381 0 0 1 .575-.412.392.392 0 0 1 .18.393.38.38 0 0 1-.296.31.381.381 0 0 1-.46-.29ZM13.21 36.37a.389.389 0 0 1 .29-.47.4.4 0 0 1 .46.29.389.389 0 0 1-.581.422.381.381 0 0 1-.17-.242ZM12.91 37.49a.39.39 0 0 1 .76-.17.39.39 0 0 1-.76.17ZM24.09 35.51a.469.469 0 0 1 .706-.509.472.472 0 0 1-.146.86.47.47 0 0 1-.56-.35ZM23.21 36.52a.46.46 0 0 1 .35-.56.469.469 0 0 1 .51.707.472.472 0 0 1-.86-.146ZM22.449 37.77a.47.47 0 0 1 .708-.503.47.47 0 1 1-.5.798.472.472 0 0 1-.208-.294ZM24.32 37.07a.39.39 0 0 1 .28-.46.392.392 0 0 1 .49.26.38.38 0 0 1-.29.46.38.38 0 0 1-.46-.29M23.65 38.13a.381.381 0 0 1 .28-.46.39.39 0 1 1 .18.75.381.381 0 0 1-.46-.29ZM25.17 37.59a.358.358 0 0 1 .264-.456.36.36 0 1 1-.264.457ZM24.62 38.43a.36.36 0 0 1 .26-.43.36.36 0 0 1 .435.408.353.353 0 0 1-.694.022ZM26 38.1a.292.292 0 0 1 .113-.313.291.291 0 0 1 .107-.047.3.3 0 1 1-.22.36ZM25.53 38.77a.3.3 0 0 1 .22-.36.299.299 0 0 1 .36.23.282.282 0 0 1-.114.307.282.282 0 0 1-.106.044.29.29 0 0 1-.36-.22ZM26.409 39.12a.26.26 0 0 1 .388-.278.27.27 0 0 1 .122.159.26.26 0 0 1-.2.31.249.249 0 0 1-.31-.19ZM26.8 38.59a.27.27 0 0 1 .19-.31.28.28 0 0 1 .32.2.259.259 0 0 1-.2.31.25.25 0 0 1-.31-.2ZM27.32 39.53a.25.25 0 0 1 .18-.28.231.231 0 1 1 .11.45.24.24 0 0 1-.29-.17ZM28.6 39.53a.19.19 0 0 1 .15-.23.2.2 0 1 1-.15.23ZM12.33 29.66a.21.21 0 0 1 .15-.24.2.2 0 0 1 .214.301.2.2 0 0 1-.124.09.21.21 0 0 1-.24-.15ZM10.36 37.17a.19.19 0 0 1 .15-.23.2.2 0 0 1 .09.38.19.19 0 0 1-.24-.15ZM10.2 38.05a.19.19 0 0 1 .14-.23.191.191 0 0 1 .209.07.201.201 0 0 1-.047.278.2.2 0 0 1-.147.035.191.191 0 0 1-.154-.153ZM12.7 29.07a.19.19 0 0 1 .15-.23.2.2 0 0 1 .283.223.198.198 0 0 1-.193.157.201.201 0 0 1-.208-.078.201.201 0 0 1-.032-.072ZM28.21 39.97a.2.2 0 1 1 .39-.093.2.2 0 0 1-.39.093ZM29.759 40.79a.078.078 0 0 1 .008-.063.08.08 0 0 1 .052-.037.08.08 0 0 1 .09.06.079.079 0 0 1-.008.063.078.078 0 0 1-.052.037.08.08 0 0 1-.09-.06ZM10.53 28.38a.08.08 0 0 1 .06-.1.09.09 0 0 1 .1.06.08.08 0 0 1-.16 0M7.97 38.57a.08.08 0 0 1 .06-.1.08.08 0 0 1 .09.06.08.08 0 0 1-.06.1.08.08 0 0 1-.09-.06ZM29.26 40.181a.14.14 0 0 1 .1-.16.134.134 0 0 1 .162.152.134.134 0 0 1-.102.108.14.14 0 0 1-.16-.1ZM11.36 29.01a.13.13 0 0 1 .1-.16.12.12 0 0 1 .15.1.13.13 0 0 1-.09.16.13.13 0 0 1-.16-.1ZM11.59 28.66a.14.14 0 0 1 .1-.16.132.132 0 0 1 .139.053.134.134 0 0 1 .004.148.133.133 0 0 1-.083.06.14.14 0 0 1-.16-.1ZM9.09 37.87a.133.133 0 0 1 .26-.06.13.13 0 0 1-.1.16.128.128 0 0 1-.102-.015.13.13 0 0 1-.059-.085ZM8.989 38.34a.13.13 0 1 1 .255-.051.13.13 0 0 1-.255.051ZM29.01 40.44a.13.13 0 0 1 .1-.16.118.118 0 0 1 .098.017.122.122 0 0 1 .052.084.13.13 0 0 1-.09.16.13.13 0 0 1-.16-.1Z"/></g><path fill="#A07127" d="M29.83 29.34s-.18.52-.24.66l-.68.14.54.42c0 .16-.08.69-.08.69l.59-.39.65.3-.24-.66.43-.49-.66-.05c-.06-.13-.31-.62-.31-.62ZM27.09 25.11l-.24.66-.68.15.55.43-.09.68.59-.4.65.3-.24-.66.43-.49h-.66c-.06-.14-.31-.62-.31-.62M24.219 20.87s-.18.52-.24.67l-.68.14.54.42c0 .15-.08.68-.08.68l.59-.4.65.3-.23-.67.43-.49h-.66l-.3-.62M21.92 16.24l-.24.66-.68.14.54.42c0 .16-.08.69-.08.69l.59-.39.64.3-.24-.66.43-.49h-.66c-.06-.14-.31-.62-.31-.62M20.03 11.42s-.18.52-.24.66l-.68.14.54.42c0 .15-.08.69-.08.69l.59-.4.65.31-.24-.66.43-.5-.66-.05-.3-.62M18.75 6.55l-.24.66-.68.14.55.42-.09.69.59-.4.65.31-.24-.66.43-.5h-.66c-.06-.13-.31-.62-.31-.62M17.16 1.73l-.23.66-.69.14s.43.32.54.42c.11.1-.08.69-.08.69l.6-.39.64.3-.2-.68.43-.49h-.66l-.31-.62"/></svg>