<?xml version="1.0" encoding="UTF-8"?>
<svg id="Layer_1" data-name="Layer 1" xmlns="http://www.w3.org/2000/svg" version="1.1" xmlns:xlink="http://www.w3.org/1999/xlink" viewBox="0 0 110 31">
  <defs>
    <style>
      .cls-1 {
        fill: none;
      }

      .cls-1, .cls-2, .cls-3 {
        stroke-width: 0px;
      }

      .cls-2 {
        fill: #fff;
      }

      .cls-4 {
        mask: url(#mask);
      }

      .cls-3 {
        fill: #385986;
      }
    </style>
    <mask id="mask" x="-8.5" y="-59.7" width="29.9" height="29.9" maskUnits="userSpaceOnUse">
      <g id="mask0_353_2239" data-name="mask0 353 2239">
        <rect class="cls-1" x="-8.5" y="-59.7" width="28.6" height="28.6"/>
      </g>
    </mask>
  </defs>
  <path class="cls-3" d="M35,1.9l5.5,9.1V1.9h3v13.8h-3.2l-5.5-9.1v9.1h-3V1.9h3.2ZM52.5,15.9c-1.3,0-2.6-.3-3.6-.9-1.1-.6-1.9-1.5-2.5-2.5-.6-1.1-.9-2.3-.9-3.6s.3-2.5.9-3.6c.6-1.1,1.5-1.9,2.5-2.5,1.1-.6,2.3-.9,3.6-.9s2.5.3,3.6.9c1.1.6,1.9,1.4,2.5,2.5.6,1.1.9,2.3.9,3.6s-.3,2.6-.9,3.6c-.6,1.1-1.4,1.9-2.5,2.5-1.1.6-2.3.9-3.6.9ZM52.5,13.3c.8,0,1.5-.2,2.1-.6.6-.4,1.1-.9,1.5-1.6.4-.7.5-1.5.5-2.3s-.2-1.6-.5-2.3c-.3-.7-.8-1.2-1.5-1.6-.6-.4-1.3-.6-2.1-.6s-1.5.2-2.1.6c-.6.4-1.1.9-1.5,1.6-.3.7-.5,1.5-.5,2.3s.2,1.6.5,2.3c.4.7.8,1.2,1.5,1.6.6.4,1.3.6,2.1.6ZM59.6,4.5V1.9h11.1v2.5h-4.1v11.3h-3V4.5h-4.1ZM78.3,12.7h-5l-1.1,3h-3.1l5.2-13.8h2.8l5.2,13.8h-3.1l-1.1-3ZM77.4,10.2l-1.6-4.5-1.6,4.5h3.2ZM94.4,15.7h-3l-.4-3.4c0-.5-.2-.9-.6-1.1-.3-.3-.7-.5-1.1-.5h-2.7v5h-3V1.9h5.8c1,0,1.8.2,2.5.6.7.4,1.2.9,1.6,1.5.4.7.6,1.4.6,2.2s-.2,1.2-.5,1.7c-.3.5-.7.9-1.3,1.1.4.3.8.7,1.1,1.2.3.5.4,1,.5,1.6l.4,3.8ZM86.7,8.2h2.7c.6,0,1.1-.2,1.5-.6.3-.4.5-.8.5-1.4s-.2-1-.5-1.3c-.3-.4-.8-.5-1.5-.5h-2.7v3.8ZM94.3,1.9h3.2l3,5.3,3-5.3h3.2l-4.7,8.1v5.7h-3v-5.7l-4.7-8.1Z"/>
  <path class="cls-3" d="M50.6,25.7c-.6,0-1.2-.2-1.6-.5-.4-.4-.6-.8-.6-1.4h.7c0,.4.2.7.5,1,.3.2.6.4,1.1.4s.8,0,1-.2c.3-.2.4-.4.4-.8s0-.4-.3-.6c-.2-.2-.4-.3-.6-.3-.2,0-.5-.2-.8-.2-.3,0-.6-.2-.8-.3s-.5-.3-.6-.5c-.2-.2-.2-.5-.2-.8s.2-.8.5-1.1c.4-.3.8-.4,1.4-.4s1.1.2,1.4.5c.4.3.6.7.6,1.2h-.7c0-.3-.2-.6-.4-.8-.2-.2-.6-.3-1-.3s-.7,0-.9.2c-.2.2-.3.4-.3.7s0,.4.2.5c.1.1.3.2.5.3.2,0,.4.1.7.2.2,0,.5.1.7.2.2,0,.5.2.7.3.2.1.4.3.5.5.1.2.2.5.2.8,0,.5-.2.9-.6,1.2-.4.3-.9.4-1.5.4ZM54.3,25.6v-5.8h3.6v.6h-2.9v1.9h2.4v.6h-2.4v2h3v.6h-3.7ZM62.6,22.9c.5.3.7.7.8,1.3v1.4c0,0-.6,0-.6,0v-1.4c-.1-.3-.2-.5-.4-.7-.2-.2-.4-.3-.7-.3h-1.6v2.4h-.7v-5.8h2.2c.6,0,1,.2,1.4.5.3.3.5.7.5,1.2s-.3,1.1-.9,1.4ZM60.2,20.4v2.2h1.5c.4,0,.7-.1.8-.3.2-.2.3-.5.3-.8s0-.6-.3-.8c-.2-.2-.5-.3-.8-.3h-1.5ZM67.2,25.6l-2.2-5.8h.7l1.8,5,1.8-5h.7l-2.2,5.8h-.7ZM71.5,25.6v-5.8h.7v5.8h-.7ZM76.7,25.7c-.8,0-1.4-.3-2-.8-.5-.5-.8-1.3-.8-2.2s0-.9.2-1.3c.2-.4.4-.7.6-.9.3-.2.6-.4.9-.5.3-.1.7-.2,1.1-.2.6,0,1.2.2,1.6.5.5.3.7.8.8,1.4h-.7c0-.4-.3-.7-.6-.9-.3-.2-.7-.3-1.1-.3s-1.1.2-1.5.6c-.4.4-.6,1-.6,1.7s.2,1.3.6,1.7c.4.4.9.6,1.5.6s.8-.1,1.2-.3c.3-.2.5-.5.6-.9h.7c0,.6-.3,1-.8,1.4-.5.3-1,.5-1.7.5ZM80.7,25.6v-5.8h3.6v.6h-2.9v1.9h2.4v.6h-2.4v2h3v.6h-3.7ZM88,25.7c-.6,0-1.2-.2-1.6-.5-.4-.4-.6-.8-.6-1.4h.7c0,.4.2.7.5,1,.3.2.6.4,1.1.4s.8,0,1-.2c.3-.2.4-.4.4-.8s0-.4-.3-.6c-.2-.2-.4-.3-.6-.3-.2,0-.5-.2-.8-.2-.3,0-.6-.2-.8-.3-.2,0-.5-.3-.6-.5-.2-.2-.2-.5-.2-.8s.2-.8.5-1.1c.4-.3.8-.4,1.4-.4s1.1.2,1.4.5c.4.3.6.7.6,1.2h-.7c0-.3-.2-.6-.4-.8-.2-.2-.6-.3-1-.3s-.7,0-.9.2c-.2.2-.3.4-.3.7s0,.4.2.5c.1.1.3.2.5.3.2,0,.4.1.7.2.2,0,.5.1.7.2.2,0,.5.2.7.3.2.1.4.3.5.5.1.2.2.5.2.8,0,.5-.2.9-.6,1.2-.4.3-.9.4-1.5.4Z"/>
  <g class="cls-4">
    <rect class="cls-3" x="-8.2" y="-59.4" width="29.6" height="29.6"/>
  </g>
  <path class="cls-2" d="M-221.9-5.3h46v46h-46V-5.3ZM-191.6-.5c0,0,0,.2,0,.2,0,2,0,4.1,0,6.1,0,0,0,.1,0,.2,0,.4.3.7.7.7.4,0,.7-.4.7-.7,0,0,0,0,0-.1,0-2.3,0-4.7,0-7,0,0,0-.1,0-.2,0-.3-.3-.6-.6-.6,0,0-.2,0-.3,0-5.4,0-10.8,0-16.1,0,0,0-.1,0-.2,0-.2,0-.4,0-.5.2-.1.1-.3.2-.4.3-3.2,2.8-6.4,5.6-9.6,8.4-.2.2-.4.3-.6.5-.2.1-.3.3-.3.6,0,0,0,0,0,.1,0,9.4,0,18.8,0,28.3,0,0,0,.1,0,.2,0,.3.3.6.6.6,0,0,.1,0,.2,0,12.7,0,25.4,0,38.1,0,0,0,.1,0,.2,0,.3,0,.6-.3.6-.7,0-.4-.3-.7-.7-.7,0,0-.2,0-.3,0-12.4,0-24.7,0-37.1,0,0,0-.1,0-.2,0,0,0,0,0,0,0,0,0,0,0,0,0,0-9,0-18,0-27,0,0,0,0,0,0,0,0,.2,0,.2,0,3.2,0,6.3,0,9.5,0,0,0,.2,0,.2,0,.3,0,.6-.3.6-.6,0,0,0-.2,0-.2,0,0,0,0,0-.1,0,0,.2,0,.2,0,.6,0,1.2,0,1.8,0,0,0,.1,0,.2,0,.3,0,.6-.3.6-.6,0-.3-.1-.7-.5-.8,0,0-.2,0-.3,0-.6,0-1.3,0-1.9,0,0,0-.1,0-.2,0,0-.2,0-1.8,0-2.2,0,0,0,0,0-.1,0,0,.2,0,.2,0,2.4,0,4.9,0,7.3,0,0,0,.1,0,.2,0,.4,0,.7-.3.7-.7,0-.4-.3-.7-.7-.7,0,0-.1,0-.2,0-2.4,0-4.9,0-7.3,0,0,0-.1,0-.2,0,0,0,0,0-.1,0,0-.2,0-2.2,0-3,0,0,0,0,0-.1,0,0,0,0,0,0,5,0,10,0,15,0,0,0,0,0,0,0ZM-195.1,8.4s0,0,0,0c-.4-.8-1.1-1.3-2.1-1.3-.9,0-1.9,0-2.8,0-.1,0-.2,0-.4,0-.9.1-1.5.6-1.8,1.5,0,.3-.1.5-.1.8,0,2.2,0,4.3,0,6.5,0,.6,0,1.2,0,1.9,0,.2,0,.4,0,.5.3,1,1.1,1.7,2.2,1.7,1,0,2,0,2.9,0,.2,0,.3,0,.5,0,.7-.2,1.2-.6,1.5-1.2,0,0,0-.1,0-.2.5.1,1.1.2,1.6.3,0,.7.3,1.4.8,1.9,0,0,0,.1,0,.2,0,.4,0,.7,0,1.1,0,1.1,0,2.1,0,3.2,0,1.4,0,2.7-.1,4.1,0,.1,0,.2,0,.4,0,.8,0,1.7,0,2.5,0,.1,0,.3,0,.4.2,1.2,1.4,2.1,2.7,1.9.9-.1,1.7-.8,1.9-1.6,0-.3.1-.5,0-.8,0-1.2,0-2.5-.1-3.7,0-1.1,0-2.1,0-3.2,0-1.4,0-2.8-.1-4.2,0-.1,0-.2.1-.3.4-.5.6-1,.6-1.6,0,0,0,0,0-.1.5-.1,1.1-.2,1.6-.3,0,0,0,0,0,.1.4.8,1.1,1.2,2,1.2,1,0,1.9,0,2.9,0,.1,0,.2,0,.3,0,.9-.1,1.4-.6,1.8-1.4.1-.3.1-.6.1-.9,0-2.8,0-5.5,0-8.3,0,0,0,0,0-.1,0-.8-.3-1.4-1-1.8-.4-.3-.8-.4-1.3-.4-.8,0-1.6,0-2.4,0-.2,0-.4,0-.6,0-.2,0-.3,0-.5,0-.6.2-1.1.6-1.4,1.1,0,0,0,.1,0,.2-2.9-.6-5.9-.6-8.8,0ZM-204.5,25.3c-3.2,0-6.4,0-9.6,0,0,0-.2,0-.2,0-.3,0-.6.3-.7.6,0,.3.1.6.5.7.1,0,.2,0,.3,0,6.4,0,12.9,0,19.3,0,0,0,0,0,.1,0,.4,0,.7-.3.7-.7,0-.4-.3-.7-.7-.7,0,0-.2,0-.2,0-3.2,0-6.4,0-9.6,0ZM-204.5,21.5c-3.2,0-6.4,0-9.6,0,0,0-.2,0-.3,0-.3,0-.6.3-.6.6,0,.3.2.6.5.7,0,0,.2,0,.3,0,6.4,0,12.9,0,19.3,0,0,0,.1,0,.2,0,.4,0,.6-.3.6-.7,0-.3-.3-.7-.7-.7,0,0-.2,0-.2,0-3.2,0-6.4,0-9.6,0ZM-209.4,14c-1.6,0-3.1,0-4.7,0-.1,0-.2,0-.3,0-.3,0-.6.4-.5.7,0,.3.2.6.6.7,0,0,.1,0,.2,0,3.2,0,6.3,0,9.5,0,0,0,.1,0,.2,0,.3,0,.6-.3.6-.7,0-.3-.2-.6-.6-.7,0,0-.2,0-.3,0-1.6,0-3.1,0-4.7,0ZM-209.4,19.1c1.6,0,3.2,0,4.7,0,.1,0,.2,0,.3,0,.3,0,.6-.3.5-.7,0-.3-.3-.6-.6-.6,0,0-.1,0-.2,0-3.2,0-6.3,0-9.5,0,0,0-.1,0-.2,0-.3,0-.6.3-.6.7,0,.4.2.6.5.7,0,0,.2,0,.3,0,1.6,0,3.1,0,4.7,0ZM-209.4,11.6c1.6,0,3.1,0,4.7,0,0,0,.2,0,.2,0,.3,0,.6-.3.6-.6,0-.4-.2-.7-.5-.7-.1,0-.2,0-.3,0-3.1,0-6.3,0-9.4,0,0,0,0,0-.1,0,0,0-.1,0-.2,0-.3,0-.5.4-.5.7,0,.3.3.6.6.6,0,0,.2,0,.2,0,1.6,0,3.1,0,4.7,0Z"/>
  <g>
    <path class="cls-3" d="M19.2,2.8s0,0,0,0c-3,0-6.1,0-9.1,0,0,0,0,0,0,0,0,0,0,0,0,0,0,.5,0,1.7,0,1.8,0,0,0,0,0,0,0,0,0,0,.1,0,1.5,0,2.9,0,4.4,0,0,0,0,0,.1,0,.2,0,.4.2.4.4,0,.2-.2.4-.4.4,0,0,0,0-.1,0-1.5,0-3,0-4.4,0,0,0,0,0-.2,0,0,0,0,0,0,0,0,.3,0,1.2,0,1.4,0,0,0,0,.1,0,.4,0,.8,0,1.2,0,0,0,.1,0,.2,0,.2,0,.3.3.3.5,0,.2-.2.3-.4.4,0,0,0,0-.1,0-.4,0-.7,0-1.1,0,0,0,0,0-.1,0,0,0,0,0,0,0,0,0,0,0,0,.1,0,.2-.2.4-.4.4,0,0,0,0-.1,0-1.9,0-3.8,0-5.7,0,0,0,0,0-.1,0,0,0,0,0,0,0,0,5.4,0,10.9,0,16.3,0,0,0,0,0,0,0,0,0,0,0,0,0,0,0,0,.1,0,7.5,0,15,0,22.5,0,0,0,.1,0,.2,0,.2,0,.4.2.4.4,0,.3-.2.4-.4.4,0,0,0,0,0,0-7.7,0-15.4,0-23.1,0,0,0,0,0-.1,0-.2,0-.3-.2-.4-.4,0,0,0,0,0-.1,0-5.7,0-11.4,0-17.1,0,0,0,0,0,0,0-.1,0-.2.2-.3.1-.1.2-.2.4-.3,1.9-1.7,3.9-3.4,5.8-5.1,0,0,.2-.1.2-.2,0,0,.2-.1.3-.1,0,0,0,0,0,0,3.3,0,6.5,0,9.8,0,0,0,.1,0,.2,0,.2,0,.4.2.4.4,0,0,0,0,0,.1,0,1.4,0,2.8,0,4.2,0,0,0,0,0,0,0,.2-.2.4-.4.4-.2,0-.4-.2-.4-.4,0,0,0,0,0-.1,0-1.2,0-2.5,0-3.7,0,0,0,0,0-.1ZM9.2,3.3c0,0,0,0-.1.1-1.2,1.1-2.5,2.2-3.7,3.3-.3.3-.6.6-1,.8,0,0,0,0,0,0,1.6,0,3.2,0,4.7,0,0,0,0,0,0,0,0,0,0,0,0,0,0,0,0,0,0,0,0,0,0,0,0,0,0-1.4,0-2.8,0-4.2Z"/>
    <path class="cls-3" d="M17.1,8.1c1.8-.4,3.6-.4,5.3,0,0,0,0,0,0-.1.2-.3.5-.6.9-.7,0,0,.2,0,.3,0,.1,0,.2,0,.4,0,.5,0,1,0,1.5,0,.3,0,.6,0,.8.2.4.3.6.6.6,1.1,0,0,0,0,0,0,0,1.7,0,3.3,0,5,0,.2,0,.4,0,.5-.2.5-.6.8-1.1.9,0,0-.1,0-.2,0-.6,0-1.2,0-1.8,0-.5,0-.9-.3-1.2-.7,0,0,0,0,0,0-.3,0-.6.1-1,.2,0,0,0,0,0,0,0,.4-.1.7-.4,1,0,0,0,.1,0,.2,0,.8,0,1.7,0,2.5,0,.6,0,1.3,0,1.9,0,.8,0,1.5,0,2.3,0,.2,0,.3,0,.5-.1.5-.6.9-1.1,1-.8.1-1.5-.4-1.6-1.2,0,0,0-.2,0-.3,0-.5,0-1,0-1.5,0,0,0-.1,0-.2,0-.8,0-1.6,0-2.5,0-.6,0-1.3,0-1.9,0-.2,0-.4,0-.7,0,0,0,0,0-.1-.3-.3-.5-.7-.5-1.2-.3,0-.6-.1-1-.2,0,0,0,0,0,0-.2.4-.5.6-.9.7,0,0-.2,0-.3,0-.6,0-1.2,0-1.8,0-.6,0-1.2-.4-1.3-1,0-.1,0-.2,0-.3,0-.4,0-.8,0-1.1,0-1.3,0-2.6,0-3.9,0-.2,0-.3,0-.5.2-.5.6-.8,1.1-.9,0,0,.1,0,.2,0,.6,0,1.1,0,1.7,0,.6,0,1,.3,1.3.8,0,0,0,0,0,0ZM22.3,13.5s0,0,0,0c0,0,0,0,0,0,0-1.4,0-2.9,0-4.3,0,0,0,0,0,0,0,0,0,0,0,0-.4-.1-.9-.2-1.4-.2-1-.1-2.1,0-3.1,0-.2,0-.5,0-.7.1,0,.1,0,3.5,0,4.4,0,0,0,0,0,0,1.7.4,3.4.4,5.1,0ZM16.3,11.2c0-.8,0-1.6,0-2.5,0,0,0,0,0-.1,0-.2-.2-.4-.4-.5,0,0-.1,0-.2,0-.3,0-.7,0-1,0-.2,0-.5,0-.7,0-.2,0-.5.2-.5.5,0,0,0,0,0,0,0,1.6,0,3.3,0,4.9,0,0,0,0,0,.1,0,.2.1.4.3.5,0,0,.1,0,.2,0,.6,0,1.1,0,1.7,0,0,0,.1,0,.2,0,.2,0,.4-.2.4-.5,0,0,0,0,0-.1,0-.8,0-1.6,0-2.5ZM23.2,11.2c0,.8,0,1.6,0,2.5,0,0,0,.1,0,.2,0,.2.2.4.4.4,0,0,.1,0,.2,0,.5,0,1.1,0,1.6,0,0,0,0,0,.1,0,.2,0,.4-.2.4-.5,0,0,0,0,0-.1,0-1.7,0-3.3,0-5,0,0,0,0,0-.1,0-.2-.1-.4-.4-.4,0,0-.1,0-.2,0-.5,0-1.1,0-1.6,0,0,0,0,0,0,0-.2,0-.5.2-.5.4,0,0,0,.1,0,.2,0,.8,0,1.6,0,2.5ZM19.4,16.2s0,0,0,.1c0,.7,0,1.3,0,2,0,.8,0,1.7,0,2.5,0,.5,0,1,0,1.5,0,.1,0,.2,0,.3,0,.2.2.4.4.5.2,0,.5,0,.6-.2,0-.1.1-.3.1-.4,0-.4,0-.8,0-1.1,0-1,0-2,0-2.9,0-.5,0-1,0-1.5,0-.2,0-.5,0-.7,0,0,0,0,0,0-.3,0-.5,0-.8,0ZM18.9,14.6c0,.4.4.8.8.8.4,0,.8-.3.8-.8-.1,0-.3,0-.4,0-.1,0-.3,0-.4,0-.1,0-.3,0-.4,0-.1,0-.3,0-.4,0Z"/>
    <path class="cls-3" d="M11.4,18.4c1.9,0,3.9,0,5.8,0,0,0,0,0,.1,0,.2,0,.4.2.4.4,0,.2-.2.4-.4.4,0,0,0,0,0,0-3.9,0-7.8,0-11.7,0,0,0-.1,0-.2,0-.2,0-.3-.3-.3-.4,0-.2.2-.4.4-.4,0,0,0,0,.1,0,1.9,0,3.9,0,5.8,0Z"/>
    <path class="cls-3" d="M11.4,16.1c1.9,0,3.9,0,5.8,0,0,0,0,0,.1,0,.2,0,.4.2.4.4,0,.2-.2.4-.4.4,0,0,0,0,0,0-3.9,0-7.8,0-11.7,0,0,0-.1,0-.2,0-.2,0-.3-.3-.3-.4,0-.2.2-.4.4-.4,0,0,.1,0,.2,0,1.9,0,3.9,0,5.8,0Z"/>
    <path class="cls-3" d="M8.4,11.5c1,0,1.9,0,2.9,0,0,0,.1,0,.2,0,.2,0,.3.2.3.4,0,.2-.1.4-.3.4,0,0,0,0-.1,0-1.9,0-3.8,0-5.8,0,0,0,0,0-.1,0-.2,0-.3-.2-.3-.4,0-.2.1-.4.3-.4,0,0,.1,0,.2,0,.9,0,1.9,0,2.8,0Z"/>
    <path class="cls-3" d="M8.4,14.6c-1,0-1.9,0-2.9,0,0,0-.1,0-.2,0-.2,0-.3-.2-.3-.4,0-.2.2-.4.4-.4,0,0,0,0,.1,0,1.9,0,3.8,0,5.8,0,0,0,0,0,.1,0,.2,0,.3.2.4.4,0,.2-.2.4-.3.4,0,0-.1,0-.2,0-1,0-1.9,0-2.9,0Z"/>
    <path class="cls-3" d="M8.4,10.1c-1,0-1.9,0-2.9,0,0,0,0,0-.1,0-.2,0-.4-.2-.4-.4,0-.2.1-.4.3-.4,0,0,0,0,.1,0,0,0,0,0,0,0,1.9,0,3.8,0,5.7,0,0,0,.1,0,.2,0,.2,0,.3.2.3.4,0,.2-.2.4-.4.4,0,0,0,0-.1,0-.9,0-1.9,0-2.8,0Z"/>
  </g>
</svg>