<svg xmlns="http://www.w3.org/2000/svg" width="81" height="50" fill="none" viewBox="0 0 81 50"><g clip-path="url(#clip0_353_1923)"><g clip-path="url(#clip1_353_1923)"><path fill="#DA1F2A" fill-rule="evenodd" d="M60.318 3.829s-1.308 4.347-5.701 6.63c-5.015 2.603-8.751.532-8.751.532s10.551 7 12.332 16.97c1.945 10.907-5.17 20.947-5.17 20.947s7.013-6.832 9.147-20.815c1.999-13.105-1.857-24.264-1.857-24.264Z" clip-rule="evenodd"/><path fill="#009B6A" fill-rule="evenodd" d="M57.022 17.948s-1.5 2.54-3.314 3.449c-2.137 1.067-4.641.531-4.641.531s4.678 4.496 6.098 9.148c1.493 4.889-.264 9.943-.264 9.943s3.435-5.25 3.977-11.136c.519-5.642-1.856-11.932-1.856-11.932v-.003Z" clip-rule="evenodd"/><path stroke="#fff" stroke-miterlimit="10" stroke-width=".661" d="M57.022 17.948s-1.5 2.54-3.314 3.449c-2.137 1.067-4.641.531-4.641.531s4.678 4.496 6.098 9.148c1.493 4.889-.264 9.943-.264 9.943s3.435-5.25 3.977-11.136c.519-5.642-1.856-11.932-1.856-11.932v-.003Z"/><path fill="#009B6A" stroke="#fff" stroke-miterlimit="10" stroke-width=".661" d="M52.87 20.32a2.157 2.157 0 1 0-.001-4.315 2.157 2.157 0 0 0 0 4.314Z"/><path fill="#DA1F2A" d="M51.38 7.723a3.442 3.442 0 1 0 0-6.884 3.442 3.442 0 0 0 0 6.884Z"/><path fill="#000" d="M50.626 25.648c-1.404 1.83-2.643 3.75-3.59 5.847-.823 1.82-1.425 3.7-1.411 5.735.023 3.568 1.959 5.583 5.536 5.682.991.026 1.982-.06 2.973-.093.212-.006.427 0 .638 0l.05.208c-1.662.453-3.304 1.001-4.992 1.328-1.13.222-2.329.248-3.482.162-2.316-.172-3.687-1.74-3.756-4.073-.05-1.691.397-3.27 1.04-4.806 1.61-3.836 4.15-7.024 6.988-9.993l.006.003ZM58.74 40.943c1.694-1.302 3.428-2.55 5.073-3.911 4.18-3.456 7.88-7.33 10.33-12.25.69-1.387 1.183-2.837 1.328-4.4.281-2.986-1.334-5.07-4.324-5.546-2.088-.334-4.133-.066-6.16.446-.123.03-.245.059-.384.043 1.553-.83 3.191-1.411 4.899-1.8 1.56-.354 3.128-.533 4.717-.146 2.042.499 3.26 2.048 3.33 4.136.09 2.672-.928 5.008-2.187 7.25-2.63 4.685-6.237 8.547-10.392 11.893-1.817 1.464-3.796 2.722-5.706 4.07-.155.11-.33.192-.495.284a.642.642 0 0 1-.026-.072l-.004.003Z"/><path fill="#BCA173" d="m70.999 25.836.875-.677-.376 1.04.915.622-1.103-.037-.311 1.064-.307-1.063-1.104.036.912-.621-.373-1.04.872.676ZM72.8 22.896l.871-.677-.373 1.04.912.621-1.104-.036-.307 1.06-.31-1.06-1.104.036.915-.62-.376-1.041.875.677ZM74.09 19.771l.876-.677-.376 1.037.915.621-1.104-.033-.31 1.06-.307-1.06-1.104.033.915-.621-.376-1.037.872.677ZM68.815 28.98l.872-.676-.373 1.037.915.621-1.106-.033-.308 1.06-.307-1.06-1.107.033.915-.621-.373-1.037.872.677ZM66.648 31.518l.872-.677-.376 1.04.915.621-1.103-.036-.308 1.06-.31-1.06-1.104.036.915-.62-.376-1.041.875.677ZM64.292 33.602l.876-.677-.377 1.04.915.622-1.103-.036-.31 1.06-.308-1.06-1.103.036.915-.621-.377-1.04.872.676ZM61.756 35.855l.872-.677-.373 1.038.915.62-1.107-.032-.307 1.06-.307-1.06-1.107.033.915-.622-.373-1.037.872.677Z"/><path fill="#1D1D1B" d="M4.011 30.983h-1.56v1.88H4.24v.24H2.075V28.84h2.052v.241H2.452v1.665H4.01v.241-.003ZM10.218 31.053c-.043-.658-.089-1.328-.063-1.83h-.042c-.14.485-.298.987-.526 1.588l-.859 2.29h-.191l-.816-2.177c-.245-.664-.43-1.19-.562-1.702h-.036c.016.526-.017 1.16-.063 1.88l-.112 1.999H6.57l.308-4.265h.439l.822 2.203c.218.575.367.962.51 1.45h.026c.132-.492.264-.855.472-1.45l.796-2.203h.472l.324 4.265h-.386l-.139-2.052.003.004ZM13.819 28.836V33.1h-.377v-4.265h.377ZM16.64 28.898c.238-.062.525-.082.796-.082.552 0 .912.102 1.176.297a.982.982 0 0 1 .387.796c0 .602-.387.925-.975 1.12v.014c.456.082.7.406.843 1.023.148.651.244.912.317 1.031h-.377c-.089-.132-.191-.518-.323-1.077-.15-.62-.447-.878-1.14-.878h-.324v1.955h-.377v-4.202l-.003.003Zm.377 2.032h.333c.727 0 1.252-.373 1.252-.968 0-.594-.323-.912-1.182-.912-.159 0-.298.007-.403.027v1.853ZM22.25 31.634l-.473 1.467h-.366l1.394-4.265h.36l1.41 4.265h-.386l-.473-1.467H22.25Zm1.377-.235-.376-1.202c-.106-.33-.185-.634-.265-.975h-.036c-.07.347-.159.664-.254.982l-.367 1.195h1.298ZM27.228 29.07h-1.104v-.234h2.587v.235h-1.103v4.03h-.377v-4.03h-.003ZM33.058 30.983H31.5v1.88h1.787v.24h-2.163V28.84h2.051v.241h-1.675v1.665h1.56v.241-.003ZM35.582 32.714c.175.09.499.178.773.178.667 0 1.097-.347 1.097-.872 0-.45-.35-.74-.79-1.007-.254-.159-1.113-.526-1.113-1.176 0-.651.621-1.038 1.378-1.038.35 0 .64.09.763.159l-.149.234a1.49 1.49 0 0 0-.674-.145c-.63 0-.928.38-.928.714 0 .525.386.713.902 1.007.667.38 1 .747 1 1.232 0 .71-.667 1.14-1.473 1.14-.36 0-.763-.102-.912-.195l.133-.228-.007-.003ZM3.684 5.014c-.017 0-.043 0-.083-.006-.04-.007-.08-.013-.126-.03a.683.683 0 0 1-.31-.218.712.712 0 0 1-.093-.132 1.543 1.543 0 0 1-.082-.165 1.185 1.185 0 0 1-.066-.169c-.02-.053-.033-.102-.046-.142-.053.07-.096.13-.136.175a.47.47 0 0 1-.3.172 1.877 1.877 0 0 1-.446.007 1.155 1.155 0 0 1-.172-.03.634.634 0 0 1-.122-.046c-.034-.017-.047-.04-.047-.063s.007-.06.017-.106c.01-.046.023-.096.043-.148a1.65 1.65 0 0 1 .07-.159c.029-.053.062-.1.098-.139.027-.026.073-.062.142-.112A5.457 5.457 0 0 1 2.7 3.3c0-.056.007-.112.007-.175 0-.06.006-.116.01-.165a.735.735 0 0 1 .023-.123c.01-.033.026-.05.05-.05.022 0 .039.014.052.044a.58.58 0 0 1 .033.112c.01.046.02.1.027.162.01.063.02.126.033.188.016.076.036.156.056.238.02.083.046.165.07.248.026.083.052.162.082.241.03.08.063.149.099.215a.87.87 0 0 0 .139.188.611.611 0 0 0 .44.185l-.146.397.01.01ZM2.11 1.694l.433.242-.218.366-.43-.24.215-.368Zm.618 1.794a.506.506 0 0 1-.142.13c-.07.045-.142.095-.221.148-.076.053-.15.102-.219.155-.069.05-.115.1-.135.145.043.037.119.057.231.057.165 0 .364-.04.595-.123a.889.889 0 0 1-.03-.105c-.01-.043-.023-.086-.033-.136a1.896 1.896 0 0 1-.026-.145c-.01-.05-.013-.093-.017-.132l-.003.006Zm.092-1.903.43.245-.215.367-.433-.245.218-.367Z"/><path fill="#1D1D1B" d="M3.684 5.015a.145.145 0 0 1-.119-.053.188.188 0 0 1-.046-.122c0-.057.03-.106.093-.152a.36.36 0 0 1 .22-.07h1.114l-.145.397H3.684Z"/><path fill="#1D1D1B" d="M4.798 5.015a.145.145 0 0 1-.12-.053.188.188 0 0 1-.046-.122c0-.057.03-.106.093-.152a.36.36 0 0 1 .221-.07H6.06l-.145.397H4.798Z"/><path fill="#1D1D1B" d="M5.91 5.015a.145.145 0 0 1-.118-.053.188.188 0 0 1-.046-.122c0-.057.03-.106.092-.152a.36.36 0 0 1 .221-.07h1.114l-.146.397H5.911Z"/><path fill="#1D1D1B" d="M7.024 5.015a.145.145 0 0 1-.119-.053.188.188 0 0 1-.046-.122c0-.057.03-.106.092-.152a.36.36 0 0 1 .222-.07h1.113l-.145.397H7.024Z"/><path fill="#1D1D1B" d="M8.137 5.015a.145.145 0 0 1-.12-.053.188.188 0 0 1-.045-.122c0-.057.03-.106.092-.152a.36.36 0 0 1 .222-.07h1.113l-.146.397H8.137Z"/><path fill="#1D1D1B" d="M9.25 5.015a.145.145 0 0 1-.119-.053.188.188 0 0 1-.046-.122c0-.057.03-.106.092-.152a.36.36 0 0 1 .222-.07h1.113l-.145.397H9.25Z"/><path fill="#1D1D1B" d="M10.36 5.015a.144.144 0 0 1-.118-.053.187.187 0 0 1-.047-.122c0-.057.03-.106.093-.152a.36.36 0 0 1 .221-.07h1.113l-.145.397H10.36Z"/><path fill="#1D1D1B" d="M11.474 5.015a.145.145 0 0 1-.12-.053.188.188 0 0 1-.045-.122c0-.057.03-.106.092-.152a.36.36 0 0 1 .221-.07h1.114l-.146.397H11.474Z"/><path fill="#1D1D1B" d="M12.587 5.015a.145.145 0 0 1-.119-.053.188.188 0 0 1-.046-.122c0-.057.03-.106.092-.152a.36.36 0 0 1 .222-.07h1.113l-.145.397h-1.117Z"/><path fill="#1D1D1B" d="M13.7 5.015a.145.145 0 0 1-.119-.053.188.188 0 0 1-.046-.122c0-.057.03-.106.093-.152a.36.36 0 0 1 .221-.07h1.113l-.145.397H13.7Z"/><path fill="#1D1D1B" d="M14.814 5.015a.145.145 0 0 1-.12-.053.188.188 0 0 1-.046-.122c0-.057.03-.106.093-.152a.36.36 0 0 1 .221-.07h1.114l-.146.397H14.814Z"/><path fill="#1D1D1B" d="M15.927 5.015a.144.144 0 0 1-.119-.053.187.187 0 0 1-.046-.122c0-.057.03-.106.092-.152a.36.36 0 0 1 .222-.07h1.113l-.145.397h-1.117Z"/><path fill="#1D1D1B" d="M17.037 5.015a.145.145 0 0 1-.12-.053.188.188 0 0 1-.045-.122c0-.057.03-.106.092-.152a.36.36 0 0 1 .221-.07H18.3l-.146.397H17.037Z"/><path fill="#1D1D1B" d="M18.15 5.015a.145.145 0 0 1-.119-.053.188.188 0 0 1-.046-.122c0-.057.03-.106.092-.152a.36.36 0 0 1 .222-.07h1.113l-.145.397H18.15Z"/><path fill="#1D1D1B" d="M19.263 5.015a.145.145 0 0 1-.119-.053.188.188 0 0 1-.046-.122c0-.057.03-.106.093-.152a.36.36 0 0 1 .221-.07h1.113l-.145.397h-1.117Z"/><path fill="#1D1D1B" d="M20.377 5.015a.144.144 0 0 1-.12-.053.187.187 0 0 1-.046-.122c0-.057.03-.106.093-.152a.36.36 0 0 1 .221-.07h1.114l-.146.397H20.377Z"/><path fill="#1D1D1B" d="M22.94 4.958a.934.934 0 0 1-.245-.03 1.076 1.076 0 0 1-.518-.307c-.07.083-.132.152-.192.202a.847.847 0 0 1-.172.119.57.57 0 0 1-.162.06.868.868 0 0 1-.161.016c-.083 0-.136-.02-.162-.06a.212.212 0 0 1-.04-.115.14.14 0 0 1 .03-.083.34.34 0 0 1 .191-.122.523.523 0 0 1 .126-.017.5.5 0 0 0 .304-.122c.106-.082.211-.201.32-.353a.677.677 0 0 1 .113-.13.185.185 0 0 1 .119-.039c.026 0 .04.01.046.027.006.016.006.033.006.046a.09.09 0 0 1-.013.046c-.01.017-.016.037-.026.053-.01.02-.02.046-.04.08 0 .013.02.036.06.072a1.282 1.282 0 0 0 .354.215c.072.03.141.046.207.046l-.145.396Zm-.69-2.424c.039 0 .072.016.095.05a.168.168 0 0 1 .033.095c0 .05-.013.093-.04.129-.026.036-.049.056-.069.056-.023 0-.043-.013-.063-.04a.058.058 0 0 0-.046-.03.49.49 0 0 0-.07-.006.275.275 0 0 0-.088.02.575.575 0 0 0-.185.102c-.023.02-.033.04-.033.056 0 .027.023.047.069.063.046.017.1.03.155.04.06.01.116.016.169.02l.105.006.215-.092c.05-.023.122-.053.221-.093.02 0 .03.014.03.037-.05.109-.092.188-.129.237-.06.037-.109.06-.148.08l-.132.056c-.05.02-.096.043-.146.063l-.175.079a4.05 4.05 0 0 0-.168.08c-.053.022-.116.052-.199.085-.013 0-.02-.013-.02-.036s.014-.046.04-.073c.027-.023.053-.05.086-.073.033-.023.073-.056.126-.095a1.143 1.143 0 0 1-.156-.063.588.588 0 0 1-.105-.07.12.12 0 0 1-.05-.092.34.34 0 0 1 .07-.178 1.1 1.1 0 0 1 .393-.344.472.472 0 0 1 .221-.063l-.007-.006Z"/><path fill="#1D1D1B" d="M22.94 4.958a.144.144 0 0 1-.119-.052.187.187 0 0 1-.046-.123c0-.056.03-.105.092-.152a.36.36 0 0 1 .222-.069h1.113l-.145.396H22.94Z"/><path fill="#1D1D1B" d="M24.053 4.958a.145.145 0 0 1-.119-.052.188.188 0 0 1-.046-.123c0-.056.03-.105.093-.152a.36.36 0 0 1 .221-.069h1.113l-.145.396h-1.117Z"/><path fill="#1D1D1B" d="M25.166 4.958a.145.145 0 0 1-.119-.052.188.188 0 0 1-.046-.123c0-.056.03-.105.092-.152a.36.36 0 0 1 .222-.069h1.113l-.145.396h-1.117Z"/><path fill="#1D1D1B" d="M26.276 4.958a.144.144 0 0 1-.118-.052.187.187 0 0 1-.047-.123c0-.056.03-.105.093-.152a.36.36 0 0 1 .221-.069h1.113l-.145.396h-1.117Z"/><path fill="#1D1D1B" d="M27.39 4.958a.144.144 0 0 1-.12-.052.187.187 0 0 1-.045-.123c0-.056.03-.105.092-.152a.36.36 0 0 1 .221-.069h1.114l-.146.396H27.39Z"/><path fill="#1D1D1B" d="M29.953 4.899a.936.936 0 0 1-.244-.03 1.077 1.077 0 0 1-.52-.307c-.069.082-.131.152-.19.201a.85.85 0 0 1-.172.12.57.57 0 0 1-.162.059.869.869 0 0 1-.162.016c-.083 0-.136-.02-.162-.06a.212.212 0 0 1-.04-.115.14.14 0 0 1 .03-.083.339.339 0 0 1 .08-.072.501.501 0 0 1 .112-.05.523.523 0 0 1 .125-.016.5.5 0 0 0 .304-.123c.106-.082.211-.201.32-.353a.673.673 0 0 1 .113-.129.184.184 0 0 1 .119-.04c.026 0 .04.01.046.027.007.016.007.033.007.046a.09.09 0 0 1-.014.046c-.01.017-.016.037-.026.053-.01.02-.02.047-.04.08 0 .013.02.036.06.072a1.286 1.286 0 0 0 .353.215c.073.03.142.046.208.046l-.145.397Zm-1.067.614.433.241-.218.367-.43-.241.215-.367Zm.71-.109.43.245-.215.366-.433-.244.218-.367Z"/><path fill="#1D1D1B" d="M29.953 4.899a.145.145 0 0 1-.119-.053.188.188 0 0 1-.046-.122c0-.056.03-.106.093-.152a.36.36 0 0 1 .22-.07h1.114l-.145.397h-1.117Z"/><path fill="#1D1D1B" d="M31.067 4.899a.145.145 0 0 1-.12-.053.188.188 0 0 1-.046-.122c0-.056.03-.106.093-.152a.36.36 0 0 1 .221-.07h1.113l-.145.397H31.067Z"/><path fill="#1D1D1B" d="M32.18 4.899a.145.145 0 0 1-.12-.053.188.188 0 0 1-.045-.122c0-.056.03-.106.092-.152a.36.36 0 0 1 .221-.07h1.114l-.146.397H32.18Z"/><path fill="#1D1D1B" d="M33.293 4.899a.145.145 0 0 1-.119-.053.187.187 0 0 1-.046-.122c0-.056.03-.106.092-.152a.36.36 0 0 1 .222-.07h1.113l-.145.397h-1.117Z"/><path fill="#1D1D1B" d="M34.406 4.899a.144.144 0 0 1-.118-.053.187.187 0 0 1-.047-.122c0-.056.03-.106.093-.152a.36.36 0 0 1 .221-.07h1.113l-.145.397h-1.117Z"/><path fill="#1D1D1B" d="M36.203 4.364a.345.345 0 0 1-.092-.07.317.317 0 0 1-.066-.221c0-.09.016-.179.046-.261a1.396 1.396 0 0 1 .241-.433.36.36 0 0 1-.063-.198c0-.126.017-.218.047-.28.03-.064.082-.093.162-.093.135 0 .297.036.475.105.182.07.37.175.569.314a2.096 2.096 0 0 1 .442.426c.063.08.11.159.149.241.04.083.056.156.056.225 0 .119-.013.215-.036.29a.514.514 0 0 1-.096.186.325.325 0 0 1-.258.122c-.082 0-.185-.01-.31-.026-.126-.02-.245-.04-.357-.06a23.632 23.632 0 0 1-.416-.09c-.1.06-.205.113-.31.156a3.27 3.27 0 0 1-.315.113c-.102.03-.201.052-.294.066-.092.013-.178.02-.247.02a.389.389 0 0 1-.11-.024.187.187 0 0 1-.075-.053c-.024-.023-.033-.059-.033-.105 0-.06.036-.113.105-.152a.48.48 0 0 1 .258-.063c.02 0 .053-.003.099-.01.046-.007.096-.016.149-.026.052-.014.105-.027.158-.043a.723.723 0 0 0 .132-.056h-.01Zm.017-.506c0 .023.013.046.04.073.026.026.062.05.109.076.046.023.095.046.152.07.056.019.112.035.168.049l.083-.043c.033-.02.069-.04.102-.063.033-.023.063-.046.09-.07.022-.023.036-.042.036-.059a.73.73 0 0 0-.053-.287.277.277 0 0 0-.172-.172.635.635 0 0 0-.202.056.95.95 0 0 0-.178.11.554.554 0 0 0-.129.135.226.226 0 0 0-.05.125h.004Zm.836.344c.043.013.102.03.178.046s.159.033.241.046c.083.013.162.027.241.037.08.01.136.016.179.016.05 0 .072-.007.072-.023a.199.199 0 0 0-.04-.093 1.066 1.066 0 0 0-.102-.138 5.095 5.095 0 0 0-.142-.159 1.752 1.752 0 0 0-.165-.152 1.625 1.625 0 0 0-.165-.122.43.43 0 0 0-.139-.066v.066a.685.685 0 0 1-.01.165c-.01.056-.023.106-.04.155-.016.05-.036.093-.052.132a.702.702 0 0 1-.053.093l-.003-.003ZM6.62 12.19c0 .066-.006.132-.019.201-.013.07-.033.136-.053.202a2.385 2.385 0 0 1-.072.185c-.027.056-.05.105-.073.145a4.675 4.675 0 0 1-.539.225c-.211.072-.449.138-.716.198a8.77 8.77 0 0 1-1.876.198c-.206 0-.397-.02-.582-.06-.185-.04-.344-.098-.483-.175a.995.995 0 0 1-.33-.297.714.714 0 0 1-.122-.42c0-.105.016-.204.05-.297.032-.092.072-.171.118-.24a.926.926 0 0 1 .13-.166c.039-.043.069-.063.082-.063.02 0 .026.007.026.023l-.076.14a.846.846 0 0 0-.053.131.552.552 0 0 0 .073.476c.066.099.162.185.29.26.13.077.288.136.476.18.189.042.41.065.658.065.248 0 .489-.016.756-.046a9.61 9.61 0 0 0 1.49-.294c.222-.063.407-.132.552-.198a.891.891 0 0 0-.056-.31.803.803 0 0 0-.162-.265c0-.03.006-.07.02-.115.013-.047.03-.093.05-.143l.059-.138a.647.647 0 0 1 .06-.103.78.78 0 0 1 .092.103 1.336 1.336 0 0 1 .191.376.74.74 0 0 1 .033.225l.007-.003Zm-3.081-1.5.466.26-.235.394-.462-.261.23-.393Zm.766-.116.463.264-.232.394-.465-.265.234-.393ZM7.764 13.257a4.702 4.702 0 0 0-.06-.466c-.033-.198-.079-.426-.135-.694-.03-.139-.066-.287-.102-.452a13.949 13.949 0 0 1-.195-.981 4.988 4.988 0 0 1-.053-.443c0-.017.01-.053.026-.11a2.005 2.005 0 0 1 .172-.426 1.9 1.9 0 0 1 .07.344c.039.33.085.634.138.915l.142.76c.02.1.036.205.06.32a12.486 12.486 0 0 1 .092.684c.01.11.017.205.017.29 0 .037-.004.084-.01.133a2.076 2.076 0 0 1-.027.152.432.432 0 0 1-.043.126c-.016.033-.033.05-.053.05-.02 0-.03-.017-.033-.05-.003-.034-.003-.067-.003-.1v-.052h-.003ZM9.415 12.2c.12.109.205.205.265.29.06.086.112.185.158.294.047.11.07.218.07.324v.175c0 .03 0 .053-.004.066a1.776 1.776 0 0 1-.822 1.47 1.502 1.502 0 0 1-.288.152.702.702 0 0 1-.267.06 32.708 32.708 0 0 1-.403-.06 9.273 9.273 0 0 1-.337-.06c-.12-.019-.231-.042-.334-.062a3.111 3.111 0 0 1-.35-.099l.07-.017c.155 0 .303 0 .445-.006a3.516 3.516 0 0 0 .806-.116c.126-.036.248-.082.367-.142.287-.145.506-.304.65-.472.146-.169.245-.347.288-.529a1.608 1.608 0 0 0-.148-.32 2.286 2.286 0 0 0-.334-.433.64.64 0 0 1 .02-.109c.013-.056.026-.112.046-.172.02-.06.053-.135.102-.228V12.2ZM11.494 13.448c-.024 0-.06 0-.1-.003-.043 0-.085-.01-.132-.02a1.078 1.078 0 0 1-.138-.04.41.41 0 0 1-.12-.065.543.543 0 0 1-.148-.185 1.095 1.095 0 0 1-.122-.443 11.09 11.09 0 0 0-.02-.221c-.01-.136-.023-.281-.036-.44-.014-.158-.033-.317-.05-.485l-.06-.51c-.022-.17-.042-.343-.066-.511-.013-.08-.023-.159-.036-.235-.013-.076-.026-.152-.043-.231a2.077 2.077 0 0 0-.03-.116c-.013-.046-.03-.092-.042-.132.006-.043.016-.089.03-.138.012-.05.029-.096.042-.14a.978.978 0 0 1 .08-.151c.023.03.04.06.05.086.012.026.022.06.032.092.023.106.043.208.06.31.016.103.026.216.04.334.016.169.032.354.055.555.02.202.047.403.07.608.023.202.05.4.072.588.024.188.047.357.07.5.006.035.016.072.026.115a.814.814 0 0 0 .103.24.39.39 0 0 0 .076.087c.033.026.076.05.122.063a.736.736 0 0 0 .142.032c.05.007.092.014.135.014h.096l-.158.43v.012Z"/><path fill="#1D1D1B" d="M11.493 13.448a.167.167 0 0 1-.129-.056.193.193 0 0 1-.05-.132c0-.06.034-.116.1-.165a.387.387 0 0 1 .238-.076h1.202l-.158.429h-1.203Z"/><path fill="#1D1D1B" d="M12.696 13.448a.167.167 0 0 1-.129-.056.193.193 0 0 1-.05-.132c0-.06.034-.116.1-.165a.386.386 0 0 1 .237-.076h1.203l-.159.429h-1.202Z"/><path fill="#1D1D1B" d="M13.898 13.448a.167.167 0 0 1-.129-.056.193.193 0 0 1-.05-.132c0-.06.034-.116.1-.165a.387.387 0 0 1 .238-.076h1.202l-.158.429h-1.203Z"/><path fill="#1D1D1B" d="M15.1 13.448a.167.167 0 0 1-.128-.056.193.193 0 0 1-.05-.132c0-.06.033-.116.1-.165a.386.386 0 0 1 .237-.076h1.203l-.159.429h-1.202Z"/><path fill="#1D1D1B" d="M16.303 13.448a.167.167 0 0 1-.128-.056.193.193 0 0 1-.05-.132c0-.06.033-.116.1-.165a.387.387 0 0 1 .237-.076h1.202l-.158.429h-1.203Z"/><path fill="#1D1D1B" d="M17.506 13.448a.167.167 0 0 1-.13-.056.193.193 0 0 1-.049-.132c0-.06.033-.116.1-.165a.386.386 0 0 1 .237-.076h1.203l-.159.429h-1.202Z"/><path fill="#1D1D1B" d="M18.708 13.448a.167.167 0 0 1-.129-.056.193.193 0 0 1-.05-.132c0-.06.034-.116.1-.165a.386.386 0 0 1 .238-.076h1.202l-.158.429h-1.203Z"/><path fill="#1D1D1B" d="M19.91 13.448a.167.167 0 0 1-.128-.056.193.193 0 0 1-.05-.132c0-.06.034-.116.1-.165a.387.387 0 0 1 .237-.076h1.203l-.159.429h-1.202Z"/><path fill="#1D1D1B" d="M21.113 13.448a.167.167 0 0 1-.129-.056.193.193 0 0 1-.05-.132c0-.06.034-.116.1-.165a.386.386 0 0 1 .238-.076h1.202l-.159.429h-1.202Z"/><path fill="#1D1D1B" d="M22.316 13.448a.167.167 0 0 1-.13-.056.193.193 0 0 1-.049-.132c0-.06.033-.116.1-.165a.387.387 0 0 1 .237-.076h1.203l-.159.429h-1.202Z"/><path fill="#1D1D1B" d="M23.518 13.448a.167.167 0 0 1-.129-.056.193.193 0 0 1-.05-.132c0-.06.034-.116.1-.165a.387.387 0 0 1 .238-.076h1.202l-.158.429h-1.203Z"/><path fill="#1D1D1B" d="M24.72 13.448a.167.167 0 0 1-.128-.056.193.193 0 0 1-.05-.132c0-.06.033-.116.1-.165a.386.386 0 0 1 .237-.076h1.202l-.158.429H24.72Z"/><path fill="#1D1D1B" d="M25.923 13.448a.167.167 0 0 1-.129-.056.193.193 0 0 1-.05-.132c0-.06.034-.116.1-.165a.387.387 0 0 1 .238-.076h1.202l-.159.429h-1.202Z"/><path fill="#1D1D1B" d="M27.125 13.448a.167.167 0 0 1-.129-.056.193.193 0 0 1-.05-.132c0-.06.034-.116.1-.165a.386.386 0 0 1 .238-.076h1.202l-.158.429h-1.203Z"/><path fill="#1D1D1B" d="M28.328 13.448a.167.167 0 0 1-.129-.056.193.193 0 0 1-.05-.132c0-.06.033-.116.1-.165a.387.387 0 0 1 .237-.076h1.203l-.159.429h-1.202Z"/><path fill="#1D1D1B" d="M30.465 12.447c.023-.06.05-.115.076-.165a.83.83 0 0 1 .096-.142.635.635 0 0 1 .489-.241c.043 0 .096.02.162.056a.71.71 0 0 1 .188.165c.06.073.112.159.155.264a.907.907 0 0 1 .066.35.43.43 0 0 1-.05.199.835.835 0 0 1-.274.3.235.235 0 0 1-.128.047.847.847 0 0 1-.271-.046 1.952 1.952 0 0 1-.37-.179 3.31 3.31 0 0 1-.112-.08 2.393 2.393 0 0 0-.136-.088c-.053.06-.092.112-.122.155a6.3 6.3 0 0 1-.1.139.587.587 0 0 1-.36.235c-.092.019-.171.032-.24.032-.07 0-.12-.016-.159-.056a.18.18 0 0 1-.056-.132c0-.053.03-.106.089-.159.06-.053.152-.079.28-.079a.588.588 0 0 0 .183-.036.759.759 0 0 0 .184-.096.704.704 0 0 0 .152-.139c.037-.046.07-.096.103-.142a1.6 1.6 0 0 1 .073-.112c.023-.037.043-.053.056-.053l.026.007v-.004Zm.136.076.112.086c.033.027.07.05.106.076a3.676 3.676 0 0 0 .363.195c.086.04.145.06.175.06a.482.482 0 0 0 .023-.116.485.485 0 0 0-.043-.195.894.894 0 0 0-.102-.182.592.592 0 0 0-.142-.132.284.284 0 0 0-.304-.01.407.407 0 0 0-.106.09.728.728 0 0 0-.082.128ZM34.627 13.858c.043 0 .076.016.103.053.023.036.036.07.036.106 0 .052-.013.099-.043.138-.03.04-.053.06-.072.06-.024 0-.05-.014-.07-.043a.068.068 0 0 0-.05-.033c-.023-.007-.049-.007-.072-.007a.328.328 0 0 0-.096.02.678.678 0 0 0-.112.05.386.386 0 0 0-.09.062c-.023.023-.036.043-.036.06 0 .026.023.05.073.066.05.016.106.03.168.043.063.01.123.016.182.023.056.006.096.006.112.006.103-.043.179-.075.235-.102.053-.026.132-.06.238-.102.02 0 .033.013.033.036a1.901 1.901 0 0 1-.139.254c-.066.037-.119.066-.162.086l-.142.063-.158.066c-.063.027-.126.056-.189.086-.066.03-.125.06-.181.086a6.017 6.017 0 0 1-.212.092c-.016 0-.023-.013-.023-.036s.013-.05.043-.076c.03-.026.06-.053.093-.076.033-.026.079-.06.135-.106-.073-.026-.129-.046-.169-.066a.542.542 0 0 1-.115-.076c-.036-.03-.053-.063-.053-.102 0-.056.023-.12.073-.192a1.193 1.193 0 0 1 .426-.373.501.501 0 0 1 .241-.066h-.007ZM36.164 12.167c.053-.076.096-.159.129-.248.033-.09.06-.189.079-.298.02-.109.033-.234.04-.373.006-.138.013-.294.013-.469 0-.158-.003-.3-.013-.426l-.027-.32-.03-.037a.29.29 0 0 1-.02-.033l-.01-.046c-.003-.02 0-.04 0-.066a.69.69 0 0 1 .02-.139c.014-.06.03-.119.05-.182.02-.059.04-.112.06-.155.02-.043.04-.066.056-.066l.013.017c.036.095.076.175.119.237a.712.712 0 0 0 .205.185c-.007.024-.014.05-.027.086l-.033.103c-.013.036-.023.066-.036.096a.598.598 0 0 1-.033.066c-.017.02-.033.033-.06.036a.271.271 0 0 0-.06.013c.008.09.014.182.02.278.007.099.01.198.01.297 0 .165-.003.327-.012.486-.01.158-.027.31-.057.456-.026.145-.066.28-.112.406-.05.125-.109.238-.188.333.033.096.062.189.082.278.02.09.033.175.037.254 0 .027 0 .06-.004.093-.003.033-.006.07-.013.102l-.02.103a.572.572 0 0 1-.026.089c-.013.036-.023.056-.037.066a.265.265 0 0 1-.092.03c-.063.013-.142.023-.241.036l-.31.03a5.34 5.34 0 0 1-.315.02c-.102.006-.184.006-.25.006a.173.173 0 0 1-.083-.016c-.02-.01-.027-.034-.027-.066 0-.027 0-.06.01-.1.007-.036.014-.076.023-.112a.616.616 0 0 1 .07-.145c.205-.11.383-.222.538-.34.156-.12.291-.248.41-.38a3.483 3.483 0 0 0-.228-.403 7.654 7.654 0 0 0-.258-.367c-.07-.096-.152-.195-.24-.304-.09-.106-.176-.205-.255-.294a9.443 9.443 0 0 0-.288-.31.402.402 0 0 1-.066.075c-.02.02-.04.03-.062.03a.36.36 0 0 1-.123-.046 1.552 1.552 0 0 1-.36-.258c-.05-.05-.072-.092-.072-.132v-.162c0-.066.006-.132.016-.195a.753.753 0 0 1 .043-.165c.02-.046.046-.07.08-.07a.5.5 0 0 1 .235.102c.131.11.26.226.382.355.122.128.241.257.35.393a8.459 8.459 0 0 1 .565.78c.073.118.149.247.225.38a4.7 4.7 0 0 1 .205.406h.003Zm0 .766a.94.94 0 0 0-.017-.168 1.58 1.58 0 0 0-.04-.169 3.21 3.21 0 0 1-.468.44c.089-.007.181-.017.277-.024.096-.006.178-.02.245-.033v-.046h.003ZM37.987 13.257a4.71 4.71 0 0 0-.06-.466c-.032-.198-.079-.426-.135-.694-.03-.139-.066-.287-.102-.452a14.233 14.233 0 0 1-.195-.981 4.993 4.993 0 0 1-.053-.443c0-.017.01-.053.026-.11a1.995 1.995 0 0 1 .172-.426 1.9 1.9 0 0 1 .07.344c.04.33.085.634.138.915l.142.76c.02.1.037.205.06.32a12.158 12.158 0 0 1 .092.684c.01.11.017.205.017.29 0 .037-.004.084-.01.133a2.077 2.077 0 0 1-.027.152.432.432 0 0 1-.042.126c-.017.033-.034.05-.053.05-.02 0-.03-.017-.033-.05-.004-.034-.004-.067-.004-.1v-.052h-.003ZM3.06 22.117c-.02 0-.05 0-.09-.007-.04-.007-.085-.013-.135-.033a.72.72 0 0 1-.337-.231.881.881 0 0 1-.1-.142 1.492 1.492 0 0 1-.088-.179c-.027-.062-.053-.122-.073-.181a7.3 7.3 0 0 1-.05-.152 3.182 3.182 0 0 1-.148.188.493.493 0 0 1-.324.185c-.073.013-.162.02-.274.02-.073 0-.142-.004-.212-.01a.922.922 0 0 1-.317-.083c-.033-.02-.05-.043-.05-.066a1.186 1.186 0 0 1 .063-.27 1.52 1.52 0 0 1 .077-.172.729.729 0 0 1 .105-.152 1.33 1.33 0 0 1 .156-.12 6.444 6.444 0 0 1 .515-.326c.09-.05.162-.086.211-.11 0-.059.007-.122.007-.188s.006-.125.01-.178a.58.58 0 0 1 .026-.132c.01-.037.03-.053.053-.053s.043.016.06.046a.686.686 0 0 1 .036.122c.01.05.02.11.03.175.01.067.023.136.036.205.02.083.04.169.063.258.023.09.05.178.076.268.026.089.06.175.089.26.033.083.07.162.109.232a.84.84 0 0 0 .149.201.688.688 0 0 0 .33.182c.056.01.102.017.145.017l-.158.429.01-.003Zm-1.702-3.591.466.26-.234.394-.463-.261.231-.393Zm.668 1.939a.556.556 0 0 1-.156.142c-.076.053-.155.106-.238.162a4.807 4.807 0 0 0-.234.168.536.536 0 0 0-.149.159c.047.04.13.06.251.06.179 0 .393-.044.645-.133l-.034-.112a1.583 1.583 0 0 1-.033-.146l-.03-.155c-.01-.053-.016-.099-.02-.142l-.002-.003Zm.102-2.055.462.264-.23.393-.467-.264.235-.393Z"/><path fill="#1D1D1B" d="M3.06 22.116a.168.168 0 0 1-.13-.056.193.193 0 0 1-.049-.132c0-.06.033-.116.1-.165a.386.386 0 0 1 .237-.076h1.203l-.159.43H3.06Z"/><path fill="#1D1D1B" d="M4.262 22.116a.168.168 0 0 1-.128-.056.193.193 0 0 1-.05-.132c0-.06.033-.116.1-.165a.386.386 0 0 1 .237-.076h1.202l-.158.43H4.262Z"/><path fill="#1D1D1B" d="M5.465 22.116a.168.168 0 0 1-.13-.056.193.193 0 0 1-.049-.132c0-.06.033-.116.1-.165a.386.386 0 0 1 .237-.076h1.203l-.159.43H5.465Z"/><path fill="#1D1D1B" d="M6.667 22.116a.168.168 0 0 1-.129-.056.193.193 0 0 1-.05-.132c0-.06.034-.116.1-.165a.386.386 0 0 1 .238-.076h1.202l-.158.43H6.667Z"/><path fill="#1D1D1B" d="M7.87 22.116a.168.168 0 0 1-.13-.056.193.193 0 0 1-.05-.132c0-.06.034-.116.1-.165a.386.386 0 0 1 .238-.076H9.23l-.158.43H7.869Z"/><path fill="#1D1D1B" d="M9.072 22.116a.168.168 0 0 1-.129-.056.193.193 0 0 1-.05-.132c0-.06.034-.116.1-.165a.386.386 0 0 1 .238-.076h1.202l-.159.43H9.072Z"/><path fill="#1D1D1B" d="M10.275 22.116a.168.168 0 0 1-.13-.056.193.193 0 0 1-.049-.132c0-.06.033-.116.1-.165a.386.386 0 0 1 .237-.076h1.203l-.159.43h-1.202Z"/><path fill="#1D1D1B" d="M11.477 22.116a.167.167 0 0 1-.13-.056.193.193 0 0 1-.049-.132c0-.06.033-.116.1-.165a.386.386 0 0 1 .237-.076h1.203l-.159.43h-1.202Z"/><path fill="#1D1D1B" d="M12.68 22.116a.168.168 0 0 1-.13-.056.193.193 0 0 1-.049-.132c0-.06.033-.116.1-.165a.386.386 0 0 1 .237-.076h1.202l-.158.43h-1.203Z"/><path fill="#1D1D1B" d="M13.882 22.116a.167.167 0 0 1-.129-.056.193.193 0 0 1-.05-.132c0-.06.034-.116.1-.165a.386.386 0 0 1 .238-.076h1.202l-.159.43h-1.202Z"/><path fill="#1D1D1B" d="M15.084 22.116a.167.167 0 0 1-.129-.056.193.193 0 0 1-.05-.132c0-.06.034-.116.1-.165a.386.386 0 0 1 .238-.076h1.202l-.158.43h-1.203Z"/><path fill="#1D1D1B" d="M16.287 22.116a.167.167 0 0 1-.129-.056.193.193 0 0 1-.05-.132c0-.06.033-.116.1-.165a.386.386 0 0 1 .237-.076h1.203l-.159.43h-1.202Z"/><path fill="#1D1D1B" d="M17.49 22.116a.167.167 0 0 1-.13-.056.193.193 0 0 1-.049-.132c0-.06.033-.116.1-.165a.386.386 0 0 1 .237-.076h1.202l-.158.43h-1.203Z"/><path fill="#1D1D1B" d="M18.692 22.116a.168.168 0 0 1-.13-.056.193.193 0 0 1-.049-.132c0-.06.033-.116.1-.165a.386.386 0 0 1 .237-.076h1.203l-.159.43h-1.202Z"/><path fill="#1D1D1B" d="M20.383 20.55s.046.02.09.063c.042.043.085.1.131.172.047.073.083.155.12.251.032.096.049.198.049.307a1.198 1.198 0 0 1-.06.36c-.02.053-.04.1-.06.14a.457.457 0 0 1-.059.085.34.34 0 0 1-.072.043c-.04.02-.09.037-.152.056a2.184 2.184 0 0 1-.466.086c-.149-.013-.221-.076-.221-.188 0-.053.03-.102.092-.155a.503.503 0 0 1 .288-.086c.052 0 .105-.01.165-.02a.886.886 0 0 0 .155-.04c.046-.016.086-.03.116-.046.03-.017.046-.03.046-.043a.4.4 0 0 0-.043-.185.783.783 0 0 0-.096-.155 2.018 2.018 0 0 0-.139-.169c0-.016.004-.05.014-.102a1.28 1.28 0 0 1 .112-.377l-.01.004Zm-.36 1.864.466.26-.235.394-.462-.261.23-.393Zm.766-.116.463.265-.232.393-.465-.265.234-.393ZM23.716 22.116l-.188.02a1.924 1.924 0 0 1-.34.968 1.67 1.67 0 0 1-.208.238 2.094 2.094 0 0 1-.268.212 1.702 1.702 0 0 1-.284.152.702.702 0 0 1-.265.059 33.14 33.14 0 0 1-.402-.06 9.495 9.495 0 0 1-.337-.059c-.12-.02-.232-.043-.334-.063a3.094 3.094 0 0 1-.35-.099l.07-.016h.257c.086 0 .181 0 .287-.01.106-.007.218-.02.337-.04.12-.02.238-.046.364-.08a2.005 2.005 0 0 0 1.004-.624c.148-.181.247-.37.297-.564a9.489 9.489 0 0 1-.314.016c-.106.003-.221.003-.337.003-.099 0-.181-.01-.247-.033a.402.402 0 0 1-.159-.086.336.336 0 0 1-.09-.125.388.388 0 0 1-.026-.152 1.113 1.113 0 0 1 .066-.317c.02-.05.037-.096.06-.142.02-.043.036-.08.053-.106a.837.837 0 0 1 .072-.096.56.56 0 0 1 .232-.158.44.44 0 0 1 .148-.027.605.605 0 0 1 .38.122c.07.057.142.14.212.255.069.116.112.25.132.406l.347-.023-.159.43h-.01Zm-.604-.402a.784.784 0 0 0-.09-.169.508.508 0 0 0-.132-.116.379.379 0 0 0-.211-.052.289.289 0 0 0-.159.04.353.353 0 0 0-.096.085.37.37 0 0 0-.052.126c.046.026.099.05.162.062.062.014.138.02.23.02h.348v.003Z"/><path fill="#1D1D1B" d="M23.716 22.116a.168.168 0 0 1-.128-.056.193.193 0 0 1-.05-.132c0-.06.033-.116.1-.165a.386.386 0 0 1 .237-.076h1.203l-.16.43h-1.201Z"/><path fill="#1D1D1B" d="M24.919 22.116a.167.167 0 0 1-.13-.056.193.193 0 0 1-.049-.132c0-.06.033-.116.1-.165a.386.386 0 0 1 .237-.076h1.203l-.159.43H24.92Z"/><path fill="#1D1D1B" d="M26.12 22.116a.168.168 0 0 1-.128-.056.193.193 0 0 1-.05-.132c0-.06.033-.116.1-.165a.386.386 0 0 1 .237-.076h1.203l-.159.43h-1.202Z"/><path fill="#1D1D1B" d="M27.323 22.116a.167.167 0 0 1-.128-.056.193.193 0 0 1-.05-.132c0-.06.033-.116.1-.165a.386.386 0 0 1 .237-.076h1.202l-.158.43h-1.203Z"/><path fill="#1D1D1B" d="M28.526 22.116a.167.167 0 0 1-.129-.056.193.193 0 0 1-.05-.132c0-.06.034-.116.1-.165a.386.386 0 0 1 .238-.076h1.202l-.159.43h-1.202Z"/><path fill="#1D1D1B" d="M29.728 22.116a.167.167 0 0 1-.129-.056.193.193 0 0 1-.05-.132c0-.06.034-.116.1-.165a.386.386 0 0 1 .238-.076h1.202l-.158.43h-1.203Z"/><path fill="#1D1D1B" d="M30.93 22.116a.167.167 0 0 1-.128-.056.193.193 0 0 1-.05-.132c0-.06.034-.116.1-.165a.386.386 0 0 1 .237-.076h1.203l-.159.43h-1.202Z"/><path fill="#1D1D1B" d="M32.133 22.116a.168.168 0 0 1-.128-.056.193.193 0 0 1-.05-.132c0-.06.033-.116.1-.165a.386.386 0 0 1 .237-.076h1.203l-.16.43h-1.202Z"/><path fill="#1D1D1B" d="M33.336 22.116a.167.167 0 0 1-.129-.056.193.193 0 0 1-.05-.132c0-.06.034-.116.1-.165a.386.386 0 0 1 .238-.076h1.202l-.158.43h-1.203Z"/><path fill="#1D1D1B" d="M36.14 22.117a.478.478 0 0 1-.102-.014.733.733 0 0 1-.142-.049 1.075 1.075 0 0 1-.158-.096.635.635 0 0 1-.152-.158 1.387 1.387 0 0 1-.169-.278 1.822 1.822 0 0 1-.102-.304c0 .086-.007.165-.007.235 0 .07-.01.139-.023.198a.558.558 0 0 1-.066.165.377.377 0 0 1-.139.129c-.105.07-.195.116-.274.139-.076.02-.162.033-.258.033-.07 0-.119-.017-.148-.053a.166.166 0 0 1-.05-.116c0-.063.03-.122.09-.178.059-.056.148-.086.274-.086.02 0 .052 0 .095-.007a.55.55 0 0 0 .264-.096.288.288 0 0 0 .096-.112c0-.053-.006-.112-.01-.181a2.475 2.475 0 0 0-.02-.215c-.006-.076-.016-.152-.026-.228a5.918 5.918 0 0 1-.026-.225 27.07 27.07 0 0 1-.06-.505c-.02-.182-.043-.367-.06-.552l-.049-.551c-.013-.182-.023-.35-.03-.506 0-.01.007-.036.02-.08l.043-.138a.792.792 0 0 1 .056-.129c.02-.036.037-.056.053-.056.023 0 .037.023.04.073.003.05.007.138.017.264a16.489 16.489 0 0 0 .132 1.074c.03.191.06.376.085.555.027.178.053.323.073.446.017.066.033.142.056.224.023.083.047.165.076.248.03.083.06.162.096.238.033.076.07.138.106.195a.566.566 0 0 0 .274.214c.106.04.205.06.304.06l-.162.433-.016-.01Z"/><path fill="#1D1D1B" d="M37.343 22.117c-.08.006-.179.01-.294.016-.116.007-.228.01-.34.01-.1 0-.199 0-.298-.01-.099-.006-.191-.013-.27-.016-.063-.007-.106-.027-.136-.06a.171.171 0 0 1-.043-.112c0-.063.03-.122.092-.175a.363.363 0 0 1 .245-.08c.09.007.182.01.274.014.093.003.195.006.297.006.103 0 .218 0 .327-.006a6.98 6.98 0 0 0 .301-.014l-.158.43.003-.003Z"/><path fill="#1D1D1B" d="M37.607 21.684c.04 0 .086-.007.139-.017.053-.01.106-.016.158-.03a.797.797 0 0 0 .142-.046.225.225 0 0 0 .093-.059c0-.056-.007-.116-.013-.178a1.357 1.357 0 0 0-.02-.14c-.036-.21-.08-.415-.126-.62a40.132 40.132 0 0 1-.135-.608 9.28 9.28 0 0 1-.112-.618 6.623 6.623 0 0 1-.063-.647.99.99 0 0 1-.06-.073c-.016-.023-.02-.053-.02-.09 0-.035.01-.085.027-.141.017-.056.036-.113.06-.165.023-.053.059-.116.108-.192l.014.02c.013.05.03.092.05.125a.489.489 0 0 0 .172.165c.039.024.078.053.128.086-.007.024-.013.05-.026.08-.014.03-.024.063-.033.092-.014.03-.024.06-.037.086-.013.027-.023.05-.033.063-.013.02-.026.03-.043.033-.016 0-.033.007-.05.007.02.128.037.25.057.37.02.118.04.237.063.36.023.122.046.247.072.376.027.129.056.268.09.42.02.082.032.165.049.247.017.083.026.162.033.238.01.076.017.146.02.209.003.062.006.118.006.168 0 .135-.006.258-.02.367a.948.948 0 0 1-.108.33.348.348 0 0 1-.146.1c-.07.026-.145.049-.228.065a2.192 2.192 0 0 1-.472.046c-.07 0-.119-.016-.155-.052a.168.168 0 0 1-.053-.126c0-.06.033-.116.096-.168a.448.448 0 0 1 .27-.086h.106v.003ZM2.263 35.922v4.265h-.376v-4.265h.376ZM5.428 35.984c.238-.062.483-.082.747-.082.545 0 .938.102 1.229.284.43.26.816.803.816 1.734 0 1.044-.34 1.526-.641 1.797-.367.337-.928.486-1.517.486-.218 0-.455-.007-.63-.036v-4.183h-.004Zm.377 3.968c.122.013.228.013.29.013.86 0 1.728-.386 1.728-2.005 0-1.196-.545-1.824-1.648-1.824-.122 0-.264.014-.367.027v3.789h-.003ZM13.07 38.066h-1.56v1.88h1.787v.24h-2.164v-4.264h2.052v.241H11.51v1.665h1.56v.241-.003ZM16.075 40.187v-4.265h.377l1.192 2.203c.291.539.605 1.114.833 1.632h.016c-.062-.81-.062-1.239-.062-1.949v-1.886h.36v4.265h-.377l-1.262-2.316a13.302 13.302 0 0 1-.763-1.55h-.017c.063.658.063 1.127.063 2.069v1.797h-.36ZM22.659 36.156h-1.103v-.234h2.586v.234H23.04v4.03h-.377v-4.03h-.003ZM27.268 35.922v4.265h-.377v-4.265h.377ZM31.152 36.156H30.05v-.234h2.586v.234h-1.103v4.03h-.377v-4.03h-.003ZM36.461 40.186v-1.91l-1.305-2.351h.403l.595 1.1c.165.31.36.657.518 1h.017c.149-.34.344-.676.525-1.017l.595-1.083h.403l-1.378 2.342v1.923h-.376l.003-.004ZM3.05 45.977l-.473 1.467H2.21l1.395-4.265h.36l1.41 4.265H4.99l-.473-1.467H3.05Zm1.377-.234L4.05 44.54c-.105-.33-.185-.634-.264-.974H3.75c-.07.347-.159.664-.255.98l-.366 1.197h1.298ZM7.348 43.183v2.91c0 .859.42 1.156.954 1.156.605 0 .982-.34.982-1.156v-2.91h.376v2.877c0 1.113-.667 1.437-1.377 1.437s-1.315-.297-1.315-1.348v-2.966h.38ZM12.412 43.414h-1.103v-.235h2.586v.235h-1.103v4.03h-.377v-4.03h-.003ZM15.91 43.183v1.902h1.936v-1.902h.377v4.264h-.377v-2.12H15.91v2.12h-.376v-4.264h.376ZM23.115 45.313c0 1.59-.737 2.184-1.586 2.184-.763 0-1.5-.588-1.5-2.184 0-1.595.747-2.183 1.606-2.183.753 0 1.48.581 1.48 2.183Zm-2.693 0c0 .823.228 1.936 1.157 1.936.928 0 1.14-1.113 1.14-1.936 0-.822-.229-1.935-1.15-1.935-.922 0-1.15 1.1-1.15 1.935h.003ZM24.919 43.246c.237-.063.525-.083.796-.083.551 0 .911.103 1.176.297a.982.982 0 0 1 .386.797c0 .6-.386.925-.974 1.12v.013c.456.082.7.406.842 1.024.149.65.244.911.317 1.03h-.377c-.089-.132-.191-.518-.323-1.077-.149-.62-.446-.878-1.14-.878h-.324v1.955h-.376v-4.202l-.003.004Zm.376 2.031h.334c.726 0 1.252-.373 1.252-.968 0-.594-.324-.911-1.183-.911-.159 0-.297.006-.403.026v1.853ZM29.494 43.183v4.264h-.376v-4.264h.376ZM32.266 43.414h-1.104v-.235h2.587v.235h-1.104v4.03h-.376v-4.03h-.003ZM36.461 47.444v-1.91l-1.305-2.351h.403l.595 1.1c.165.31.36.657.518 1h.017c.149-.34.344-.677.525-1.017l.595-1.083h.403l-1.378 2.342v1.922h-.376l.003-.003Z"/></g></g><defs><clipPath id="clip0_353_1923"><path fill="#fff" d="M.5.839h80V49.87H.5z"/></clipPath><clipPath id="clip1_353_1923"><path fill="#fff" d="M.866.839h76.687v48.069H.866z"/></clipPath></defs></svg>