<svg xmlns="http://www.w3.org/2000/svg" width="108" height="42" fill="none" viewBox="0 0 108 42"><g clip-path="url(#clip0_353_2087)"><g clip-path="url(#clip1_353_2087)"><path fill="#8CC540" d="M65.94 20.854h12.725a6.807 6.807 0 0 0 6.807-6.807V1.322C83.627 11.214 75.832 19 65.95 20.854M106.072 21.93H93.348a6.807 6.807 0 0 0-6.808 6.808v12.716c1.846-9.892 9.64-17.678 19.524-19.524"/><path fill="#008C99" d="M86.549 1.322v12.725a6.807 6.807 0 0 0 6.807 6.807h12.716C96.189 19 88.394 11.214 86.549 1.322Z"/><path fill="#000" d="M81.919 30.43h-.21c-.146 0-.316-.041-.518-.13-.26-.105-.389-.227-.389-.38 0-.057.032-.154.097-.284.081-.178.17-.275.267-.275.114 0 .276.154.478.453.154.235.243.413.283.518v.097h-.008Zm-1.603-.397c-.121.137-.243.202-.356.202-.089 0-.226-.04-.404-.105-.251-.09-.373-.194-.373-.316 0-.016.049-.097.146-.235.275-.356.502-.534.68-.534.121 0 .234.081.348.235.105.154.162.283.162.397 0 .113-.065.226-.186.364m-22.664-.275a2 2 0 0 1-.308-.04 3.58 3.58 0 0 1-.559-.163.815.815 0 0 1-.38-.235c.113-.088.3-.178.559-.258.25-.082.428-.154.526-.22.137-.169.25-.323.332-.469l.226 1.385h-.396Zm24.501-.292c-.251-.494-.834-1.117-1.757-1.878-.17-.137-.267-.202-.29-.202-.05 0-.13.097-.236.291-.105.203-.153.324-.153.389a.978.978 0 0 0 0 .307c-.34.324-.624.761-.85 1.32a1.917 1.917 0 0 0-.106.42c-.04.179-.08.284-.137.308h-6.419c-.008-.08-.024-.178-.024-.291-.008-.113-.016-.178-.016-.202v-.745l-.04-.324a3.897 3.897 0 0 1-.041-.388c-.025.008-.13.137-.316.388-.178.251-.275.405-.275.478 0 .008.024.145.064.42.041.268.065.462.065.567l-.016.097h-2.218c-.145 0-.234-.056-.283-.186l.227-1.513v-.357c-.073.057-.219.21-.454.478-.234.267-.348.429-.348.477v.826c-.032.081-.105.146-.226.203-.122.048-.21.08-.284.08h-8.871c-.235 0-.405-.056-.494-.162l-.04-.12c-.17-1.434-.292-2.502-.373-3.206-.323.364-.493.59-.534.696-.008.194 0 .348.024.453-.08.04-.291.122-.623.227-.275.089-.47.186-.59.291-.39.332-.64.818-.745 1.45.13.096.267.17.429.226.08.04.202.073.356.105.55.154.866.227.914.227l.146-.081c.049-.098.105-.186.146-.276.08-.137.162-.218.25-.25a.729.729 0 0 1 .066.226c.04.34.064.534.097.583a.594.594 0 0 0 .291.332c.073.04.138.056.186.056h9.438c.186-.283.3-.445.332-.477.065.097.121.194.186.291.09.122.17.187.251.187h2.412c.203-.276.316-.43.348-.454.122.203.21.356.267.454H78.6c-.097 0 .284-.065 1.142-.187l1.99.187c.139-.05.268-.187.39-.43.12-.234.186-.46.186-.663 0-.162-.065-.373-.187-.64m-10.878 3.003c-.446-.275-.745-.453-.899-.526-.121.154-.243.372-.388.664l.914.502c.13-.194.21-.332.267-.421.389.202.68.364.875.477a5.64 5.64 0 0 0 .356-.647c-.51-.3-.793-.462-.866-.494-.122.203-.21.356-.267.453m-3.789-5.779c.154.032.308.073.454.105-.122.105-.243.21-.373.308-.226.194-.348.34-.348.429l.057.08c.712-.51 1.36-.784 1.943-.833.121-.17.21-.308.25-.413h-.955c-.68-.04-1.02-.154-1.02-.323 0-.098.081-.203.235-.316.154-.114.3-.178.437-.178.146 0 .3.056.437.178.13-.243.187-.356.187-.332 0-.04-.049-.113-.146-.194-.097-.09-.17-.138-.219-.138-.291 0-.574.154-.858.462-.275.307-.42.598-.42.882 0 .137.113.235.347.291m-10.757 0c.154-.267.251-.413.3-.445.445.25.72.405.833.453l.348-.575-.898-.566a8.72 8.72 0 0 0-.291.478 13.67 13.67 0 0 1-.85-.478l-.357.631c.098.049.251.138.462.251.202.113.356.203.453.251Zm-4.93-.437.494 4.946c.26-.51.389-.972.389-1.368l-.283-4.865c-.397.631-.6 1.06-.6 1.287Zm-4.637 4.112c-.073.04-.122.065-.162.065H43.01c.445-.235.882-.47 1.31-.704.551-.284 1.02-.43 1.41-.43.186 0 .364.025.526.081.088.025.258.13.51.324.307.227.46.405.46.526 0 .049-.032.09-.104.138m-21.936-.599a2 2 0 0 1-.308-.04 3.347 3.347 0 0 1-.558-.162.778.778 0 0 1-.38-.235c.113-.09.299-.178.558-.26.25-.08.429-.153.534-.218.146-.17.251-.323.332-.47l.227 1.385h-.405Zm25.53-3.464a11.02 11.02 0 0 1-.624-.332c-.065-.033-.089-.09-.089-.162l.024-.13a.57.57 0 0 0 0-.17h-.137c-.227.365-.389.648-.494.85a.373.373 0 0 0-.04.186c0 .073.016.122.04.146.073.09.13.154.17.186.121.818.21 1.45.267 1.894.025.146.049.357.081.607.057.43.081.68.081.761a.603.603 0 0 1-.024.219l-.016.065c-.162 0-.786 0-1.878.008h-.348c.032-.049.097-.162.21-.348.09-.13.138-.21.138-.243 0-.324-.243-.64-.729-.931-.437-.267-.817-.405-1.141-.405-.47 0-1.133.26-2.008.777-1.052.632-1.788 1.012-2.201 1.142h-.502c-.218 0-.348-.033-.389-.106.122-.153.211-.396.251-.744.025-.219.049-.445.065-.672-.259.25-.502.494-.72.737 0 .145 0 .275-.016.412-.017.26-.114.389-.284.389H39.15l-4.412-.008c-.097 0-.178-.065-.25-.203l-.033-.097v-.089c.162-.073.356-.121.575-.162.121-.024.202-.04.242-.04h.688l.316-.801h-.445c-.275 0-.47-.009-.59-.041-.883-.21-1.547-.38-1.976-.502a1.858 1.858 0 0 0-.534-.065c-.146 0-.219 0-.235.017-.121.032-.235.08-.332.13-.21.12-.388.347-.526.679a1.196 1.196 0 0 0-.08.251v.146c.048-.025.161-.106.315-.227a.779.779 0 0 1 .356-.138l.09-.024.096-.016c.219 0 .785.13 1.684.389-.389.299-.761.517-1.11.655a2.13 2.13 0 0 1-.695.13h-5.585c-.243 0-.405-.057-.494-.162l-.04-.122c-.17-1.432-.292-2.5-.373-3.205-.324.364-.494.59-.534.696-.008.194 0 .348.024.453-.08.04-.283.122-.623.227-.275.089-.47.186-.583.291-.388.332-.64.818-.745 1.45.122.096.268.17.421.226.081.04.203.073.357.105.558.154.866.227.914.227l.146-.081c.049-.097.105-.186.146-.275.08-.138.161-.219.259-.251a.551.551 0 0 1 .056.226c.04.34.073.535.097.583a.625.625 0 0 0 .292.332c.065.04.13.057.186.057h6.305c.04 0 .114-.017.21-.057a6.14 6.14 0 0 0 .648-.437c.284-.202.502-.364.656-.47.09.421.154.664.186.729.057.154.138.227.227.227h5.787c.065 0 .178-.09.365-.267.08.12.137.202.186.267H50.1c.105-.146.178-.316.21-.518.025-.178.057-.357.082-.535.024-.154.04-.283.04-.413l-.235-2.565.057.04c.162-.283.308-.583.453-.906m-26.444.388c.154-.267.251-.413.3-.445.445.25.72.405.833.453l.348-.575-.89-.566c-.17.267-.267.429-.3.477a13.67 13.67 0 0 1-.85-.477l-.355.631c.097.049.25.138.461.251.21.113.364.203.453.251Zm-5.714 6.103.866.542c.226-.38.356-.599.38-.663-.59-.316-.89-.486-.89-.494-.09.154-.21.356-.356.615Zm1.4-4.517c-.259.519-.389.778-.389.786.34.696.502 1.133.502 1.287v.08h-2.226c-.202-.275-.356-.752-.453-1.424-.105-.777-.218-1.295-.332-1.554-.04.089-.113.226-.218.42a8.04 8.04 0 0 0-.219.422l.43 1.635c-.041.291-.155.461-.333.502a5.484 5.484 0 0 1-1.238.162c-.251 0-.486-.025-.704-.081l-.138-.122s-.04-.097-.057-.186c-.008-.235-.04-.364-.089-.38-.194.558-.291.947-.291 1.157 0 .032.024.113.08.251l.106.08c.186.05.397.082.615.082.308 0 .688-.033 1.133-.081.38-.057.591-.105.648-.146.218-.291.364-.526.437-.704.016.024.073.146.17.348.073.154.154.251.251.308a.55.55 0 0 0 .21.089h2.453c.154-.656.235-1.077.235-1.263 0-.219-.073-.51-.203-.898-.137-.389-.267-.64-.396-.761m-7.609 0c-.259.518-.388.777-.388.785.34.696.51 1.133.51 1.287l-.017.08H3.485c-.17.357-.307.624-.42.81.088.04.29.073.622.097.332.017.559.057.697.106.234.105.348.299.356.566-.17.13-.413.251-.704.364-.316.114-.72.195-1.198.227-.38.008-.567.016-.559.016-1.036 0-1.562-.372-1.562-1.117 0-.194.105-.51.307-.955.203-.445.3-.672.292-.68v-.121l-.065-.025c-.227.227-.445.575-.656 1.06-.21.486-.315.915-.315 1.296 0 .477.178.842.518 1.093.3.21.672.315 1.141.315.324 0 .672-.048 1.052-.145.632-.154 1.166-.357 1.611-.616l.105-.153c.389-.607.656-1.06.802-1.36h7.252c.162-.656.243-1.077.243-1.263 0-.218-.073-.51-.21-.898-.138-.389-.268-.64-.397-.761m-1.4 4.516.866.543c.226-.38.356-.6.38-.664-.59-.316-.89-.486-.89-.494l-.364.615M2.82 34.63l-.825-.51c-.186.3-.308.51-.356.64.388.218.68.372.866.47.145-.268.226-.414.243-.422.364.219.615.365.769.421.024-.04.089-.137.186-.291.08-.122.121-.203.121-.227v-.089l-.76-.42c-.106.185-.187.323-.236.428M.927 40.79h1.004c.526 0 .93-.186 1.198-.55.275-.364.413-.842.413-1.441 0-.486-.138-.923-.389-1.311-.259-.389-.664-.583-1.222-.583H.927v3.885Zm-.615.518v-4.913h1.651c.696 0 1.239.235 1.62.712.388.47.582 1.053.582 1.74 0 .689-.186 1.28-.567 1.757-.372.47-.858.712-1.432.712H.32l-.008-.008ZM7.897 36.395h.51v3.213c0 .64-.154 1.11-.478 1.385-.316.275-.728.42-1.238.42-.575 0-.996-.145-1.263-.436-.275-.284-.413-.745-.413-1.377v-3.213h.615V39.6c0 .38.04.656.13.81a.78.78 0 0 0 .405.348c.178.073.364.105.566.105.38 0 .672-.097.866-.3.194-.202.292-.526.292-.97v-3.214l.008.016ZM10.155 40.774h1.319c.324 0 .575-.081.745-.235a.763.763 0 0 0 .267-.607c0-.178-.04-.34-.122-.486a.83.83 0 0 0-.34-.348c-.145-.08-.356-.121-.639-.121h-1.23v1.797Zm0-2.267h1.068c.445 0 .737-.089.89-.25a.865.865 0 0 0 .227-.6.69.69 0 0 0-.243-.55c-.162-.138-.396-.21-.712-.21h-1.23v1.61Zm-.6 2.81v-4.914h1.951c.494 0 .85.121 1.085.356.235.243.356.518.356.834 0 .558-.291.93-.874 1.109.348.089.599.242.769.477.17.227.25.486.25.777 0 .38-.129.704-.388.972-.259.259-.663.388-1.206.388H9.556ZM16.072 39.414l-.761-2.364-.761 2.364h1.522Zm1.254 1.902h-.631l-.494-1.44H14.38l-.445 1.44h-.51l1.594-4.913h.705l1.602 4.913ZM18.581 36.395h-.615v4.913h.615v-4.913ZM25.17 41.308h-.616V38.97h-2.282v2.34h-.615v-4.914h.615v2.032h2.283v-2.032h.615v4.913ZM29.573 40.774v.534H26.4v-4.913h3.108v.542h-2.501V38.5h1.983V39h-1.983v1.773h2.566ZM32.495 39.414l-.76-2.364-.753 2.364h1.521-.008Zm1.255 1.902h-.623l-.494-1.44H30.82l-.445 1.44h-.519l1.595-4.913h.704l1.603 4.913h-.008ZM37.295 40.774v.534h-2.906v-4.913h.623v4.379h2.283ZM39.003 41.308h-.615v-4.37H36.98v-.543h3.431v.542h-1.408v4.371ZM44.612 41.308h-.615V38.97h-2.282v2.34H41.1v-4.914h.615v2.032h2.282v-2.032h.615v4.913ZM49.744 39.414l-.76-2.364-.762 2.364h1.522ZM51 41.316h-.632l-.493-1.44H48.06l-.446 1.44h-.51l1.595-4.913h.704l1.603 4.913h-.008ZM54.269 36.395h.51v3.213c0 .64-.154 1.11-.478 1.385-.316.275-.729.42-1.247.42-.566 0-.987-.145-1.262-.436-.276-.284-.413-.745-.413-1.377v-3.213h.615V39.6c0 .38.04.656.138.81a.78.78 0 0 0 .404.348c.178.073.373.105.567.105.38 0 .664-.097.866-.3.194-.202.3-.526.3-.97v-3.214.016ZM57.418 41.308h-.615v-4.37h-1.409v-.543h3.432v.542h-1.408v4.371ZM63.027 41.308h-.616V38.97H60.13v2.34h-.615v-4.914h.615v2.032h2.282v-2.032h.616v4.913ZM65.965 40.912c.43 0 .77-.195 1.004-.591.243-.389.364-.89.364-1.514 0-.623-.121-1.125-.372-1.481-.251-.348-.583-.526-.996-.526-.413 0-.753.194-1.004.574-.25.38-.372.883-.372 1.498s.122 1.093.373 1.473c.25.38.582.567 1.003.567Zm-.016.502c-.631 0-1.125-.243-1.473-.737-.356-.494-.526-1.093-.526-1.805s.178-1.36.55-1.846c.373-.485.858-.728 1.473-.728.615 0 1.093.235 1.457.712.364.478.55 1.077.55 1.805 0 .729-.177 1.303-.534 1.821-.356.518-.85.777-1.497.777ZM69.486 38.678h1.287c.34 0 .59-.09.76-.267a.91.91 0 0 0 .252-.656c0-.26-.09-.462-.267-.607a1.009 1.009 0 0 0-.664-.219h-1.368v1.749Zm2.962 2.63h-.647l-.899-2.129h-1.416v2.13h-.575v-4.914h1.935c.526 0 .914.138 1.173.429.251.283.38.599.38.939 0 .267-.072.518-.21.76-.137.236-.372.414-.704.51l.963 2.275ZM74.035 36.395h-.615v4.913h.615v-4.913ZM76.755 41.308h-.615v-4.37H74.73v-.543h3.432v.542h-1.408v4.371ZM82.364 36.395l-1.643 2.85v2.063h-.615v-2.064l-1.651-2.849h.728l1.303 2.258 1.311-2.258h.567Z"/></g></g><defs><clipPath id="clip0_353_2087"><path fill="#fff" d="M.5 0h107.042v41.435H.5z"/></clipPath><clipPath id="clip1_353_2087"><path fill="#fff" d="M.28 1.322h105.793v40.132H.28z"/></clipPath></defs></svg>