<svg xmlns="http://www.w3.org/2000/svg" width="44" height="62" fill="none" viewBox="0 0 44 62"><g clip-path="url(#clip0_353_2145)"><path fill="url(#paint0_radial_353_2145)" d="M20.047 3.009a4.333 4.333 0 1 0 6.13 6.127 4.333 4.333 0 0 0-6.13-6.127"/><path fill="url(#paint1_radial_353_2145)" d="M12.479 10.577a4.334 4.334 0 1 0 6.129 0 4.313 4.313 0 0 0-3.064-1.268c-1.11 0-2.219.423-3.065 1.268Z"/><path fill="url(#paint2_radial_353_2145)" d="M4.966 18.09a4.333 4.333 0 1 0 6.129 6.128 4.333 4.333 0 1 0-6.13-6.128"/><path fill="url(#paint3_radial_353_2145)" d="M27.612 10.573a4.334 4.334 0 1 0 6.13 6.13 4.334 4.334 0 0 0-6.13-6.13Z"/><path fill="url(#paint4_radial_353_2145)" d="M35.175 18.138a4.333 4.333 0 1 0 6.13 6.128 4.33 4.33 0 0 0 0-6.128 4.317 4.317 0 0 0-3.066-1.27c-1.11 0-2.218.424-3.064 1.27Z"/><path fill="url(#paint5_radial_353_2145)" d="M27.61 25.704a4.334 4.334 0 1 0 6.132 6.129 4.334 4.334 0 0 0-6.134-6.129"/><path fill="url(#paint6_radial_353_2145)" d="M20.095 33.219a4.334 4.334 0 1 0 6.13 6.125 4.334 4.334 0 0 0-6.13-6.125Z"/><path fill="url(#paint7_radial_353_2145)" d="M20.044 18.14a4.335 4.335 0 1 0 6.129 6.124 4.335 4.335 0 0 0-6.129-6.123Z"/><path fill="url(#paint8_radial_353_2145)" d="M12.532 25.653a4.333 4.333 0 1 0 6.128 6.128 4.333 4.333 0 0 0-6.128-6.128Z"/><path fill="#000001" d="M6.227 54.136H1.714a.22.22 0 0 0-.13.044.143.143 0 0 0-.055.113v.851c0 .043.022.081.054.108a.194.194 0 0 0 .13.05h1.485v4.816c0 .043.016.087.054.12a.18.18 0 0 0 .125.048h1.192a.209.209 0 0 0 .13-.043.164.164 0 0 0 .054-.12v-4.816h1.474a.194.194 0 0 0 .13-.05.134.134 0 0 0 .06-.113v-.85a.134.134 0 0 0-.06-.114.22.22 0 0 0-.13-.044ZM11.851 54.44a1.874 1.874 0 0 0-.688-.277 4.545 4.545 0 0 0-.9-.081h-.66c-.45 0-.84.054-1.16.157-.32.103-.58.293-.77.558-.189.277-.286.645-.286 1.111v4.221c0 .049.016.087.06.114a.19.19 0 0 0 .124.048h1.203a.193.193 0 0 0 .124-.043.178.178 0 0 0 .044-.119v-2.01h1.977v2.01a.16.16 0 0 0 .163.163h1.203a.22.22 0 0 0 .13-.044.16.16 0 0 0 .049-.119v-4.221c0-.363-.054-.661-.163-.905a1.373 1.373 0 0 0-.455-.558m-.927 2.503H8.942v-1.045c0-.228.049-.385.14-.472.098-.081.266-.124.515-.124h.662c.168 0 .303.021.4.054a.338.338 0 0 1 .2.184c.039.087.06.206.06.358v1.045ZM17.736 57.35a2.817 2.817 0 0 0-.726-.483l-1.165-.569c-.25-.124-.412-.222-.493-.298a.37.37 0 0 1-.125-.281c0-.152.06-.26.168-.33.109-.071.293-.11.542-.11.163 0 .341 0 .536.011.196.011.38.017.559.028.178.01.314.021.417.027.103.01.244.016.417.027h.016c.103 0 .157-.044.157-.136v-.84c0-.08-.043-.13-.135-.151a6.36 6.36 0 0 0-.845-.125c-.39-.038-.754-.06-1.084-.06-.83 0-1.425.141-1.788.434-.363.287-.542.688-.542 1.181 0 .212.033.401.092.585.065.185.179.358.336.526.163.168.374.32.645.466l1.252.683c.232.124.39.233.476.32.087.086.125.189.125.308 0 .206-.054.358-.168.445-.114.086-.33.13-.64.13-.162 0-.433-.011-.818-.033a23.769 23.769 0 0 1-.91-.065h-.027c-.114 0-.162.054-.162.157v.808c0 .075.06.135.184.167a7.59 7.59 0 0 0 1.717.185c.44 0 .819-.054 1.144-.152.32-.103.585-.238.775-.412.194-.173.34-.363.427-.58.093-.21.136-.433.136-.666 0-.233-.038-.45-.108-.645a1.525 1.525 0 0 0-.39-.553M28.101 54.136H26.91a.193.193 0 0 0-.124.044.143.143 0 0 0-.054.113V56.5h-2.25v-2.206a.143.143 0 0 0-.053-.113.22.22 0 0 0-.13-.044H23.1a.22.22 0 0 0-.13.044.143.143 0 0 0-.054.113v5.825c0 .043.016.087.054.12a.19.19 0 0 0 .125.048h1.197a.19.19 0 0 0 .125-.049.146.146 0 0 0 .054-.119v-2.395h2.249v2.395c0 .043.016.087.06.12a.191.191 0 0 0 .124.048h1.192a.19.19 0 0 0 .125-.049.151.151 0 0 0 .06-.119v-5.825a.143.143 0 0 0-.055-.113.217.217 0 0 0-.125-.044ZM33.563 54.174a12.625 12.625 0 0 0-.688-.076 14.763 14.763 0 0 0-1.067-.032 4.23 4.23 0 0 0-1.15.135 1.412 1.412 0 0 0-.78.531c-.195.26-.297.629-.297 1.106v2.747c0 .358.06.655.173.894a1.3 1.3 0 0 0 .471.547c.2.13.434.217.688.266.26.048.553.075.873.075.422 0 .764-.01 1.035-.032.27-.022.515-.049.731-.076.12-.016.184-.076.184-.173v-.775a.162.162 0 0 0-.054-.12.172.172 0 0 0-.124-.048H31.71c-.217 0-.368-.043-.45-.125-.086-.08-.13-.227-.13-.438v-.878h2.363a.191.191 0 0 0 .124-.05.151.151 0 0 0 .06-.118v-.786a.154.154 0 0 0-.054-.12.176.176 0 0 0-.13-.048H31.13v-.753c0-.211.044-.363.13-.439.082-.081.233-.125.45-.125h1.848a.172.172 0 0 0 .124-.048.146.146 0 0 0 .054-.12v-.769c0-.092-.06-.146-.184-.163M39.171 54.174a12.625 12.625 0 0 0-.688-.076 14.763 14.763 0 0 0-1.068-.032 4.23 4.23 0 0 0-1.148.135 1.412 1.412 0 0 0-.78.531c-.196.26-.299.629-.299 1.106v2.747c0 .358.06.655.174.894.114.238.276.417.477.547.2.13.433.217.688.266.26.048.553.075.878.075.422 0 .764-.01 1.035-.032.27-.022.514-.049.726-.076.119-.016.178-.076.178-.173v-.775a.162.162 0 0 0-.054-.12.176.176 0 0 0-.13-.048h-1.847c-.217 0-.369-.043-.45-.125-.087-.08-.13-.227-.13-.438v-.878h2.362a.191.191 0 0 0 .125-.05.151.151 0 0 0 .06-.118v-.786a.154.154 0 0 0-.055-.12.185.185 0 0 0-.13-.048h-2.362v-.753c0-.211.043-.363.13-.439.081-.081.233-.125.45-.125h1.847a.185.185 0 0 0 .13-.048.146.146 0 0 0 .054-.12v-.769c0-.092-.06-.146-.178-.163M44.416 59.143H42.85c-.217 0-.368-.038-.45-.125-.086-.081-.13-.227-.13-.439V54.3c0-.038-.016-.076-.06-.114a.173.173 0 0 0-.124-.054H40.89a.173.173 0 0 0-.125.054c-.038.033-.06.07-.06.114v4.28c0 .358.06.656.174.894.114.239.276.423.477.548.2.124.433.211.693.26.26.049.553.076.878.076.618 0 1.11-.038 1.485-.109.119-.021.179-.081.179-.173V59.3a.135.135 0 0 0-.06-.114.187.187 0 0 0-.125-.054M21.664 56.456h-2.492a.252.252 0 0 0-.25.249v.764c0 .14.114.25.25.25h2.492c.135 0 .25-.11.25-.25v-.764a.252.252 0 0 0-.25-.25ZM10.854 50.772h.862c.168 0 .303.135.303.303v.937a.303.303 0 0 1-.303.304h-.862a.303.303 0 0 1-.303-.304v-.937c0-.168.135-.309.309-.309l-.006.006ZM14.133 52.012v-.943a.304.304 0 0 0-.31-.303h-.86a.303.303 0 0 0-.304.303v.943c0 .168.135.31.303.31h.862a.309.309 0 0 0 .309-.31Z"/><path fill="#000001" d="M44.291 44.508h-.845a.309.309 0 0 0-.309.309v2.725c0 .585-.086.818-.146.91-.043.076-.168.293-.764.293h-3.348a3.24 3.24 0 0 0 .102-.861v-3.067a.308.308 0 0 0-.303-.31h-.85a.304.304 0 0 0-.304.31v2.725c0 1.105-.25 1.203-.91 1.203H34.37a3.43 3.43 0 0 0 .098-.861v-3.067a.309.309 0 0 0-.309-.31h-.85a.309.309 0 0 0-.31.31v2.725c0 1.154-.243 1.203-.726 1.203h-2.4c.065-.26.098-.547.098-.861v-3.067a.309.309 0 0 0-.31-.31h-.86a.309.309 0 0 0-.31.31v2.828c0 .732-.325 1.105-.97 1.105h-2.655c.093-.373.147-.758.147-1.164 0-2.731-1.815-4.449-4.747-4.525h-.206a.303.303 0 0 0-.303.304v.85c0 .168.135.31.303.31h.152c1.116.026 3.343.416 3.343 3.06 0 .407-.076.797-.2 1.166h-1.1c.19-.358.282-.76.282-1.214 0-1.463-.987-2.45-2.455-2.45s-2.503 1.014-2.503 2.46c0 .456.092.851.27 1.204h-3.651a3.43 3.43 0 0 0 .097-.862v-3.067a.308.308 0 0 0-.303-.309h-.851a.309.309 0 0 0-.309.31v2.725c0 .558-.076.807-.14.915-.044.076-.169.288-.765.288H8.92c.054-.277.076-.57.076-.884v-5.185a.303.303 0 0 0-.304-.304h-.85a.308.308 0 0 0-.31.304v5.023c0 1.788-.866 2.893-2.264 2.893-1.398 0-2.281-1.138-2.281-2.893V46.8a.308.308 0 0 0-.304-.309h-.845a.316.316 0 0 0-.309.309v1.062c0 2.378 1.577 4.107 3.744 4.107a3.593 3.593 0 0 0 3.154-1.831h34.082c.953 0 2.091-.39 2.091-2.25v-3.066a.312.312 0 0 0-.309-.309m-24.225 4.324c-.553 0-1.003-.558-1.003-1.252 0-.726.39-1.251 1.003-1.251.645 0 1.002.536 1.002 1.252 0 .715-.45 1.251-1.002 1.251Z"/></g><defs><radialGradient id="paint0_radial_353_2145" cx="0" cy="0" r="1" gradientTransform="matrix(8.86423 0 0 8.86403 20.22 3.207)" gradientUnits="userSpaceOnUse"><stop stop-color="#fff"/><stop offset=".1" stop-color="#EFC3C4"/><stop offset=".2" stop-color="#E18F91"/><stop offset=".29" stop-color="#D6666A"/><stop offset=".37" stop-color="#CF494D"/><stop offset=".44" stop-color="#CA373C"/><stop offset=".5" stop-color="#C93136"/><stop offset=".83" stop-color="#532123"/></radialGradient><radialGradient id="paint1_radial_353_2145" cx="0" cy="0" r="1" gradientTransform="matrix(9.00045 0 0 9.00026 12.751 10.738)" gradientUnits="userSpaceOnUse"><stop stop-color="#fff"/><stop offset=".1" stop-color="#EFC3C4"/><stop offset=".2" stop-color="#E18F91"/><stop offset=".29" stop-color="#D6666A"/><stop offset=".37" stop-color="#CF494D"/><stop offset=".44" stop-color="#CA373C"/><stop offset=".5" stop-color="#C93136"/><stop offset=".83" stop-color="#532123"/></radialGradient><radialGradient id="paint2_radial_353_2145" cx="0" cy="0" r="1" gradientTransform="matrix(9.918 0 0 9.91778 5.284 18.206)" gradientUnits="userSpaceOnUse"><stop stop-color="#fff"/><stop offset=".1" stop-color="#EFC3C4"/><stop offset=".2" stop-color="#E18F91"/><stop offset=".29" stop-color="#D6666A"/><stop offset=".37" stop-color="#CF494D"/><stop offset=".44" stop-color="#CA373C"/><stop offset=".5" stop-color="#C93136"/><stop offset=".83" stop-color="#532123"/></radialGradient><radialGradient id="paint3_radial_353_2145" cx="0" cy="0" r="1" gradientTransform="matrix(8.64786 0 0 8.64767 28.051 11.377)" gradientUnits="userSpaceOnUse"><stop stop-color="#fff"/><stop offset=".05" stop-color="#DCEBE4"/><stop offset=".14" stop-color="#9DC9B3"/><stop offset=".23" stop-color="#69AC8B"/><stop offset=".31" stop-color="#40956C"/><stop offset=".39" stop-color="#238555"/><stop offset=".45" stop-color="#117B47"/><stop offset=".5" stop-color="#0B7843"/><stop offset=".83" stop-color="#1A3B29"/></radialGradient><radialGradient id="paint4_radial_353_2145" cx="0" cy="0" r="1" gradientTransform="matrix(8.64786 0 0 8.64767 35.766 18.599)" gradientUnits="userSpaceOnUse"><stop stop-color="#fff"/><stop offset=".07" stop-color="#D5D5D5"/><stop offset=".18" stop-color="#A2A2A2"/><stop offset=".28" stop-color="#79797A"/><stop offset=".37" stop-color="#5C5C5C"/><stop offset=".44" stop-color="#4A4A4B"/><stop offset=".5" stop-color="#444445"/><stop offset=".83" stop-color="#262324"/></radialGradient><radialGradient id="paint5_radial_353_2145" cx="0" cy="0" r="1" gradientTransform="matrix(8.82282 0 0 8.82263 28.052 26.15)" gradientUnits="userSpaceOnUse"><stop stop-color="#fff"/><stop offset=".07" stop-color="#D5D5D5"/><stop offset=".18" stop-color="#A2A2A2"/><stop offset=".28" stop-color="#79797A"/><stop offset=".37" stop-color="#5C5C5C"/><stop offset=".44" stop-color="#4A4A4B"/><stop offset=".5" stop-color="#444445"/><stop offset=".83" stop-color="#262324"/></radialGradient><radialGradient id="paint6_radial_353_2145" cx="0" cy="0" r="1" gradientTransform="matrix(8.82149 0 0 8.82129 20.419 33.618)" gradientUnits="userSpaceOnUse"><stop stop-color="#fff"/><stop offset=".07" stop-color="#D5D5D5"/><stop offset=".18" stop-color="#A2A2A2"/><stop offset=".28" stop-color="#79797A"/><stop offset=".37" stop-color="#5C5C5C"/><stop offset=".44" stop-color="#4A4A4B"/><stop offset=".5" stop-color="#444445"/><stop offset=".83" stop-color="#262324"/></radialGradient><radialGradient id="paint7_radial_353_2145" cx="0" cy="0" r="1" gradientTransform="matrix(8.99511 0 0 8.99491 20.254 18.6)" gradientUnits="userSpaceOnUse"><stop stop-color="#fff"/><stop offset=".05" stop-color="#DCEBE4"/><stop offset=".14" stop-color="#9DC9B3"/><stop offset=".23" stop-color="#69AC8B"/><stop offset=".31" stop-color="#40956C"/><stop offset=".39" stop-color="#238555"/><stop offset=".45" stop-color="#117B47"/><stop offset=".5" stop-color="#0B7843"/><stop offset=".83" stop-color="#1A3B29"/></radialGradient><radialGradient id="paint8_radial_353_2145" cx="0" cy="0" r="1" gradientTransform="matrix(8.64786 0 0 8.64767 12.868 26.231)" gradientUnits="userSpaceOnUse"><stop stop-color="#fff"/><stop offset=".05" stop-color="#DCEBE4"/><stop offset=".14" stop-color="#9DC9B3"/><stop offset=".23" stop-color="#69AC8B"/><stop offset=".31" stop-color="#40956C"/><stop offset=".39" stop-color="#238555"/><stop offset=".45" stop-color="#117B47"/><stop offset=".5" stop-color="#0B7843"/><stop offset=".83" stop-color="#1A3B29"/></radialGradient><clipPath id="clip0_353_2145"><path fill="#fff" d="M.5 0h43.181v61.688H.5z"/></clipPath></defs></svg>