<svg xmlns="http://www.w3.org/2000/svg" width="116" height="22" fill="none" viewBox="0 0 116 22"><g clip-path="url(#clip0_353_2172)"><g fill="#315679" clip-path="url(#clip1_353_2172)"><path d="M1.527 4.961C.785 5.721.414 6.658.414 7.721v9.014h11.94v-2.026H2.368v-3.798h9.963V8.886H2.367v-1.19c0-.532.173-.962.544-1.342.37-.38.816-.557 1.31-.557h8.109V3.771H4.246c-1.063.026-1.978.406-2.72 1.19ZM23.702 8.911h-8.01V3.797H13.74v12.938h1.953V10.91h8.01v5.824h1.953V3.797h-1.953V8.91ZM29.363 6.177c.223-.228.495-.355.816-.355h8.8V3.797h-8.8c-.84 0-1.582.304-2.2.937a3.118 3.118 0 0 0-.915 2.253v.734c0 .886.297 1.646.915 2.254.618.607 1.36.936 2.2.936h5.686c.321 0 .593.102.816.355.222.228.346.506.346.835v1.469c0 .33-.099.608-.346.835a1.108 1.108 0 0 1-.816.355h-8.801v2.025h8.8c.841 0 1.583-.303 2.201-.936a3.118 3.118 0 0 0 .915-2.254v-1.468c0-.886-.297-1.646-.915-2.254-.618-.607-1.36-.936-2.2-.936h-5.686c-.321 0-.593-.102-.816-.355a1.162 1.162 0 0 1-.346-.835v-.735c.025-.354.124-.607.346-.835ZM42.293 3.67h-.495v12.685h.495V3.67ZM47.904 7.24c0 .101-.025.152-.05.177-.024.026-.098.026-.172.026h-.198c-.148 0-.272-.026-.396-.076a.545.545 0 0 1-.247-.228h-.494c-.42 0-.742-.076-.94-.253-.197-.178-.296-.405-.296-.735 0-.38.123-.658.346-.835.222-.177.544-.253.964-.253h.173a.67.67 0 0 1 .222.025.67.67 0 0 1 .223.025c.074 0 .124.026.173.026v1.468a.55.55 0 0 0 .074.304c.05.076.148.127.297.127h.123c.075 0 .124 0 .149.025.024.05.05.101.05.177ZM45.58 6.126c0 .228.075.405.223.507.148.1.37.151.643.151h.321V5.468c-.074 0-.173-.025-.222-.025h-.124c-.247 0-.445.05-.593.151-.173.127-.248.304-.248.532Zm.05-1.722c0-.075.025-.151.074-.202a.277.277 0 0 1 .198-.076c.074 0 .148.025.198.076.05.05.074.127.074.202a.291.291 0 0 1-.074.203.277.277 0 0 1-.198.076.277.277 0 0 1-.198-.076.292.292 0 0 1-.074-.203Zm.692 0c0-.075.025-.151.074-.202a.277.277 0 0 1 .198-.076c.074 0 .148.025.198.076.05.05.074.127.074.202a.292.292 0 0 1-.074.203.277.277 0 0 1-.198.076.277.277 0 0 1-.198-.076.292.292 0 0 1-.074-.203Z"/><path d="M47.706 7.443c-.074 0-.123-.026-.148-.05-.025-.026-.05-.077-.05-.153 0-.101.025-.152.05-.152.025-.025.1-.025.173-.025h.371c.148 0 .247-.025.272-.101.05-.076.074-.178.074-.33V5.14h.445v1.747c0 .025 0 .05.025.076.025.025.05.05.099.05.024.026.074.026.123.026h.272c.074 0 .124 0 .149.025.025.025.05.076.05.152 0 .101-.025.152-.05.177-.025.025-.1.025-.173.025h-.1a.869.869 0 0 1-.271-.05.443.443 0 0 1-.198-.178.685.685 0 0 1-.198.152c-.099.051-.222.076-.42.076h-.495v.026Zm.272.683c0-.076.025-.152.075-.202a.277.277 0 0 1 .197-.076c.075 0 .149.025.198.076.05.05.074.126.074.202a.291.291 0 0 1-.074.203.277.277 0 0 1-.198.076.277.277 0 0 1-.197-.076.292.292 0 0 1-.075-.203Zm.693 0c0-.076.024-.152.074-.202a.277.277 0 0 1 .198-.076c.074 0 .148.025.197.076.05.05.074.126.074.202a.292.292 0 0 1-.074.203.277.277 0 0 1-.197.076.277.277 0 0 1-.198-.076.291.291 0 0 1-.074-.203Z"/><path d="M51.118 7.063c-.049-.101-.099-.202-.123-.304-.025-.126-.05-.228-.05-.354-.024-.127-.024-.228-.05-.355a1.452 1.452 0 0 0-.098-.303.512.512 0 0 0-.198-.203.704.704 0 0 0-.346-.076c-.148 0-.247 0-.346.025-.099.026-.173.051-.222.051V5.19c.074-.026.148-.051.272-.076.123-.026.247-.051.395-.051.223 0 .42.025.544.101a.9.9 0 0 1 .321.279c.074.126.124.253.149.405.024.152.049.304.074.43.025.152.05.279.074.405a.794.794 0 0 0 .148.33h.322c.074 0 .123 0 .148.025.025.025.05.076.05.152 0 .101-.025.152-.05.177-.025.025-.099.025-.173.025h-2.546c-.149 0-.223-.076-.223-.228 0-.076.025-.1.05-.126.024-.025.099-.025.173-.025h1.705v.05Z"/><path d="M53.047 5.341a.903.903 0 0 1 .296-.05l.371-.076c.124-.026.247-.026.37-.051.124-.025.248-.025.347-.025.297 0 .544.025.717.1.197.077.346.153.445.28.099.126.173.253.222.43.05.177.05.354.05.557v.38c0 .025.024.05.05.076.024.025.049.05.098.05.025.026.074.026.124.026h.222c.074 0 .124 0 .148.025.025.025.05.076.05.152 0 .101-.025.152-.05.177-.024.025-.099.025-.173.025h-.05a.869.869 0 0 1-.271-.05.442.442 0 0 1-.198-.178.684.684 0 0 1-.198.152c-.098.051-.222.076-.42.076H51.91c-.074 0-.123-.025-.148-.05-.025-.026-.05-.076-.05-.152 0-.102.025-.152.05-.152.025-.026.099-.026.173-.026h.692V5.114h.445v.228h-.024Zm2.397 1.24c0-.176-.024-.354-.049-.48a.696.696 0 0 0-.173-.33c-.074-.1-.198-.151-.346-.202a1.662 1.662 0 0 0-.544-.076c-.099 0-.222 0-.321.025-.124 0-.223.026-.346.051-.124.025-.223.025-.322.05-.099.026-.198.051-.272.051v1.393h2.052c.148 0 .247-.026.272-.101.05-.076.074-.178.074-.33v-.05h-.025Z"/><path d="M56.359 7.443c-.074 0-.124-.025-.148-.05-.025-.026-.05-.077-.05-.153 0-.1.025-.152.05-.152.024-.025.099-.025.173-.025h.667V3.52h.445v3.924H56.36ZM58.683 3.519v3.924h-.445V3.519h.445ZM64.295 7.063V5.139h.445v2.304h-3.535c-.223 0-.42-.05-.544-.178-.149-.126-.198-.303-.198-.582V5.62h.445v1.012a.55.55 0 0 0 .074.304c.05.076.149.127.297.127h3.016Zm-2.3-2.33c0-.075.026-.151.075-.202a.277.277 0 0 1 .198-.076c.074 0 .148.025.197.076.05.05.075.127.075.203a.292.292 0 0 1-.075.202.277.277 0 0 1-.197.076.277.277 0 0 1-.198-.076c-.025-.05-.074-.126-.074-.202Zm.693 0c0-.075.025-.151.074-.202a.277.277 0 0 1 .198-.076c.074 0 .148.025.198.076.05.05.074.127.074.203a.292.292 0 0 1-.074.202.277.277 0 0 1-.198.076.277.277 0 0 1-.198-.076.292.292 0 0 1-.074-.202ZM66.619 7.24c0 .102-.025.152-.05.178-.025.025-.099.025-.173.025h-.198c-.222 0-.42-.05-.544-.177-.148-.127-.197-.304-.197-.583V3.52h.445v3.114c0 .152.024.253.074.329.05.076.148.101.297.101h.148c.074 0 .123 0 .173.025 0 .026.025.076.025.152Z"/><path d="M67.162 7.063a1.354 1.354 0 0 1-.123-.38 1.667 1.667 0 0 1-.074-.506c0-.152.024-.278.074-.43.05-.127.123-.254.222-.355.1-.101.223-.177.346-.228.149-.05.297-.076.495-.076s.37.026.519.102a.947.947 0 0 1 .52.658c.049.127.049.278.049.405 0 .152-.025.304-.074.456-.05.152-.124.278-.198.38a1.713 1.713 0 0 1-.322.278c-.123.076-.296.101-.47.101h-1.705c-.074 0-.124-.025-.148-.05-.025-.026-.05-.076-.05-.152 0-.101.025-.152.05-.152.024-.025.099-.025.173-.025h.716v-.026Zm.89 0a.517.517 0 0 0 .297-.076.512.512 0 0 0 .198-.202.947.947 0 0 0 .123-.279c.025-.101.025-.202.025-.304 0-.227-.05-.43-.173-.557-.099-.152-.272-.227-.47-.227a.86.86 0 0 0-.247.05.537.537 0 0 0-.198.127.888.888 0 0 0-.148.228c-.05.1-.05.202-.05.329 0 .101 0 .177.025.278.025.076.025.178.05.253.025.076.05.152.074.203.025.05.05.127.074.152h.42v.025ZM71.39 6.48c0-.151 0-.278-.025-.38-.025-.126-.05-.227-.124-.303a.794.794 0 0 0-.321-.203 1.721 1.721 0 0 0-.569-.075h-.42v-.355h.445c.297 0 .544.025.742.101a.95.95 0 0 1 .445.254.958.958 0 0 1 .222.38c.05.151.05.328.05.506v.506c0 .025.024.05.05.076.024.025.048.05.098.05.05.026.074.026.123.026h.223c.074 0 .124 0 .148.025.025.026.05.076.05.152 0 .101-.025.152-.05.177-.024.026-.099.026-.173.026h-.05a.871.871 0 0 1-.271-.05.443.443 0 0 1-.198-.178c-.05.05-.099.101-.198.152-.099.05-.222.076-.42.076H69.61v-.38h1.458c.149 0 .248-.025.272-.101.05-.076.074-.178.074-.33v-.151h-.024Z"/><path d="M74.06 7.063a1.565 1.565 0 0 1-.124-.304c-.025-.126-.05-.228-.05-.354-.024-.127-.024-.228-.049-.355-.025-.101-.05-.202-.099-.304-.05-.1-.123-.152-.198-.202-.074-.05-.197-.076-.346-.076-.148 0-.247 0-.346.025-.099.026-.173.05-.222.05V5.19c.074-.025.148-.05.272-.076.123-.025.247-.05.395-.05.223 0 .42.025.544.101a.898.898 0 0 1 .321.279c.075.126.124.253.149.405.024.152.05.303.074.43.025.152.05.279.074.405a.793.793 0 0 0 .148.33h.322c.074 0 .123 0 .148.025.025.025.05.076.05.152 0 .1-.025.151-.05.177-.025.025-.099.025-.173.025h-2.546c-.148 0-.223-.076-.223-.228 0-.076.025-.101.05-.126.025-.026.099-.026.173-.026h1.706v.051Zm-1.088-2.659c0-.075.025-.151.074-.202a.277.277 0 0 1 .198-.076c.074 0 .148.025.198.076.049.05.074.127.074.202a.292.292 0 0 1-.075.203.277.277 0 0 1-.197.076.277.277 0 0 1-.198-.076.291.291 0 0 1-.074-.203Z"/><path d="M74.851 7.443c-.074 0-.123-.025-.148-.05-.025-.026-.05-.077-.05-.153 0-.1.025-.152.05-.152.025-.025.099-.025.173-.025h.37c.149 0 .248-.025.273-.101.049-.076.074-.177.074-.33V3.52h.445v3.367c0 .025.024.05.049.076.025.025.05.05.099.05.05.026.074.026.123.026h.272c.075 0 .124 0 .149.025.024.025.05.076.05.152 0 .101-.026.152-.05.177-.025.026-.1.026-.173.026h-.149a.869.869 0 0 1-.272-.051.443.443 0 0 1-.197-.177.683.683 0 0 1-.198.152c-.099.05-.222.076-.42.076h-.47v.025Z"/><path d="M76.507 7.443c-.074 0-.123-.025-.148-.05-.025-.026-.05-.077-.05-.153 0-.1.025-.152.05-.152.025-.025.099-.025.173-.025h.668V3.52h.444v3.924h-1.137ZM83.207 7.063V5.139h.445v2.304h-3.535c-.223 0-.42-.05-.544-.178-.149-.126-.198-.303-.198-.582V5.62h.445v1.012a.55.55 0 0 0 .074.304c.05.076.148.127.297.127h3.016Zm-2.3-2.33c0-.075.025-.151.075-.202a.277.277 0 0 1 .198-.076c.074 0 .148.025.197.076.05.05.074.127.074.203a.292.292 0 0 1-.074.202.277.277 0 0 1-.197.076.277.277 0 0 1-.198-.076.291.291 0 0 1-.074-.202Zm.693 0c0-.075.025-.151.074-.202a.278.278 0 0 1 .198-.076c.074 0 .148.025.198.076.05.05.074.127.074.203a.292.292 0 0 1-.074.202.277.277 0 0 1-.198.076.278.278 0 0 1-.198-.076.292.292 0 0 1-.074-.202ZM84.814 3.519v3.924h-.445V3.519h.445ZM85.926 5.139h.445V7.34c0 .152-.024.304-.05.43a.794.794 0 0 1-.148.33.676.676 0 0 1-.296.228c-.124.05-.297.076-.495.076h-.099v-.38h.05c.222 0 .37-.05.445-.152.074-.101.123-.278.123-.506V5.139h.025ZM88.25 7.24c0 .102-.025.152-.05.178-.024.025-.098.025-.173.025h-.198c-.222 0-.42-.05-.543-.177-.149-.127-.198-.304-.198-.583V3.52h.445v3.114c0 .152.025.253.074.329.05.076.148.101.297.101h.148c.074 0 .124 0 .173.025 0 .026.025.076.025.152Z"/><path d="M88.769 7.063a1.36 1.36 0 0 1-.124-.38 1.67 1.67 0 0 1-.074-.506c0-.152.025-.278.074-.43.05-.127.124-.254.223-.355.099-.101.222-.177.346-.228.148-.05.296-.076.494-.076s.371.026.52.102a.946.946 0 0 1 .346.278.89.89 0 0 1 .173.38c.05.127.05.278.05.405 0 .152-.025.304-.075.456-.05.152-.123.278-.198.38a1.715 1.715 0 0 1-.321.278c-.124.076-.297.101-.47.101h-1.706c-.074 0-.123-.025-.148-.05-.025-.026-.05-.076-.05-.152 0-.101.025-.152.05-.152.025-.025.099-.025.173-.025h.717v-.026Zm.914 0a.518.518 0 0 0 .297-.076c.074-.05.148-.101.198-.202a.956.956 0 0 0 .124-.279c.025-.101.024-.202.024-.304 0-.227-.05-.43-.173-.557-.099-.152-.272-.227-.47-.227a.86.86 0 0 0-.247.05.536.536 0 0 0-.197.127.885.885 0 0 0-.149.228c-.05.1-.05.202-.05.329 0 .101 0 .177.026.278.024.076.024.178.049.253.025.076.05.152.074.203.025.05.05.127.074.152h.42v.025ZM91.266 7.443v-.38h1.088V4.455h.445v2.608h.964V3.52h.445v3.924h-2.942Zm1.83 1.468h-1.088v-.253h.247c-.025-.101-.05-.152-.05-.202 0-.05-.024-.102-.024-.127 0-.152.05-.253.148-.354.099-.102.247-.152.445-.152h.247v.253h-.148a.518.518 0 0 0-.297.076c-.074.05-.099.127-.099.228 0 .025 0 .076.025.126 0 .051.025.102.05.178h.568v.227h-.025ZM95.444 3.519v3.924h-.445V3.519h.445ZM99.993 7.24c0 .101-.025.152-.05.177-.025.026-.099.026-.173.026h-.222c-.149 0-.272-.026-.396-.076a.546.546 0 0 1-.247-.228h-.495c-.42 0-.741-.076-.939-.253-.198-.178-.297-.405-.297-.735 0-.38.124-.658.346-.835.223-.177.544-.253.965-.253h.172a.67.67 0 0 1 .223.025.67.67 0 0 1 .223.025c.074 0 .123.026.173.026v1.468a.55.55 0 0 0 .074.304c.05.076.148.127.297.127h.123c.074 0 .124 0 .148.025.05.05.075.101.075.177Zm-2.324-1.114c0 .228.074.405.222.507.148.1.371.151.643.151h.322V5.468c-.075 0-.174-.025-.223-.025h-.124c-.247 0-.445.05-.593.151-.173.127-.247.304-.247.532Zm.05-1.722c0-.075.024-.151.073-.202a.277.277 0 0 1 .198-.076c.074 0 .148.025.198.076.05.05.074.127.074.202a.291.291 0 0 1-.074.203.277.277 0 0 1-.198.076.277.277 0 0 1-.198-.076.292.292 0 0 1-.074-.203Zm.691 0c0-.075.025-.151.075-.202a.277.277 0 0 1 .198-.076c.074 0 .148.025.197.076.05.05.075.127.075.202a.291.291 0 0 1-.075.203.277.277 0 0 1-.197.076.277.277 0 0 1-.199-.076.291.291 0 0 1-.074-.203Z"/><path d="M99.795 7.443c-.074 0-.124-.026-.148-.05-.025-.026-.05-.077-.05-.153 0-.101.025-.152.05-.152.024-.025.099-.025.173-.025h.865V5.62h.445v1.443h.939V5.62h.445v1.443h.569c.148 0 .247-.025.272-.101.049-.076.074-.178.074-.33V5.14h.445v1.747c0 .025.025.05.049.076.025.025.05.05.099.05.05.026.074.026.124.026h.272c.074 0 .123 0 .148.025.025.025.05.076.05.152 0 .101-.025.152-.05.177-.025.025-.099.025-.173.025h-.099a.868.868 0 0 1-.272-.05.44.44 0 0 1-.197-.178c-.05.051-.099.102-.198.152-.099.051-.223.076-.42.076h-3.412v.026Z"/><path d="M104.368 7.443c-.074 0-.123-.026-.148-.05-.025-.026-.05-.077-.05-.153 0-.101.025-.152.05-.152.025-.025.099-.025.173-.025h.939V5.62h.445v1.443h.94V5.62h.444v1.443h.915V5.139h.445v2.304h-4.153ZM111.142 7.443c0 .152-.025.278-.074.405a.892.892 0 0 1-.173.304.67.67 0 0 1-.322.177c-.123.05-.296.076-.494.076h-.643V8.05h.643c.222 0 .371-.05.47-.126.098-.102.148-.253.148-.456h-.321a1.66 1.66 0 0 1-.668-.127 1.235 1.235 0 0 1-.395-.278 1.385 1.385 0 0 1-.198-.38 1.978 1.978 0 0 1-.05-.38c0-.177.025-.329.075-.48a.996.996 0 0 1 .247-.38c.099-.102.272-.178.445-.254.173-.05.395-.076.642-.076.099 0 .198 0 .322.026.123 0 .222.025.321.025v1.899h.495c.074 0 .123 0 .148.025.025.026.05.076.05.152 0 .101-.025.152-.05.177-.025.026-.099.026-.173.026h-.445Zm-1.632-1.165c0 .152.025.279.075.354a.883.883 0 0 0 .173.254c.074.05.173.101.271.126.099.026.223.05.371.05h.272V5.469h-.198c-.098 0-.222 0-.321.025-.124.025-.222.05-.321.101-.099.051-.173.152-.247.254a1.323 1.323 0 0 0-.075.43Zm1.36-1.595h-1.261v-.279h.297a.671.671 0 0 1-.074-.253c0-.05-.025-.126-.025-.177 0-.152.049-.304.173-.405.124-.101.297-.152.519-.152h.247v.253h-.197c-.149 0-.272.026-.346.05-.075.051-.124.127-.124.28 0 .05 0 .1.025.151 0 .05.024.127.074.228h.643v.304h.049Z"/><path d="M112.378 7.063a1.349 1.349 0 0 1-.123-.38 1.652 1.652 0 0 1-.074-.506 1.3 1.3 0 0 1 .074-.43c.049-.127.123-.254.222-.355.099-.101.223-.177.346-.228a1.46 1.46 0 0 1 .495-.076c.197 0 .37.026.519.102a.95.95 0 0 1 .346.278.896.896 0 0 1 .173.38c.049.127.049.278.049.405 0 .152-.024.304-.074.456a1.32 1.32 0 0 1-.198.38 1.67 1.67 0 0 1-.321.278c-.124.076-.297.101-.47.101h-1.705c-.074 0-.124-.025-.149-.05a.22.22 0 0 1-.049-.152c0-.101.025-.152.049-.152.025-.025.099-.025.173-.025h.717v-.026Zm.915 0a.52.52 0 0 0 .297-.076c.074-.05.148-.101.197-.202a.94.94 0 0 0 .124-.279c.025-.101.025-.202.025-.304 0-.227-.05-.43-.173-.557-.099-.152-.272-.227-.47-.227a.859.859 0 0 0-.247.05.535.535 0 0 0-.198.127.885.885 0 0 0-.148.228c-.05.1-.05.202-.05.329 0 .101 0 .177.025.278.025.076.025.178.049.253.025.076.05.152.075.203.024.05.049.127.074.152h.42v.025ZM45.358 16.659v-4.026h2.448v.405h-1.929v1.342h1.854v.405h-1.854v1.469h2.003v.405h-2.522ZM52.502 16.659v-1.671c0-.127 0-.228-.024-.33a.768.768 0 0 0-.1-.252.67.67 0 0 0-.197-.178.607.607 0 0 0-.321-.076.704.704 0 0 0-.346.076c-.1.05-.173.101-.223.203a.949.949 0 0 0-.123.278c-.025.101-.025.228-.025.355v1.57h-.47v-1.62c0-.127 0-.229-.025-.33-.024-.101-.049-.203-.098-.278a.462.462 0 0 0-.198-.178.607.607 0 0 0-.322-.076.607.607 0 0 0-.32.076.588.588 0 0 0-.223.203.856.856 0 0 0-.124.304c-.025.1-.05.228-.05.329v1.57h-.47v-1.849c0-.329 0-.633-.024-.962h.47l.025.456c.197-.33.494-.506.865-.506.222 0 .395.05.544.126.148.076.247.228.346.456.197-.38.519-.582.964-.582.197 0 .346.025.47.1.123.051.222.153.296.254a.869.869 0 0 1 .148.38c.025.152.05.303.05.48v1.647h-.495v.025ZM54.11 13.14v-.507h.543v.507h-.544Zm.024 3.519v-2.81h.47v2.81h-.47ZM57.15 14.304h-.123c-.272 0-.47.076-.594.228a1.126 1.126 0 0 0-.173.633v1.52h-.47v-2c0-.28 0-.558-.024-.836h.47l.024.455a.934.934 0 0 1 .346-.354c.124-.076.297-.101.495-.101h.148v.455h-.099ZM59.795 16.659c0-.05-.025-.127-.025-.203 0-.076-.024-.126-.024-.202a1.035 1.035 0 0 1-.396.354 1.122 1.122 0 0 1-.519.101 1.86 1.86 0 0 1-.37-.05.558.558 0 0 1-.297-.152c-.1-.076-.149-.152-.223-.253a.862.862 0 0 1-.074-.38c0-.203.05-.38.148-.507a.764.764 0 0 1 .396-.278c.148-.076.321-.101.519-.127.173-.025.37-.025.52-.025h.271v-.177c0-.228-.05-.38-.124-.507-.099-.126-.247-.177-.47-.177-.172 0-.296.025-.395.101-.099.076-.148.203-.173.38h-.47c0-.152.05-.278.1-.38.049-.1.148-.177.222-.253.099-.05.198-.101.321-.126.124-.026.247-.05.371-.05.346 0 .618.075.791.227.173.152.247.405.247.785v1.038c0 .177 0 .354.025.506.025.152.05.254.05.33h-.42v.025Zm-.099-1.393h-.247c-.099 0-.222 0-.346.025-.124 0-.247.051-.37.076a1.16 1.16 0 0 0-.297.178.488.488 0 0 0-.124.329c0 .076.025.152.05.228.024.076.074.126.123.177.05.05.124.076.198.101.074.026.148.026.222.026.173 0 .322-.026.42-.102a.714.714 0 0 0 .223-.253c.05-.101.074-.228.099-.38.05-.126.05-.278.05-.405ZM62.169 16.684c-.223 0-.396-.05-.495-.152-.099-.101-.173-.278-.173-.506v-1.848h-.544v-.33h.544v-.557l.47-.202v.76h.618v.329h-.618v1.873c0 .05.025.101.05.152.024.025.073.076.123.076.05.025.123.025.198.025h.123c.05 0 .074 0 .124-.025v.38c-.124.025-.272.025-.42.025ZM63.776 15.342v.05a2 2 0 0 0 .049.38.794.794 0 0 0 .148.33.708.708 0 0 0 .247.228.81.81 0 0 0 .371.076c.198 0 .347-.051.47-.178.124-.101.198-.278.223-.48h.445c-.05.328-.198.582-.396.734-.198.151-.494.227-.79.227-.224 0-.397-.025-.57-.1a1.194 1.194 0 0 1-.395-.305 1.957 1.957 0 0 1-.248-.455 2.077 2.077 0 0 1-.074-.583c0-.202.025-.405.075-.582.049-.177.123-.33.247-.481a1.2 1.2 0 0 1 .395-.33c.148-.075.346-.126.594-.126.222 0 .42.05.568.127.149.076.272.202.371.329.099.152.148.304.198.48.025.178.05.38.05.583h-1.979v.076Zm1.532-.329c0-.127-.024-.228-.049-.33a.946.946 0 0 0-.124-.278.588.588 0 0 0-.222-.202.672.672 0 0 0-.322-.076.608.608 0 0 0-.321.076c-.074.05-.173.101-.247.202a.608.608 0 0 0-.149.279.796.796 0 0 0-.074.329h1.508ZM68.745 15.848c0 .152-.025.304-.1.406-.073.1-.147.202-.246.278a.827.827 0 0 1-.371.152c-.124.025-.272.05-.396.05-.148 0-.272-.025-.42-.05a.856.856 0 0 1-.346-.152.787.787 0 0 1-.222-.278 1.115 1.115 0 0 1-.075-.43h.47c0 .202.074.328.173.43.099.1.247.126.445.126.074 0 .148 0 .222-.025.075-.025.149-.05.198-.076.05-.05.1-.076.148-.152.05-.05.05-.127.05-.228a.372.372 0 0 0-.05-.177.302.302 0 0 0-.123-.127c-.05-.05-.124-.076-.198-.1l-.222-.077-.223-.05a1.373 1.373 0 0 1-.296-.102c-.1-.05-.198-.076-.272-.152a.593.593 0 0 1-.198-.228.646.646 0 0 1-.074-.329c0-.152.025-.278.099-.38.074-.1.148-.177.247-.253.099-.076.222-.101.346-.126.123-.026.247-.05.37-.05.149 0 .273.024.396.05a.759.759 0 0 1 .322.152.713.713 0 0 1 .222.253c.05.101.074.228.099.405h-.47c0-.177-.05-.304-.148-.38-.099-.101-.223-.127-.396-.127-.049 0-.123 0-.197.026-.075.025-.124.05-.173.076a.302.302 0 0 0-.124.126.486.486 0 0 0-.05.203c0 .127.05.228.174.304.123.076.247.126.42.177l.222.05c.124.026.223.077.346.102.1.05.198.101.272.152a.55.55 0 0 1 .173.228 1.068 1.068 0 0 0-.024.303ZM74.232 16.659v-1.848h-2.027v1.848h-.494v-4.026h.494v1.747h2.027v-1.747h.495v4.026h-.495ZM76.31 15.342v.05c0 .127.024.254.05.38a.793.793 0 0 0 .147.33.707.707 0 0 0 .248.228.81.81 0 0 0 .37.076c.198 0 .347-.051.47-.178.124-.101.198-.278.222-.48h.446c-.05.328-.198.582-.396.734-.198.151-.494.227-.791.227-.222 0-.396-.025-.569-.1a1.194 1.194 0 0 1-.395-.305 1.954 1.954 0 0 1-.247-.455 2.073 2.073 0 0 1-.075-.583c0-.202.025-.405.075-.582.05-.177.123-.33.247-.481.099-.127.247-.253.395-.33.149-.075.346-.126.594-.126.222 0 .42.05.568.127.148.076.272.202.371.329.1.152.149.304.198.48.025.178.05.38.05.583H76.31v.076Zm1.532-.329c0-.127-.025-.228-.05-.33a.946.946 0 0 0-.123-.278.588.588 0 0 0-.222-.202.671.671 0 0 0-.322-.076.607.607 0 0 0-.321.076.63.63 0 0 0-.247.202.608.608 0 0 0-.148.279.796.796 0 0 0-.075.329h1.508ZM81.031 16.659c0-.05-.025-.127-.025-.203 0-.076-.024-.126-.024-.202a1.035 1.035 0 0 1-.396.354 1.123 1.123 0 0 1-.52.101c-.123 0-.246-.025-.37-.05a.559.559 0 0 1-.296-.152c-.1-.076-.149-.152-.223-.253a.863.863 0 0 1-.075-.38c0-.203.05-.38.149-.507a.765.765 0 0 1 .396-.278c.148-.076.321-.101.519-.127.173-.025.37-.025.519-.025h.272v-.177c0-.228-.05-.38-.124-.507-.099-.126-.247-.177-.47-.177-.172 0-.296.025-.395.101-.099.076-.148.203-.173.38h-.47c0-.152.05-.278.1-.38.049-.1.148-.177.222-.253.099-.05.197-.101.321-.126.124-.026.247-.05.37-.05.347 0 .619.075.792.227.173.152.247.405.247.785v1.038c0 .177 0 .354.025.506.025.152.05.254.05.33h-.421v.025Zm-.099-1.393h-.222c-.1 0-.223 0-.346.025-.124 0-.248.051-.371.076-.124.051-.198.102-.297.178a.488.488 0 0 0-.123.329c0 .076.024.152.049.228.025.076.074.126.124.177.049.05.123.076.197.101a.67.67 0 0 0 .223.026c.173 0 .321-.026.42-.102a.714.714 0 0 0 .222-.253c.05-.101.075-.228.1-.38 0-.126.024-.278.024-.405ZM82.564 16.659v-4.026h.47v4.026h-.47ZM85.06 16.684c-.222 0-.395-.05-.493-.152-.124-.101-.174-.278-.174-.506v-1.848h-.543v-.33h.543v-.557l.47-.202v.76h.618v.329h-.618v1.873c0 .05.025.101.05.152.024.025.074.076.123.076.05 0 .124.025.198.025h.124c.049 0 .074 0 .123-.025v.38c-.123.025-.272.025-.42.025ZM88.25 16.659v-1.57c0-.126 0-.228-.025-.354-.025-.127-.05-.203-.074-.304a.511.511 0 0 0-.198-.203c-.074-.05-.198-.075-.346-.075a.704.704 0 0 0-.346.075.491.491 0 0 0-.223.228c-.05.101-.099.203-.123.33-.025.126-.05.253-.05.38v1.493h-.47v-4.026h.47v1.646c.1-.152.223-.278.371-.354.148-.076.321-.127.52-.127.172 0 .346.025.47.076.123.05.222.127.296.228.074.101.123.202.173.354.025.127.05.279.05.456v1.747h-.495ZM94.48 15.545c0 .202-.05.405-.124.531a1.26 1.26 0 0 1-.346.38 1.56 1.56 0 0 1-.47.203c-.173.05-.346.076-.543.076-.173 0-.347-.026-.52-.05a.823.823 0 0 1-.42-.203 1.025 1.025 0 0 1-.296-.355 1.667 1.667 0 0 1-.149-.532h.52c0 .127.024.228.074.33.049.1.123.177.197.227.075.051.173.102.272.127.1.025.223.05.322.05s.222-.025.32-.05c.1-.025.223-.076.298-.127a.491.491 0 0 0 .222-.228.715.715 0 0 0 .074-.329.52.52 0 0 0-.074-.278c-.05-.076-.099-.152-.173-.203a2.171 2.171 0 0 0-.247-.152c-.099-.05-.198-.075-.297-.1l-.346-.102c-.148-.05-.272-.101-.42-.152a2.683 2.683 0 0 1-.37-.203.74.74 0 0 1-.248-.303.79.79 0 0 1-.099-.43 1.017 1.017 0 0 1 .445-.862c.124-.1.272-.152.445-.202.173-.05.321-.05.494-.05s.322.024.47.05c.148.025.297.101.42.177a.863.863 0 0 1 .297.304.987.987 0 0 1 .124.48h-.52c0-.126-.05-.202-.074-.303-.025-.101-.099-.152-.173-.203a.73.73 0 0 0-.247-.1c-.099-.026-.198-.026-.297-.026-.099 0-.197 0-.296.025-.1.026-.198.05-.272.127a.763.763 0 0 0-.198.202.55.55 0 0 0-.074.304c0 .101.025.177.074.228a1.1 1.1 0 0 0 .148.177c.075.05.149.102.223.127.074.025.148.076.222.101l.445.152c.148.05.272.101.42.152.124.05.248.127.371.203a.741.741 0 0 1 .248.303c.098.178.148.33.148.507ZM95.765 15.342v.05a2 2 0 0 0 .05.38.794.794 0 0 0 .148.33.707.707 0 0 0 .247.228c.099.05.222.076.37.076.198 0 .347-.051.47-.178.124-.101.198-.278.223-.48h.445c-.05.328-.198.582-.396.734-.198.151-.494.227-.791.227-.223 0-.396-.025-.569-.1a1.193 1.193 0 0 1-.395-.305 1.957 1.957 0 0 1-.247-.455 2.073 2.073 0 0 1-.074-.583c0-.202.024-.405.074-.582.05-.177.123-.33.247-.481.099-.127.247-.253.396-.33.148-.075.346-.126.593-.126.222 0 .42.05.568.127.149.076.273.202.371.329.1.152.149.304.198.48.025.178.05.38.05.583h-1.978v.076Zm1.532-.329c0-.127-.024-.228-.05-.33a.946.946 0 0 0-.123-.278.588.588 0 0 0-.222-.202.672.672 0 0 0-.322-.076.607.607 0 0 0-.32.076.63.63 0 0 0-.248.202.607.607 0 0 0-.148.279.794.794 0 0 0-.075.329h1.508ZM100.117 14.304h-.124c-.272 0-.47.076-.594.228a1.126 1.126 0 0 0-.173.633v1.52h-.47v-2c0-.28 0-.558-.024-.836h.47l.024.455a.934.934 0 0 1 .347-.354c.123-.076.296-.101.494-.101h.148v.455h-.098ZM102.267 16.659h-.494l-1.113-2.81h.544l.865 2.329.865-2.33h.495l-1.162 2.811ZM104.17 13.14v-.507h.544v.507h-.544Zm.025 3.519v-2.81h.47v2.81h-.47ZM108.027 16.178a1.017 1.017 0 0 1-.247.303.855.855 0 0 1-.371.178c-.149.05-.272.05-.445.05-.223 0-.42-.025-.569-.101a1.298 1.298 0 0 1-.42-.304 1.011 1.011 0 0 1-.247-.456 2.18 2.18 0 0 1-.099-.582c0-.228.025-.405.099-.608.074-.202.148-.354.247-.48.124-.127.247-.254.42-.33.173-.076.371-.126.593-.126.322 0 .569.076.767.253.198.152.321.405.346.734h-.47c-.025-.202-.074-.354-.198-.48a.712.712 0 0 0-.469-.178.74.74 0 0 0-.42.101c-.099.076-.198.152-.272.253a.863.863 0 0 0-.149.38 2.342 2.342 0 0 0-.049.43c0 .127.025.279.049.406a.891.891 0 0 0 .149.354c.074.101.148.203.247.253.099.05.222.101.395.101.198 0 .371-.05.495-.177a.676.676 0 0 0 .197-.506H108.076c.05.253.025.405-.049.532ZM109.337 15.342v.05c0 .127.025.254.049.38a.8.8 0 0 0 .149.33.705.705 0 0 0 .247.228c.099.05.223.076.371.076.198 0 .346-.051.47-.178.123-.101.197-.278.222-.48h.445c-.049.328-.198.582-.395.734-.198.151-.495.227-.791.227-.223 0-.396-.025-.569-.1a1.19 1.19 0 0 1-.396-.305 1.946 1.946 0 0 1-.247-.455 2.092 2.092 0 0 1-.074-.583c0-.202.025-.405.074-.582.049-.177.124-.33.247-.481.099-.127.247-.253.396-.33.148-.075.346-.126.593-.126.223 0 .421.05.569.127.148.076.272.202.371.329.099.152.148.304.197.48.025.178.05.38.05.583h-1.978v.076Zm1.533-.329c0-.127-.025-.228-.05-.33a.938.938 0 0 0-.123-.278.593.593 0 0 0-.223-.202.666.666 0 0 0-.321-.076.61.61 0 0 0-.322.076.628.628 0 0 0-.247.202.611.611 0 0 0-.148.279.786.786 0 0 0-.074.329h1.508ZM114.306 15.848c0 .152-.025.304-.099.406a1.306 1.306 0 0 1-.247.278.825.825 0 0 1-.371.152c-.123.025-.272.05-.395.05-.149 0-.272-.025-.42-.05a.859.859 0 0 1-.347-.152.79.79 0 0 1-.222-.278 1.038 1.038 0 0 1-.074-.43h.47c0 .202.074.328.173.43.098.1.247.126.445.126.074 0 .148 0 .222-.025.074-.025.148-.05.198-.076.049-.05.099-.076.148-.152.049-.05.049-.127.049-.228a.37.37 0 0 0-.049-.177.302.302 0 0 0-.124-.127.488.488 0 0 0-.197-.1l-.223-.077-.222-.05a1.375 1.375 0 0 1-.297-.102.585.585 0 0 1-.272-.152.65.65 0 0 1-.272-.557c0-.152.025-.278.099-.38.074-.1.148-.177.247-.253.099-.076.223-.101.346-.126.124-.026.248-.05.371-.05.149 0 .272.024.396.05a.761.761 0 0 1 .321.152.719.719 0 0 1 .223.253c.049.101.074.228.098.405h-.469c0-.177-.05-.304-.149-.38-.098-.101-.222-.127-.395-.127-.049 0-.124 0-.198.026-.074.025-.123.05-.173.076a.656.656 0 0 0-.148.126.482.482 0 0 0-.05.203c0 .127.05.228.173.304.124.076.248.126.421.177l.222.05c.124.026.223.077.346.102.099.05.198.101.272.152.074.05.124.126.173.228.05.101 0 .177 0 .303Z"/></g></g><defs><clipPath id="clip0_353_2172"><path fill="#fff" d="M.5 0h114.646v21.274H.5z"/></clipPath><clipPath id="clip1_353_2172"><path fill="#fff" d="M.073 3.395h114.67v13.733H.074z"/></clipPath></defs></svg>