<?xml version="1.0" encoding="UTF-8"?>
<svg id="Layer_1" data-name="Layer 1" xmlns="http://www.w3.org/2000/svg" version="1.1" xmlns:xlink="http://www.w3.org/1999/xlink" viewBox="0 0 81 50">
  <defs>
    <style>
      .cls-1 {
        fill: #d28a4c;
      }

      .cls-1, .cls-2, .cls-3, .cls-4, .cls-5, .cls-6, .cls-7, .cls-8, .cls-9, .cls-10 {
        stroke-width: 0px;
      }

      .cls-2 {
        fill: url(#radial-gradient-8);
      }

      .cls-3 {
        fill: url(#radial-gradient-2);
      }

      .cls-4 {
        fill: url(#radial-gradient-7);
      }

      .cls-5 {
        fill: url(#radial-gradient-5);
      }

      .cls-6 {
        fill: url(#radial-gradient);
      }

      .cls-7 {
        fill: url(#radial-gradient-6);
      }

      .cls-8 {
        fill: url(#radial-gradient-9);
      }

      .cls-9 {
        fill: url(#radial-gradient-3);
      }

      .cls-10 {
        fill: url(#radial-gradient-4);
      }
    </style>
    <radialGradient id="radial-gradient" cx="38.4" cy="6.1" fx="38.4" fy="6.1" r="6.1" gradientUnits="userSpaceOnUse">
      <stop offset="0" stop-color="#fff"/>
      <stop offset="0" stop-color="#efc3c5"/>
      <stop offset=".2" stop-color="#e19092"/>
      <stop offset=".3" stop-color="#d7676a"/>
      <stop offset=".4" stop-color="#cf4a4d"/>
      <stop offset=".4" stop-color="#ca383c"/>
      <stop offset=".5" stop-color="#c93236"/>
      <stop offset=".8" stop-color="#542224"/>
    </radialGradient>
    <radialGradient id="radial-gradient-2" cx="33.3" cy="11.3" fx="33.3" fy="11.3" r="6.2" xlink:href="#radial-gradient"/>
    <radialGradient id="radial-gradient-3" cx="28.1" cy="16.5" fx="28.1" fy="16.5" r="6.9" xlink:href="#radial-gradient"/>
    <radialGradient id="radial-gradient-4" cx="43.9" cy="11.8" fx="43.9" fy="11.8" r="6" gradientUnits="userSpaceOnUse">
      <stop offset="0" stop-color="#fff"/>
      <stop offset="0" stop-color="#dfede6"/>
      <stop offset=".1" stop-color="#a0cab5"/>
      <stop offset=".2" stop-color="#6cad8d"/>
      <stop offset=".3" stop-color="#43966d"/>
      <stop offset=".4" stop-color="#268656"/>
      <stop offset=".4" stop-color="#147c48"/>
      <stop offset=".5" stop-color="#0e7944"/>
      <stop offset=".8" stop-color="#1b3b29"/>
    </radialGradient>
    <radialGradient id="radial-gradient-5" cx="49.2" cy="16.8" fx="49.2" fy="16.8" r="6" gradientUnits="userSpaceOnUse">
      <stop offset="0" stop-color="#fff"/>
      <stop offset="0" stop-color="#d6d6d6"/>
      <stop offset=".2" stop-color="#a3a3a3"/>
      <stop offset=".3" stop-color="#7a7a7b"/>
      <stop offset=".4" stop-color="#5d5d5d"/>
      <stop offset=".4" stop-color="#4b4b4c"/>
      <stop offset=".5" stop-color="#454546"/>
      <stop offset=".8" stop-color="#262324"/>
    </radialGradient>
    <radialGradient id="radial-gradient-6" cx="43.9" cy="22" fx="43.9" fy="22" r="6.1" xlink:href="#radial-gradient-5"/>
    <radialGradient id="radial-gradient-7" cx="38.6" cy="27.2" fx="38.6" fy="27.2" r="6.1" xlink:href="#radial-gradient-5"/>
    <radialGradient id="radial-gradient-8" cx="38.5" cy="16.8" fx="38.5" fy="16.8" r="6.2" xlink:href="#radial-gradient-4"/>
    <radialGradient id="radial-gradient-9" cx="33.4" cy="22.1" fx="33.4" fy="22.1" r="6" xlink:href="#radial-gradient-4"/>
  </defs>
  <polygon class="cls-1" points="26.8 41.1 26.8 41.8 27.9 41.8 27.9 44.8 28.7 44.8 28.7 41.8 29.9 41.8 29.9 41.1 26.8 41.1"/>
  <path class="cls-1" d="M38.2,44.6c0,.1-.1.2-.3.2h-.8c-.1,0-.3,0-.3-.2l-.4-2.4c0-.2,0-.3,0-.5h-.1c0,.2,0,.3,0,.5l-.4,2.4c0,.1-.1.2-.3.2h-.8c-.1,0-.3,0-.3-.2l-.6-3.5h.8l.4,2.6c0,.2,0,.3,0,.5h.1c0-.2,0-.4,0-.5l.4-2.3c0-.2.1-.3.3-.3h.7c.2,0,.3.1.3.3l.4,2.3c0,.2,0,.4,0,.5h.1c0-.2,0-.4,0-.5l.4-2.6h.8l-.6,3.5Z"/>
  <rect class="cls-1" x="39.6" y="42.6" width="1.6" height=".5"/>
  <path class="cls-1" d="M43.3,44c0,.5-.3.8-.8.8s-.5,0-.7-.1v-.6h.3c.2,0,.4,0,.4-.3v-2.8h.8v2.9Z"/>
  <g>
    <path class="cls-1" d="M46.9,44.8c-.5,0-1.2,0-1.7,0s-.8-.3-.8-.8v-2.3c0-.5.3-.8.8-.8s1.2,0,1.7,0v.6h-1.5c-.2,0-.3,0-.3.3v.6h1.5v.6h-1.5v.7c0,.2,0,.3.3.3h1.4v.6Z"/>
    <path class="cls-1" d="M50.3,44.8c-.5,0-1.2,0-1.7,0s-.8-.3-.8-.8v-2.3c0-.5.3-.8.8-.8s1.2,0,1.7,0v.6h-1.5c-.2,0-.3,0-.3.3v.6h1.5v.6h-1.5v.7c0,.2,0,.3.3.3h1.4v.6Z"/>
  </g>
  <polygon class="cls-1" points="53.4 41.1 53.4 42.5 52.1 42.5 52.1 41.1 51.2 41.1 51.2 44.8 52.1 44.8 52.1 43.2 53.4 43.2 53.4 44.8 54.2 44.8 54.2 41.1 53.4 41.1"/>
  <g>
    <path class="cls-1" d="M31.8,41.1c-1,0-1.4.4-1.4,1.5v2.2h.8v-1.4h1.3v1.4h.8v-2.2c0-1.1-.4-1.5-1.5-1.5M31.2,42.8v-.2c0-.7.2-.9.6-.9s.7.2.7.9v.2h-1.3Z"/>
    <path class="cls-1" d="M31.8,38.5h-.9c-.7,0-1.2-.5-1.4-1.1-.3.4-.6.6-1,.6-1,0-1.6-.7-1.6-1.8s.6-1.9,1.6-1.9.9,0,.9,0h1v2.5c0,.6.3.9.9.9h.5v.9ZM29.5,36.1v-1.1h-.8c-.6,0-1,.5-1,1.2s.3,1.1.9,1.1.9-.5.9-1.2"/>
    <path class="cls-1" d="M35.5,40h-.9v-.9h.9v.9ZM38.2,38.5h-6.9v-.9h4.1c.3,0,.4,0,.5-.3,0-.1,0-.3,0-.6v-1.8h.9v1.7c0,.5,0,.7-.2.9h1.5v.9ZM36.9,40h-.9v-.9h.9v.9Z"/>
    <path class="cls-1" d="M44.8,38v.5h-6.9v-.9h5.9c0-.5-.1-.9-.4-1.2-.3-.4-.8-.6-1.3-.6s-.4,0-.6.1c-.3.1-.5.3-.7.5,0-.2-.2-.4-.4-.7.2-.2.5-.4.8-.5.3-.1.7-.2,1-.2.6,0,1.1.1,1.5.4.7.5,1.1,1.3,1.1,2.5M42.6,40h-.9v-.9h.9v.9Z"/>
    <path class="cls-1" d="M52.4,38.5h-3.2c-.1.9-.7,1.3-1.7,1.3v-.7c.4,0,.7-.2.9-.6h-.8c-.9,0-1.7-.8-1.7-1.8s.8-1.7,1.7-1.7,1.6.7,1.6,1.7v.9h3.2v.9ZM48.4,37.7v-1.1c0-.5-.3-.8-.8-.8s-.8.4-.8.9.4,1,.8,1h.8Z"/>
    <path class="cls-1" d="M52.7,34.6h-.9v-.9h.9v.9ZM54.2,37.1c0,.9-.4,1.4-1.3,1.4h-.9v-.9h.7c.3,0,.5,0,.5-.3,0,0,0-.3,0-.6v-1.8h.9v2.1ZM54.2,34.6h-.9v-.9h.9v.9Z"/>
  </g>
  <path class="cls-6" d="M38.3,6c-1.2,1.2-1.2,3.1,0,4.2,1.2,1.2,3.1,1.2,4.2,0,1.2-1.2,1.2-3.1,0-4.2-.6-.6-1.4-.9-2.1-.9s-1.5.3-2.1.9"/>
  <path class="cls-3" d="M33.1,11.2c-1.2,1.2-1.2,3.1,0,4.2,1.2,1.2,3.1,1.2,4.2,0,1.2-1.2,1.2-3.1,0-4.2-.6-.6-1.4-.9-2.1-.9s-1.5.3-2.1.9"/>
  <path class="cls-9" d="M27.9,16.4c-1.2,1.2-1.2,3.1,0,4.2,1.2,1.2,3.1,1.2,4.2,0,1.2-1.2,1.2-3.1,0-4.2-.6-.6-1.4-.9-2.1-.9s-1.5.3-2.1.9"/>
  <path class="cls-10" d="M43.6,11.2c-1.2,1.2-1.2,3.1,0,4.2,1.2,1.2,3.1,1.2,4.2,0,1.2-1.2,1.2-3.1,0-4.2-.6-.6-1.4-.9-2.1-.9s-1.5.3-2.1.9"/>
  <path class="cls-5" d="M48.8,16.5c-1.2,1.2-1.2,3.1,0,4.2,1.2,1.2,3.1,1.2,4.2,0,1.2-1.2,1.2-3.1,0-4.2-.6-.6-1.4-.9-2.1-.9s-1.5.3-2.1.9"/>
  <path class="cls-7" d="M43.6,21.7c-1.2,1.2-1.2,3.1,0,4.2,1.2,1.2,3.1,1.2,4.2,0,1.2-1.2,1.2-3.1,0-4.2-.6-.6-1.4-.9-2.1-.9s-1.5.3-2.1.9"/>
  <path class="cls-4" d="M38.4,26.9c-1.2,1.2-1.2,3.1,0,4.2,1.2,1.2,3.1,1.2,4.2,0,1.2-1.2,1.2-3.1,0-4.2-.6-.6-1.4-.9-2.1-.9s-1.5.3-2.1.9"/>
  <path class="cls-2" d="M38.3,16.5c-1.2,1.2-1.2,3.1,0,4.2,1.2,1.2,3.1,1.2,4.2,0,1.2-1.2,1.2-3.1,0-4.2-.6-.6-1.4-.9-2.1-.9s-1.5.3-2.1.9"/>
  <path class="cls-8" d="M33.1,21.7c-1.2,1.2-1.2,3.1,0,4.2,1.2,1.2,3.1,1.2,4.2,0,1.2-1.2,1.2-3.1,0-4.2-.6-.6-1.4-.9-2.1-.9s-1.5.3-2.1.9"/>
</svg>